<svg cache-id="189af60386d84fb29048d6eee1e0907a" id="ej0Mhql36To1" xmlns="http://www.w3.org/2000/svg" xmlns:xlink="http://www.w3.org/1999/xlink" viewBox="0 0 200 200" shape-rendering="geometricPrecision" text-rendering="geometricPrecision">
<style><![CDATA[
#ej0Mhql36To18 {animation: ej0Mhql36To18_c_o 3000ms linear 1 normal forwards}@keyframes ej0Mhql36To18_c_o { 0% {opacity: 0} 16.666667% {opacity: 1} 100% {opacity: 1}} #ej0Mhql36To21_to {animation: ej0Mhql36To21_to__to 3000ms linear 1 normal forwards}@keyframes ej0Mhql36To21_to__to { 0% {transform: translate(107.689759px,-52.92495px)} 16.666667% {transform: translate(107.689759px,-52.92495px)} 23.666667% {transform: translate(107.689759px,81.65505px)} 27% {transform: translate(107.689759px,94.65505px)} 30.333333% {transform: translate(107.689759px,86.65505px)} 33.333333% {transform: translate(107.689759px,92.65505px)} 100% {transform: translate(107.689759px,92.65505px)}}
]]></style>
<defs><rect id="ej0Mhql36To2" width="122" height="123" rx="0" ry="0"/></defs><g transform="matrix(1.668057 0 0 1.668057-852.543962-2532.944413)"><g><g transform="translate(511 1518.45)"><g><g><g clip-path="url(#ej0Mhql36To16)"><g><circle r="59.8" transform="translate(60 60)" fill="none" stroke="#00abc8" stroke-width="0.5" stroke-miterlimit="10"/><circle r="45.9" transform="translate(60 60)" fill="none" stroke="#00abc8" stroke-width="0.5" stroke-miterlimit="10"/><line x1="60.1" y1="87.5" x2="60.1" y2="119.8" transform="matrix(-.50342 0 0-.50342 90.355539 163.622986)" fill="none" stroke="#00abc8" stroke-width="0.5" stroke-miterlimit="10"/><line x1="32.5" y1="60.2" x2="0.1" y2="60.2" transform="matrix(.762184 0 0 0.762184 0.279401 14.316523)" fill="none" stroke="#00abc8" stroke-width="0.5" stroke-miterlimit="10"/><line x1="120" y1="60.2" x2="87.6" y2="60.2" transform="matrix(.798309 0 0 0.798309 23.933026 12.141798)" fill="none" stroke="#00abc8" stroke-width="0.5" stroke-miterlimit="10"/><line x1="60.1" y1="0.2" x2="60.1" y2="29.5" transform="matrix(.638989 0 0 0.638989 21.69676-.034487)" fill="none" stroke="#00abc8" stroke-width="0.5" stroke-miterlimit="10"/></g><clipPath id="ej0Mhql36To16"><use width="122" height="123" xlink:href="#ej0Mhql36To2" transform="translate(-1-1.5)"/></clipPath></g></g></g></g></g></g><path id="ej0Mhql36To18" d="M102.89,162.73c-2.52-.24-5.05-.44-7.56-.74-7.04-.6-13.92-2.49-20.27-5.58-1.89-.93-3.56-2.24-4.92-3.85-2.78-3.12-2.51-7.9.61-10.68.06-.06.13-.11.19-.16c1.88-1.72,4.04-3.1,6.39-4.08c2.57-1.16,5.26-2.03,8.02-2.6c1.33-.29,2.64.56,2.93,1.89c0,.01,0,.01,0,.02.27,1.23-.4,2.48-1.58,2.93-.6.22-1.22.42-1.84.57-3.29.81-6.42,2.19-9.24,4.07-2.95,2.15-2.97,4.03,0,6.16c3.66,2.39,7.76,4.01,12.05,4.78c7.3,1.58,14.76,2.26,22.22,2.03c6.82-.02,13.61-.87,20.22-2.53c3.47-.78,6.77-2.17,9.76-4.1c3.25-2.27,3.25-4.29,0-6.53-3.35-2.1-7.05-3.59-10.93-4.4-.59-.13-1.17-.31-1.72-.55-1.26-.61-1.78-2.12-1.16-3.38.42-.85,1.27-1.4,2.22-1.42.89.05,1.76.22,2.6.52c3.94.89,7.71,2.39,11.18,4.46c1.09.68,2.1,1.5,3,2.42c3.1,2.88,3.28,7.74.4,10.84-.21.23-.44.45-.68.65-3.01,2.64-6.59,4.56-10.45,5.62-6.47,2.01-13.18,3.16-19.96,3.44-.52-.04-1.05.03-1.54.21l-9.94-.01Z" transform="translate(-8 0)" opacity="0"/><g transform="translate(-8 0)"><rect width="94.67" height="124.22" rx="0" ry="0" transform="translate(60.36 38.51)" fill="none"/><g id="ej0Mhql36To21_to" transform="translate(107.689759,-52.92495)"><g transform="translate(-107.689758,-91.434948)"><path d="M110.88,38.51c2.4.46,4.86.63,7.26,1.19c10.13,2.27,19.22,7.84,25.84,15.84c5.6,6.6,9.23,14.64,10.48,23.2c1.66,10.35-.22,20.95-5.34,30.09-4.74,8.73-12.15,15.72-21.15,19.93-3.22,1.59-6.64,2.74-10.17,3.42-1.11.27-2.03,1.03-2.5,2.07-1.58,2.58-2.95,5.29-4.11,8.08-.27.86-.91,1.55-1.75,1.89-1.29.44-2.7-.19-3.23-1.44-1.56-2.83-3.26-5.58-5.1-8.23-.86-1.26-2.17-2.13-3.67-2.44-14.87-3.14-27.24-13.39-33.09-27.42-4.63-10.29-5.28-21.93-1.84-32.67c2.78-9.29,8.41-17.46,16.09-23.38c7.26-5.75,16.06-9.21,25.29-9.95.24-.04.47-.1.69-.18h6.3Zm-2.54,97.98c.9-1.56,1.73-3,2.56-4.44c1.24-2.48,3.6-4.21,6.34-4.65c3.33-.62,6.54-1.75,9.52-3.36c9.55-4.71,16.94-12.89,20.68-22.86c3.63-9.21,3.86-19.41.64-28.76-2.82-8.69-8.42-16.21-15.93-21.41-7.18-5.14-15.81-7.85-24.64-7.76-6.71-.01-13.32,1.62-19.26,4.75C80.4,52.02,74,58.42,69.97,66.29c-4.16,7.9-5.67,16.92-4.32,25.75c1.26,9.34,5.66,17.98,12.46,24.5c5.87,5.79,13.35,9.69,21.46,11.17c1.69.31,3.22,1.21,4.31,2.54c1.6,2,3.09,4.08,4.46,6.24"/><path d="M107.68,56.01c16.75-.07,30.38,13.45,30.45,30.2s-13.45,30.38-30.2,30.45-30.38-13.45-30.45-30.2c0-.02,0-.03,0-.05.01-16.7,13.49-30.28,30.2-30.4M133.1,86.39c0-14.01-11.37-25.37-25.38-25.36-14.01,0-25.37,11.37-25.36,25.38c0,14,11.34,25.35,25.34,25.36c14.01-.03,25.36-11.37,25.4-25.38"/><path d="M100.35,90.19c-1.57,0-3.15.02-4.72,0-1.45.13-2.73-.94-2.86-2.4-.01-.07-.01-.15-.01-.22.05-1.44,1.26-2.57,2.7-2.52.05,0,.1,0,.15.01c3.02-.03,6.05-.05,9.07.01c1.07.02,1.46-.21,1.42-1.37-.09-2.87-.04-5.74-.02-8.6-.01-.56.06-1.13.2-1.67.44-1.32,1.87-2.03,3.18-1.59.82.27,1.44.95,1.65,1.79.1.56.15,1.12.14,1.68.01,2.91.03,5.82,0,8.73-.01.8.26,1.04,1.04,1.03c3.14-.04,6.29-.03,9.43,0c1.42-.14,2.68.89,2.82,2.31s-.89,2.68-2.31,2.82c-.17.02-.33.02-.5,0-2.98.04-5.97.01-8.95.01-1.52,0-1.53,0-1.53,1.58c0,2.75,0,5.49,0,8.24.01.52-.04,1.05-.13,1.56-.31,1.35-1.66,2.2-3.01,1.88-.85-.2-1.54-.82-1.82-1.64-.14-.55-.21-1.11-.2-1.67-.02-2.99-.04-5.98,0-8.97.01-.8-.24-1.04-1.02-1.01-1.57.06-3.14.02-4.72.02"/></g></g></g></svg>
