<svg cache-id="9c2790f0d8244f5ea349fac1cd1cb78e" id="e38EVDUhSAj1" xmlns="http://www.w3.org/2000/svg" xmlns:xlink="http://www.w3.org/1999/xlink" viewBox="0 0 200 200" shape-rendering="geometricPrecision" text-rendering="geometricPrecision">
<style><![CDATA[
#e38EVDUhSAj18_tr {animation: e38EVDUhSAj18_tr__tr 3000ms linear 1 normal forwards}@keyframes e38EVDUhSAj18_tr__tr { 0% {transform: translate(99.59px,73.41px) rotate(0deg)} 26.666667% {transform: translate(99.59px,73.41px) rotate(0deg)} 33.333333% {transform: translate(99.59px,73.41px) rotate(360.144944deg)} 100% {transform: translate(99.59px,73.41px) rotate(360.144944deg)}} #e38EVDUhSAj18 {animation: e38EVDUhSAj18_c_o 3000ms linear 1 normal forwards}@keyframes e38EVDUhSAj18_c_o { 0% {opacity: 0} 16.666667% {opacity: 0} 26.666667% {opacity: 1} 100% {opacity: 1}} #e38EVDUhSAj19_to {animation: e38EVDUhSAj19_to__to 3000ms linear 1 normal forwards}@keyframes e38EVDUhSAj19_to__to { 0% {transform: translate(99.589993px,258.380001px)} 16.666667% {transform: translate(99.589993px,101.380001px)} 100% {transform: translate(99.589993px,101.380001px)}}
]]></style>
<defs><rect id="e38EVDUhSAj2" width="122" height="123" rx="0" ry="0"/></defs><g transform="matrix(1.668056 0 0 1.668056-852.54339-2532.942835)"><g><g transform="translate(511 1518.45)"><g><g><g clip-path="url(#e38EVDUhSAj16)"><g><circle r="59.8" transform="translate(60 60)" fill="none" stroke="#00abc8" stroke-width="0.5" stroke-miterlimit="10"/><circle r="45.9" transform="translate(60 60)" fill="none" stroke="#00abc8" stroke-width="0.5" stroke-miterlimit="10"/><line x1="60.1" y1="87.5" x2="60.1" y2="119.8" transform="matrix(.588283 0 0 0.588283 24.744191 49.268968)" fill="none" stroke="#00abc8" stroke-width="0.5" stroke-miterlimit="10"/><line x1="32.5" y1="60.2" x2="0.1" y2="60.2" transform="matrix(-.78043 0 0-.78043 25.424011 107.181888)" fill="none" stroke="#00abc8" stroke-width="0.5" stroke-miterlimit="10"/><line x1="120" y1="60.2" x2="87.6" y2="60.2" transform="matrix(.798307 0 0 0.798307 23.933233 12.141919)" fill="none" stroke="#00abc8" stroke-width="0.5" stroke-miterlimit="10"/><line x1="60.1" y1="0.2" x2="60.1" y2="29.5" transform="matrix(.727552 0 0 0.727552 16.374124-.150647)" fill="none" stroke="#00abc8" stroke-width="0.5" stroke-miterlimit="10"/></g><clipPath id="e38EVDUhSAj16"><use width="122" height="123" xlink:href="#e38EVDUhSAj2" transform="translate(-1-1.5)"/></clipPath></g></g></g></g></g></g><g id="e38EVDUhSAj18_tr" transform="translate(99.59,73.41) rotate(0)"><path id="e38EVDUhSAj18" d="M99.59,56.85L103.7,69.5h13.3l-10.76,7.82l4.11,12.65-10.76-7.82-10.76,7.81l4.11-12.65L82.18,69.5h13.31l4.1-12.65Z" transform="translate(-99.59,-73.41)" opacity="0"/></g><g id="e38EVDUhSAj19_to" transform="translate(99.589993,258.380001)"><g transform="translate(-99.589993,-100.380001)"><rect width="94.36" height="116" rx="0" ry="0" transform="translate(52.41 42.38)" fill="none"/><g><rect width="89.76" height="111.4" rx="0" ry="0" transform="translate(54.71 44.69)" fill="none" stroke="#000" stroke-width="4" stroke-miterlimit="10"/></g><line x1="66.47" y1="104.58" x2="132.71" y2="104.58" fill="none" stroke="#000" stroke-width="4" stroke-miterlimit="10"/><line x1="66.47" y1="122.46" x2="132.71" y2="122.46" fill="none" stroke="#000" stroke-width="4" stroke-miterlimit="10"/><line x1="66.47" y1="140.34" x2="132.71" y2="140.34" fill="none" stroke="#000" stroke-width="4" stroke-miterlimit="10"/></g></g></svg>
