<svg id="ecn234DCbBJ1" xmlns="http://www.w3.org/2000/svg" xmlns:xlink="http://www.w3.org/1999/xlink" viewBox="0 0 200 200" shape-rendering="geometricPrecision" text-rendering="geometricPrecision">
<style><![CDATA[
#ecn234DCbBJ19 {animation: ecn234DCbBJ19_c_o 3000ms linear 1 normal forwards}@keyframes ecn234DCbBJ19_c_o { 0% {opacity: 0} 13.333333% {opacity: 0} 40% {opacity: 1} 46.666667% {opacity: 0} 53.333333% {opacity: 1} 60% {opacity: 0} 66.666667% {opacity: 1} 100% {opacity: 1}} #ecn234DCbBJ20 {animation: ecn234DCbBJ20_c_o 3000ms linear 1 normal forwards}@keyframes ecn234DCbBJ20_c_o { 0% {opacity: 0} 16.666667% {opacity: 1} 100% {opacity: 1}}
]]></style>
<defs><rect id="ecn234DCbBJ2" width="122" height="123" rx="0" ry="0"/></defs><g transform="matrix(1.668057 0 0 1.668057-852.543962-2532.944413)"><g><g transform="translate(511 1518.45)"><g><g><g clip-path="url(#ecn234DCbBJ16)"><g><circle r="59.8" transform="translate(60 60)" fill="none" stroke="#00abc8" stroke-width="0.5" stroke-miterlimit="10"/><circle r="45.9" transform="translate(60 60)" fill="none" stroke="#00abc8" stroke-width="0.5" stroke-miterlimit="10"/><line x1="60.1" y1="87.5" x2="60.1" y2="119.8" transform="matrix(.680603 0 0 0.680603 19.195759 37.9015)" fill="none" stroke="#00abc8" stroke-width="0.5" stroke-miterlimit="10"/><line x1="32.5" y1="60.2" x2="0.1" y2="60.2" transform="matrix(.630292 0 0 0.630292 0.031241 22.256422)" fill="none" stroke="#00abc8" stroke-width="0.5" stroke-miterlimit="10"/><line x1="120" y1="60.2" x2="87.6" y2="60.2" transform="matrix(.666412 0 0 0.666412 40.021934 20.081998)" fill="none" stroke="#00abc8" stroke-width="0.5" stroke-miterlimit="10"/><line x1="60.1" y1="0.2" x2="60.1" y2="29.5" transform="matrix(-.804943 0 0-.804943 108.477071 23.805904)" fill="none" stroke="#00abc8" stroke-width="0.5" stroke-miterlimit="10"/></g><clipPath id="ecn234DCbBJ16"><use width="122" height="123" xlink:href="#ecn234DCbBJ2" transform="translate(-1-1.5)"/></clipPath></g></g></g></g></g></g><rect width="104.4" height="90.91" rx="0" ry="0" transform="translate(47.883846 54.533335)" fill="none"/><path id="ecn234DCbBJ19" d="M106.5,81.6c2.41-2.43,4.81-4.86,7.22-7.3c1.68-1.69,2.55-1.68,4.25.02L142.88,99.1c.19.19.39.38.58.57.67.57.9,1.5.57,2.32-.34.85-1.19,1.39-2.1,1.31-.98.01-1.96,0-3.05,0v1.28c0,8.04,0,16.08,0,24.12c0,2.09-.65,2.75-2.73,2.75-13.56,0-27.12,0-40.68,0-2.02,0-2.7-.67-2.7-2.68c0-8.04,0-16.08,0-24.12v-1.35c-1,0-1.94,0-2.88,0-1.15.17-2.23-.63-2.39-1.79-.11-.78.22-1.56.86-2.02c1.74-1.72,3.49-3.42,5.18-5.19.37-.41.58-.93.61-1.48.05-4.2.02-8.41.03-12.62c0-1.98.72-2.68,2.7-2.69c2.11,0,4.21,0,6.32,0c2.36,0,2.99.64,3,3.04c0,.3,0,.59,0,.89l.28.15m-9.6,45.7h11.38c0-4.08,0-8.08,0-12.07c0-1.92.73-2.67,2.62-2.68c3.29-.01,6.59-.01,9.88,0c1.85,0,2.6.76,2.6,2.59.01,3.69.01,7.39,0,11.08v1.08h11.34v-23.91h-37.8l-.02,23.91ZM94.96,99.15h41.78l-20.89-21.1-20.89,21.1m17.46,28.17h6.82v-10.67h-6.84l.02,10.67ZM98.31,89.35l.21.15c1.13-1.15,2.26-2.3,3.38-3.46.14-.15.22-.34.23-.54.02-1.27.01-2.54.01-3.83h-3.84l.01,7.68Z" transform="translate(-6.986154-.406665)" opacity="0"/><g id="ecn234DCbBJ20" transform="translate(-6.986154-.406666)" opacity="0"><path d="M54.87,132.74v-67.8c0-4.72,4.74-8.85,9.38-9.77c4.66-.93,9.42,1,12.11,4.91.37.67,1.11,1.06,1.87.99c26-.02,51.99-.03,77.99-.03c1.32-.19,2.59.57,3.05,1.82v81.41c-.47,1.09-1.61,1.74-2.79,1.58-9.31-.02-18.62-.02-27.92-.01-20.28,0-40.56,0-60.84,0-4.3.26-8.42-1.8-10.79-5.4-1.38-2.33-2.09-5-2.06-7.7M78.52,65.17v2.28c0,21.84,0,43.68,0,65.52.01.34,0,.68-.04,1.01-.11.99-.94,1.74-1.93,1.76-1,.07-1.88-.64-2.03-1.63-.12-.56-.12-1.15-.23-1.71-.46-3.05-2.75-5.5-5.76-6.18-2.95-.91-6.16.02-8.17,2.35-1.94,2.44-2.21,5.81-.67,8.52c1.61,2.92,4.69,4.72,8.02,4.68h87.4v-76.6h-76.59ZM58.95,124.36c1.48-.75,3-1.43,4.56-2.02.93-.3,1.26-.61,1.26-1.61-.04-14.48-.04-28.97-.02-43.45-.01-.47.02-.95.09-1.42.15-1.08,1.16-1.84,2.24-1.68.9.13,1.6.85,1.69,1.75.04.44.06.88.05,1.32c0,14.48,0,28.97,0,43.45-.02.3-.02.61.02.91.05.21.18.39.36.51c1.74.77,3.5,1.51,5.25,2.26v-.72c0-18.76,0-37.51,0-56.27.01-.51-.02-1.02-.08-1.52-.49-4.25-4.34-7.3-8.6-6.81-1.09.13-2.14.48-3.09,1.05-2.46,1.4-3.91,4.07-3.74,6.89.01,18.89.01,37.78,0,56.67l.01.69"/><path d="M66.82,66.09c1.05-.03,1.93.8,1.96,1.85c0,.05,0,.09,0,.14c0,1.11-.9,2.01-2.01,2.02-1.11,0-2.01-.9-2.02-2.01c0-.03,0-.06,0-.09.02-1.07.9-1.93,1.97-1.91.04,0,.07,0,.1,0"/></g></svg>
