<svg id="elHwLYp27fz1" xmlns="http://www.w3.org/2000/svg" xmlns:xlink="http://www.w3.org/1999/xlink" viewBox="0 0 200 200" shape-rendering="geometricPrecision" text-rendering="geometricPrecision">
<style><![CDATA[
#elHwLYp27fz18_ts {animation: elHwLYp27fz18_ts__ts 3000ms linear 1 normal forwards}@keyframes elHwLYp27fz18_ts__ts { 0% {transform: translate(101.235004px,98.910007px) scale(1,1)} 23.333333% {transform: translate(101.235004px,98.910007px) scale(1,1)} 33.333333% {transform: translate(101.235004px,98.910007px) scale(1.357953,1.357953)} 43.333333% {transform: translate(101.235004px,98.910007px) scale(0.959396,0.959396)} 100% {transform: translate(101.235004px,98.910007px) scale(0.959396,0.959396)}} #elHwLYp27fz18 {animation: elHwLYp27fz18_c_o 3000ms linear 1 normal forwards}@keyframes elHwLYp27fz18_c_o { 0% {opacity: 0} 16.666667% {opacity: 1} 100% {opacity: 1}}
]]></style>
<defs><rect id="elHwLYp27fz2" width="122" height="123" rx="0" ry="0"/></defs><g transform="matrix(1.668056 0 0 1.668056-852.54339-2532.942835)"><g><g transform="translate(511 1518.45)"><g><g><g clip-path="url(#elHwLYp27fz16)"><g><circle r="59.8" transform="translate(60 60)" fill="none" stroke="#00abc8" stroke-width="0.5" stroke-miterlimit="10"/><circle r="45.9" transform="translate(60 60)" fill="none" stroke="#00abc8" stroke-width="0.5" stroke-miterlimit="10"/><line x1="60.1" y1="87.5" x2="60.1" y2="119.8" transform="matrix(-.82224 0 0-.82224 109.51662 191.87268)" fill="none" stroke="#00abc8" stroke-width="0.5" stroke-miterlimit="10"/><line x1="32.5" y1="60.2" x2="0.1" y2="60.2" transform="matrix(.701312 0 0 0.701312 0.072615 17.981018)" fill="none" stroke="#00abc8" stroke-width="0.5" stroke-miterlimit="10"/><line x1="120" y1="60.2" x2="87.6" y2="60.2" transform="matrix(.739659 0 0 0.739659 31.219896 15.672528)" fill="none" stroke="#00abc8" stroke-width="0.5" stroke-miterlimit="10"/><line x1="60.1" y1="0.2" x2="60.1" y2="29.5" transform="matrix(-.752159 0 0-.752159 105.304752 22.422561)" fill="none" stroke="#00abc8" stroke-width="0.5" stroke-miterlimit="10"/></g><clipPath id="elHwLYp27fz16"><use width="122" height="123" xlink:href="#elHwLYp27fz2" transform="translate(-1-1.5)"/></clipPath></g></g></g></g></g></g><g id="elHwLYp27fz18_ts" transform="translate(101.235004,98.910007) scale(1,1)"><g id="elHwLYp27fz18" transform="translate(-103.235004,-101.910007)" opacity="0"><g><circle r="41.85" transform="translate(95.33 93.43)" fill="none" stroke="#000" stroke-width="4" stroke-miterlimit="10"/><line x1="125.51" y1="126.02" x2="152.99" y2="152.24" fill="none" stroke="#000" stroke-width="4" stroke-linecap="round" stroke-miterlimit="10"/></g><g><line x1="103.39" y1="78.36" x2="103.39" y2="111.7" fill="none" stroke="#000" stroke-width="4" stroke-linecap="round" stroke-miterlimit="10"/><line x1="88.9" y1="89.62" x2="88.9" y2="111.7" fill="none" stroke="#000" stroke-width="4" stroke-linecap="round" stroke-miterlimit="10"/><line x1="74.4" y1="78.36" x2="74.4" y2="111.7" fill="none" stroke="#000" stroke-width="4" stroke-linecap="round" stroke-miterlimit="10"/><line x1="117.89" y1="97.6" x2="117.89" y2="111.7" fill="none" stroke="#000" stroke-width="4" stroke-linecap="round" stroke-miterlimit="10"/></g></g></g></svg>
