<svg id="eshoeW8kc711" xmlns="http://www.w3.org/2000/svg" xmlns:xlink="http://www.w3.org/1999/xlink" viewBox="0 0 200 200" shape-rendering="geometricPrecision" text-rendering="geometricPrecision">
<style><![CDATA[
#eshoeW8kc7118_to {animation: eshoeW8kc7118_to__to 3000ms linear 1 normal forwards}@keyframes eshoeW8kc7118_to__to { 0% {transform: translate(232.20454px,104.555633px)} 20% {transform: translate(122.650408px,104.555633px)} 100% {transform: translate(122.650408px,104.555633px)}} #eshoeW8kc7119_to {animation: eshoeW8kc7119_to__to 3000ms linear 1 normal forwards}@keyframes eshoeW8kc7119_to__to { 0% {transform: translate(-28.750731px,104.784096px)} 20% {transform: translate(76.217431px,104.784096px)} 30% {transform: translate(76.217431px,104.784096px)} 36.666667% {transform: translate(63.217431px,104.784096px)} 43.333333% {transform: translate(76.217431px,104.784096px)} 100% {transform: translate(76.217431px,104.784096px)}}
]]></style>
<defs><rect id="eshoeW8kc712" width="122" height="123" rx="0" ry="0"/></defs><g transform="matrix(1.668057 0 0 1.668057-852.543962-2532.944413)"><g><g transform="translate(511.000017 1518.45)"><g><g><g clip-path="url(#eshoeW8kc7116)"><g><circle r="59.8" transform="translate(60 60)" fill="none" stroke="#00abc8" stroke-width="0.5" stroke-miterlimit="10"/><circle r="45.9" transform="translate(60 60)" fill="none" stroke="#00abc8" stroke-width="0.5" stroke-miterlimit="10"/><line x1="60.1" y1="87.5" x2="60.1" y2="119.8" transform="matrix(.547386 0 0 0.547386 27.2021 54.107442)" fill="none" stroke="#00abc8" stroke-width="0.5" stroke-miterlimit="10"/><line x1="32.5" y1="60.2" x2="0.1" y2="60.2" transform="matrix(.694557 0 0 0.694557 0.182721 18.387669)" fill="none" stroke="#00abc8" stroke-width="0.5" stroke-miterlimit="10"/><line x1="120" y1="60.2" x2="87.6" y2="60.2" transform="matrix(.603794 0 0 0.603794 47.720682 23.851602)" fill="none" stroke="#00abc8" stroke-width="0.5" stroke-miterlimit="10"/><line x1="60.1" y1="0.2" x2="60.1" y2="29.5" transform="matrix(-.747943 0 0-.747943 105.051371 22.359954)" fill="none" stroke="#00abc8" stroke-width="0.5" stroke-miterlimit="10"/></g><clipPath id="eshoeW8kc7116"><use width="122" height="123" xlink:href="#eshoeW8kc712" transform="translate(-1-1.5)"/></clipPath></g></g></g></g></g></g><g id="eshoeW8kc7118_to" transform="translate(232.20454,104.555633)"><path d="M126.16,110.39c-1.72,0-5.44-.04-7.15.04-.25.01-.62.57-.7.92-1.47,6.54-2.92,13.09-4.35,19.64-1.71,7.78-3.42,15.56-5.13,23.35-.13,1.46-1.83,4.16-3.98,3.13-1.35-.65-2.32-1.98-2.24-3.56.02-.31.07-.62.17-.92.5-2.3,1.02-4.59,1.53-6.89c2.55-11.55,5.09-23.1,7.64-34.65.07-.3.1-.61.18-1.07h-1.21c-5.55,0-11.11,0-16.66,0-2.92,0-4.18-1.27-4.18-4.17c0-1.65-.03-3.3.02-4.96c0-.29.29-.78.5-.82c2.3-.45,3.91-2.68,3.91-2.68v7.92h55.44v-49.46h-54.4c-.57,0-1.02.46-1.02,1.04c0,2.84-.03,11.78,0,15.74-.53,4.51-4.47,5.44-4.47,5.15c0-7.56,0-15.12,0-22.68-.27-1.94,1.08-3.74,3.02-4.01.33-.05.67-.05,1.01,0c18.77,0,37.55,0,56.32,0c1.92-.27,3.7,1.06,3.98,2.98.05.32.05.64.01.95c0,17.01,0,34.03,0,51.04.27,1.92-1.06,3.69-2.98,3.96-.32.05-.65.05-.98,0-5.48.01-10.97,0-16.45,0h-1.4c.08.48.12.85.2,1.21c3.04,13.78,6.07,27.56,9.11,41.34.57,1.71.12,3.56-1.78,4.41-3.1,1.15-4.07-2.21-4.13-2.55-1.15-5.1-2.26-10.21-3.38-15.32-2.06-9.36-4.12-18.72-6.18-28.08-.07-.3-.16-.6-.28-1.01" transform="translate(-122.230221,-104.555561)"/></g><g id="eshoeW8kc7119_to" transform="translate(-28.750731,104.784096)"><g transform="translate(-75.130739,-104.369007)"><path d="M46.4,90.48c.45-1.3,1.26-2.45,2.34-3.3c3.15-2.86,6.28-5.74,9.39-8.64.75-.69,1.46-1.42,2.17-2.15c1.57-1.75,3.8-2.77,6.15-2.81c2.03-.13,4.07-.05,6.09.23c4.5.88,7.12,4.53,7.12,9.49c0,14.31,0,28.61,0,42.92c0,8.51,0,17.01,0,25.52.25,2.55-1.31,4.94-3.75,5.73-1.67.56-3.5.24-4.88-.86c1.01-2.17.95-4.11,1.1-6.96c0-9.28,0-18.56,0-27.84v-1.31h-3.58v1.19c0,10.09,0,20.18,0,30.26.21,2.71-1.65,5.15-4.32,5.67-2.87.57-5.66-1.3-6.23-4.17-.02-.1-.04-.2-.05-.29-.07-.49-.1-.98-.11-1.47-.02-13.67-.03-27.35-.04-41.02c0-.31,0-.62,0-.74c1.28.07,2.56.07,3.83-.02c4.32-.58,7.36-4.56,6.78-8.88-.17-1.29-.66-2.52-1.43-3.58-1.76-2.36-3.84-4.48-5.85-6.81l4.8-6.54-.15-.15-8.61,7.69c2.16,2.41,4.26,4.77,6.37,7.12c1.02,1,1.52,2.42,1.33,3.84-.19,1.73-1.41,3.18-3.09,3.66-1.68.58-3.55.05-4.68-1.32-2.34-2.57-4.65-5.17-6.98-7.76-.59-.6-1.15-1.23-1.68-1.89-.74-1.01-1.38-2.08-2.06-3.12v-1.69"/><path d="M79.16,61.11c.18,5.76-4.35,10.58-10.11,10.76s-10.58-4.35-10.76-10.11c-.01-.28-.01-.56.01-.84.29-5.76,5.19-10.19,10.95-9.91c5.42.27,9.74,4.66,9.91,10.1"/><path d="M101.4,84.23c-2.26,2.59-6.12,8.22-8.37,10.83-2.06,2.4-4.48,2.42-7.04.57-2.07-1.29-3.17-3.69-2.79-6.09.26-2.63.06-5.31.06-8.1l5.58,4.77c2.03-2.37,3.99-4.66,5.96-6.94c1.96-2.29,4.8-4.5,7.79-2.5c3.49,2.33-1.2,7.45-1.19,7.46"/></g></g></svg>
