<svg id="ekpC1ogG8jm1" xmlns="http://www.w3.org/2000/svg" xmlns:xlink="http://www.w3.org/1999/xlink" viewBox="0 0 200 200" shape-rendering="geometricPrecision" text-rendering="geometricPrecision">
<style><![CDATA[
#ekpC1ogG8jm18_to {animation: ekpC1ogG8jm18_to__to 3000ms linear 1 normal forwards}@keyframes ekpC1ogG8jm18_to__to { 0% {transform: translate(133.197646px,31.657339px)} 16.666667% {transform: translate(133.197646px,31.657339px)} 33.333333% {transform: translate(133.197646px,79.885804px)} 36.666667% {transform: translate(137.584212px,73.305955px)} 43.333333% {transform: translate(137.584212px,77.305955px)} 100% {transform: translate(137.584212px,77.305955px)}} #ekpC1ogG8jm18_tr {animation: ekpC1ogG8jm18_tr__tr 3000ms linear 1 normal forwards}@keyframes ekpC1ogG8jm18_tr__tr { 0% {transform: rotate(61.728691deg)} 20% {transform: rotate(61.728691deg)} 33.333333% {transform: rotate(1.495211deg)} 100% {transform: rotate(1.495211deg)}} #ekpC1ogG8jm18 {animation: ekpC1ogG8jm18_c_o 3000ms linear 1 normal forwards}@keyframes ekpC1ogG8jm18_c_o { 0% {opacity: 0} 16.666667% {opacity: 0} 26.666667% {opacity: 1} 100% {opacity: 1}} #ekpC1ogG8jm20 {animation: ekpC1ogG8jm20_c_o 3000ms linear 1 normal forwards}@keyframes ekpC1ogG8jm20_c_o { 0% {opacity: 0} 16.666667% {opacity: 1} 100% {opacity: 1}} #ekpC1ogG8jm22 {animation: ekpC1ogG8jm22_c_o 3000ms linear 1 normal forwards}@keyframes ekpC1ogG8jm22_c_o { 0% {opacity: 0} 36.666667% {opacity: 0} 43.333333% {opacity: 1} 100% {opacity: 1}}
]]></style>
<defs><rect id="ekpC1ogG8jm2" width="122" height="123" rx="0" ry="0"/></defs><g transform="matrix(1.668057 0 0 1.668057-852.543981-2532.944413)"><g><g transform="translate(511 1518.45)"><g><g><g clip-path="url(#ekpC1ogG8jm16)"><g><circle r="59.8" transform="translate(60 60)" fill="none" stroke="#00abc8" stroke-width="0.5" stroke-miterlimit="10"/><circle r="45.9" transform="translate(60 60)" fill="none" stroke="#00abc8" stroke-width="0.5" stroke-miterlimit="10"/><line x1="60.1" y1="87.5" x2="60.1" y2="119.8" transform="matrix(.641769 0 0 0.641769 21.529682 43.125644)" fill="none" stroke="#00abc8" stroke-width="0.5" stroke-miterlimit="10"/><line x1="32.5" y1="60.2" x2="0.1" y2="60.2" transform="matrix(.706391 0 0 0.706391-.010173 17.675262)" fill="none" stroke="#00abc8" stroke-width="0.5" stroke-miterlimit="10"/><line x1="120" y1="60.2" x2="87.6" y2="60.2" transform="matrix(.656275 0 0 0.656275 41.074155 20.692245)" fill="none" stroke="#00abc8" stroke-width="0.5" stroke-miterlimit="10"/><line x1="60.1" y1="0.2" x2="60.1" y2="29.5" transform="matrix(.76878 0 0 0.76878 13.896322-.163383)" fill="none" stroke="#00abc8" stroke-width="0.5" stroke-miterlimit="10"/></g><clipPath id="ekpC1ogG8jm16"><use width="122" height="123" xlink:href="#ekpC1ogG8jm2" transform="translate(-1-1.5)"/></clipPath></g></g></g></g></g></g><g id="ekpC1ogG8jm18_to" transform="translate(133.197646,31.657339)"><g id="ekpC1ogG8jm18_tr" transform="rotate(61.728691)"><g id="ekpC1ogG8jm18" transform="scale(0.945526,0.945526) translate(-133.191739,-79.885007)" opacity="0"><path d="M113.49,99.7c-.19-2.25.83-4.19,2.4-5.86c1.19-1.26.87-1.85-.67-2.37-3.19-1.09-6.32-2.37-9.52-3.42-1.86-.61-2.54-1.5-1.79-3.46c1.45-3.76,2.71-7.59,4.14-11.35.98-2.56,2.63-2.9,4.78-1.16.96.77,1.87,1.64,2.94,2.23c2.19,1.2,4.34.86,6.18-.76s2.38-3.73,1.59-6.05c-.76-2.24-2.39-3.5-4.78-3.65-1.31-.09-2.64.01-3.94-.15-1.82-.24-2.69-1.44-2.12-3.16c1.43-4.29,2.99-8.53,4.57-12.77.73-1.95,2.25-1.23,3.54-.77c7.21,2.57,14.4,5.18,21.6,7.78c4.72,1.71,9.42,3.47,14.16,5.12c1.81.63,2.19,1.62,1.55,3.38-4.39,12.05-8.74,24.11-13.07,36.18-.63,1.77-1.64,2.28-3.41,1.6-2.84-1.1-5.72-2.1-8.58-3.12-2.87-1.03-2.87-1.02-3.08,2.02-.29,4.21-2.74,7.1-6.78,8.02-3.4.77-7.14-1.05-8.92-4.3-.63-1.23-.82-2.5-.79-3.98Z" transform="translate(2.181795 2.566578)"/></g></g></g><g id="ekpC1ogG8jm20" transform="matrix(.945526 0 0 0.945526 8.973891 2.88527)" opacity="0"><path d="M84.21,156.78c-12.85,0-25.69,0-38.54,0-3.7,0-3.82-.11-3.82-3.68-.01-25.82-.01-51.63,0-77.45c0-3.47.11-3.57,3.64-3.57c12.27-.01,24.54-.02,36.81-.03c2.94,0,3.24.28,3.26,3.26.02,3.12.08,6.25-.02,9.37-.06,1.92.62,2.31,2.33,1.62c3.26-1.32,6.32-.97,8.94,1.48c2.82,2.64,3.46,6.89,1.62,10.18-1.9,3.4-5.62,4.84-9.8,3.78-3.06-.77-3.06-.77-3.07,2.38-.01,2.06.11,4.12-.03,6.16-.15,2.11.54,2.99,2.77,2.88c3.04-.15,6.09-.08,9.14-.02c2.97.06,3.81,1.31,2.87,4.16-.41,1.24-1.02,2.41-1.05,3.78-.07,2.46.82,4.39,3.12,5.39c2.21.96,4.47.78,6.2-.96c1.63-1.64,2.36-3.64,1.46-6.08-2.17-5.87-1.84-6.29,4.38-6.29c3.21,0,6.42.03,9.63,0c1.76-.02,2.52.78,2.52,2.54-.02,12.91-.03,25.82.01,38.72.01,2.3-1.4,2.41-3.11,2.4-13.07-.03-26.17-.02-39.26-.02ZM44.5,93.89c0,5.59.04,11.18-.02,16.76-.02,1.77.55,2.57,2.41,2.48c2.3-.1,4.61-.01,6.91-.02c2.95-.02,2.94-.02,2.07-2.83-1.04-3.36-.48-6.44,2.11-8.83c2.46-2.26,5.37-2.94,8.69-1.76c3.57,1.26,6.94,6.17,4.56,11.18-.77,1.63-.52,2.37,1.49,2.27c2.63-.12,5.27-.1,7.9-.01c1.74.06,2.31-.68,2.28-2.35-.07-3.29-.09-6.58.03-9.86.1-2.67,1.42-3.49,3.92-2.67.86.28,1.69.67,2.55.93c2.47.77,4.82.01,6.33-2.03c1.36-1.83,1.4-4.49.09-6.48-1.3-1.97-3.54-2.8-6.06-2.17-.95.24-1.86.65-2.79.97-2.63.89-3.97.02-4.06-2.78-.09-3.12-.11-6.25-.01-9.37.06-1.91-.63-2.61-2.57-2.6-11.11.06-22.22.06-33.33,0-1.97-.01-2.57.77-2.54,2.64.09,5.52.04,11.03.04,16.53Zm79.41,41.08c0-5.59-.05-11.18.03-16.78.02-1.8-.62-2.54-2.45-2.45-2.14.1-4.28.02-6.42.02-3.23.01-3.23.01-2.41,3.14c1.16,4.43-.79,8.59-4.77,10.16-3.99,1.57-8.36.02-10.42-3.69-1.44-2.6-1.16-5.24-.1-7.85.55-1.34.21-1.78-1.19-1.76-2.63.05-5.27.1-7.9-.02-2-.09-2.83.58-2.73,2.66.13,3.04.08,6.08.01,9.13-.07,3.13-1.37,3.98-4.26,2.93-.93-.34-1.86-.69-2.82-.91-2.69-.59-5.26.71-6.31,3.13-1.12,2.57-.34,5.5,2.05,6.94c2.25,1.35,4.57.84,6.87-.11c3.02-1.25,4.39-.38,4.47,2.86.07,3.04.1,6.09,0,9.13-.06,1.87.51,2.65,2.51,2.64c11.12-.07,22.24-.07,33.35,0c1.98.01,2.56-.76,2.53-2.63-.09-5.52-.04-11.03-.04-16.54ZM63.71,154.1c5.43,0,10.87-.1,16.29.05c2.33.06,3.07-.8,2.91-3.01-.15-1.96-.03-3.94-.03-5.91-.01-3.34-.01-3.34-3.16-2.35-5.24,1.66-10.61-2.17-10.72-7.65-.13-6.15,5.32-10.05,11.35-7.94c2.13.74,2.64.19,2.56-1.85-.09-2.46-.09-4.93,0-7.39.06-1.71-.65-2.34-2.33-2.3-3.21.07-6.42.08-9.63-.02-2.99-.09-3.86-1.42-2.8-4.16.54-1.39,1.04-2.76,1-4.28-.08-2.77-1.98-5.03-4.52-5.33-3.21-.38-5.54,1.19-6.31,4.17-.47,1.81.17,3.41.76,5.02c1.22,3.34.41,4.55-3.2,4.6-2.88.04-5.76.1-8.64-.02-1.98-.08-2.78.55-2.77,2.65.08,11.01.07,22.02,0,33.03-.01,2.02.65,2.76,2.7,2.72c5.51-.1,11.03-.03,16.54-.03Z" stroke="#000" stroke-width="0.5" stroke-miterlimit="10"/><g id="ekpC1ogG8jm22" transform="translate(.000001 0.000001)" opacity="0"><path d="M87.08,43.85c.84.08,1.19.64,1.45,1.25.96,2.26,1.91,4.53,2.81,6.81.3.75.6,1.69-.38,2.17-1.13.55-1.65-.33-2.01-1.19-.96-2.26-1.89-4.53-2.8-6.81-.42-1.05-.36-1.95.93-2.23Z"/><path d="M100.61,52.66c.78-2.35,1.58-4.85,2.44-7.33.23-.66.79-1.07,1.56-.89.8.19,1.07.85.87,1.52-.77,2.6-1.61,5.17-2.48,7.74-.23.67-.81,1.08-1.56.89-.93-.24-.97-.99-.83-1.93Z" transform="translate(.254777 0)"/><path d="M75.93,56.42c2.33,1.21,4.95,2.53,7.51,3.94.52.29.59.97.23,1.53s-.96.75-1.5.49c0,0-4.98-2.43-7.44-3.71-.52-.27-.77-.86-.52-1.49.23-.61.75-.79,1.72-.76Z"/></g></g></svg>
