<svg version="1.1" xmlns="http://www.w3.org/2000/svg" xmlns:xlink="http://www.w3.org/1999/xlink" viewBox="0 0 122 122"
    preserveAspectRatio="xMinYMin meet" width="122">
    <g>
        <circle stroke="#D5DB22" r="60" cx="61" cy="61" fill="none" stroke-width="1"></circle>
        <circle stroke="#D5DB22" r="46" cx="61" cy="61" fill="none" stroke-width="1"></circle>
        <line stroke="#D5DB22" stroke-width="1" x1="61" x2="61" y1="1" y2="121"></line>
        <line stroke="#D5DB22" stroke-width="1" x1="1" x2="121" y1="61" y2="61"></line>
    </g><svg x="20" y="21" width="82" height="80" viewBox="0 0 82 80" style="enable-background:new 0 0 82 80;"
        xml:space="preserve">
        <g>
            <rect x="8" y="9.5" width="66" height="61" fill="white"></rect>
            <g fill="#282828">
                <path stroke="#FFFFFF" stroke-width="0.5" d="M8.08,40.31c0.08-6.41,2.74-11.38,8.26-14.74c0.44-0.26,0.41-0.63,0.45-1
 c0.41-3.91,2.32-7.51,5.32-10.05c2.98-2.64,6.9-3.98,10.87-3.72c2.66,0.06,5.24,0.89,7.44,2.39c0.58,0.42,1.01,0.2,1.47-0.11
 c2.52-1.61,5.47-2.42,8.45-2.32c7.7,0.2,14.09,6.02,15,13.66c0.03,0.68,0.42,1.3,1.01,1.63c5.72,3.78,8.15,9.19,7.66,15.96
 c-0.5,6.77-5.27,12.47-11.85,14.15c-0.42,0.12-0.85,0.2-1.28,0.25c-0.52,0.06-0.99-0.32-1.05-0.84c0-0.03-0.01-0.05-0.01-0.08
 c-0.01-0.09-0.01-0.17-0.01-0.26c0-1.68-0.16-1.8,1.72-2.31c3.67-0.93,6.69-3.52,8.16-7c2.96-6.6,0.25-14.37-6.16-17.7
 c-0.88-0.37-1.43-1.26-1.36-2.22c-0.13-6.08-4.72-11.14-10.76-11.86c-3.22-0.41-6.47,0.5-9,2.53c-0.66,0.73-1.78,0.79-2.51,0.13
 c-0.05-0.04-0.09-0.08-0.13-0.13c-2.33-1.94-5.33-2.88-8.35-2.6c-5.74,0.35-10.45,4.67-11.3,10.36c-0.08,0.6-0.13,1.21-0.15,1.82
 c0,0.72-0.42,1.37-1.07,1.67c-4.04,1.86-6.84,5.66-7.42,10.07c-1.12,7.45,3.03,13.6,9.84,15.12c0.78,0.17,1.01,0.47,1.02,1.28
 c0,0.24,0,0.48,0,0.72c-0.01,1.1-0.47,1.5-1.52,1.26c-5.46-1.06-9.95-4.94-11.79-10.19C8.34,44.29,8.01,42.3,8.08,40.31">
                </path>
                <path stroke="#FFFFFF" stroke-width="0.5" d="M24.01,34.97c0.04-3.05,0.98-5.77,3.7-7.63c3.09-2.12,6.51-2.22,10.02-0.97
 c0.28,0.16,0.46,0.43,0.5,0.73c0.05,0.74,0.06,1.48,0.02,2.23c-0.01,0.76-0.36,0.93-1.05,0.53c-1.02-0.63-2.2-0.99-3.41-1.03
 c-2.47-0.16-4.72,1.31-5.42,3.54c-0.59,1.63-0.59,3.39,0.01,5.02c0.99,2.58,4.03,3.93,6.78,3c0.22-0.07,0.43-0.16,0.64-0.26
 c0.5-0.23,0.99-0.49,1.46-0.77c0.58-0.32,0.95-0.15,0.96,0.47c0.03,0.72,0.03,1.44-0.02,2.16c-0.04,0.29-0.2,0.55-0.45,0.71
 c-3.13,1.64-8.91,2-12.13-2.33C24.51,38.76,23.95,36.88,24.01,34.97"></path>
                <path
                    d="M64.48,42.82v1.53h-5.77c0.06-0.58,0.25-1.13,0.56-1.64s0.93-1.2,1.85-2.06c0.74-0.69,1.2-1.16,1.37-1.41
 c0.23-0.34,0.34-0.68,0.34-1.01c0-0.37-0.1-0.65-0.3-0.85s-0.47-0.3-0.82-0.3c-0.34,0-0.62,0.1-0.82,0.31s-0.32,0.55-0.35,1.03
 l-1.64-0.16c0.1-0.91,0.4-1.56,0.92-1.95s1.16-0.59,1.93-0.59c0.85,0,1.51,0.23,2,0.69s0.73,1.03,0.73,1.71
 c0,0.39-0.07,0.75-0.21,1.1s-0.36,0.72-0.66,1.1c-0.2,0.25-0.56,0.62-1.08,1.1s-0.85,0.79-0.99,0.95s-0.25,0.31-0.34,0.46H64.48z">
                </path>
                <path stroke="#FFFFFF" stroke-width="0.5222" d="M40.08,34.72c0-1.8,0.27-3.32,0.81-4.54c0.4-0.9,0.95-1.71,1.65-2.43c0.7-0.72,1.46-1.25,2.29-1.59
 c1.1-0.47,2.38-0.7,3.82-0.7c2.61,0,4.7,0.81,6.26,2.43c1.57,1.62,2.35,3.87,2.35,6.75c0,2.86-0.78,5.1-2.33,6.71
 c-1.55,1.61-3.63,2.42-6.23,2.42c-2.63,0-4.73-0.8-6.28-2.41C40.85,39.75,40.08,37.53,40.08,34.72z M43.76,34.59
 c0,2.01,0.46,3.52,1.39,4.56c0.93,1.03,2.1,1.55,3.53,1.55c1.43,0,2.59-0.51,3.51-1.54c0.91-1.03,1.37-2.57,1.37-4.62
 c0-2.03-0.45-3.54-1.33-4.54c-0.89-1-2.07-1.5-3.55-1.5s-2.66,0.51-3.56,1.52C44.21,31.03,43.76,32.56,43.76,34.59z">
                </path>
            </g>
            <animate attributeName="opacity"
                values="0;0;0;0;0;0;0;0;0;0;0;0;0;0;0;0;0;0;0;0;0;0;0;0;0;0;0;0.1;0.25;0.4;0.7;0.85;1;1;1;1;1;1;1;1;1;1;1;1;1;1;1;1;1;1;1;1;1;1;1;1;1;1;1;1;1;1;1;1;1;1;1;1;1;1;1;1;1;1;1;1;1;1;1;1;1;1;1;1;1;1;1;1;1;1;1;1;1;1;1;1;1;1;1;1;1;1;1;1;1;1;1;1;1;1;1;1;1;1;1;1;1;1;1;1;1;1;1;1;1;1;1;1;1;1;1;1;1;1;1;1;1;1;1;1;1;1;1;1;1;1;1;1;1;1;1;1;1;1;1;1;1;1;1;1;1;1;1;1;1;1;1;1;1;1;1;1;1;1;1;1;1;1;1;1;1;1;1;1;1;1;1;1;1;1;1;1;1;1;1;1;1;1;1;1;1;1;1;1;1;1;1;1;1;1;1;1;1;1;1;1;1;1;1;1;1;1;1;1;1;1;1;1;1;1;1;1;1;1;1;1;1;1;1;1;1;1;1;1;1;1;1;1;1;1;1;1;1;1;1;1;1;1;1;1;1;1;1;1;1;1"
                dur="18s" repeatCount="indefinite"></animate>
        </g>
        <g>
            <path class="st1"
                d="M31.41,54.85c0,1.33,0,2.67,0,4c0,0.9,0.23,1.1,1.1,1.18c0.35,0.02,0.67,0.18,0.89,0.45
 c0.07,0.34-0.02,0.7-0.24,0.97c-1.27,1.58-2.59,3.13-3.89,4.68c-0.53,0.63-0.96,0.64-1.5,0c-1.32-1.57-2.65-3.14-3.94-4.73
 c-0.2-0.26-0.27-0.6-0.19-0.92c0.2-0.26,0.49-0.42,0.82-0.45c0.94-0.09,1.15-0.26,1.15-1.19c0-2.67,0-5.33,0-7.99
 c0-0.91,0.22-1.14,1.1-1.15c1.22-0.01,2.45-0.01,3.67,0c0.78,0.01,1.02,0.25,1.02,1.02C31.4,52.11,31.4,53.48,31.41,54.85">
                <animateTransform attributeName="transform" attributeType="XML" type="translate"
                    values="0 -3;0 -3;0 -3;0 -3;0 -3;0 -3;0 -3;0 -3;0 -3;0 -3;0 -3;0 -3;0 -3;0 -3;0 -3;0 -3;0 -3;0 -3;0 -3;0 -3;0 -3;0 -3;0 -3;0 -3;0 -3;0 -3;0 -3;0 -3;0 -3;0 -3;0 -3;0 -3;0 -3;0 -3;0 -3;0 -3;0 -3;0 -3;0 -3;0 1;0 4;0 0;0 0;0 0;0 0;0 0;0 0;0 0;0 0;0 0;0 0;0 0;0 0;0 0;0 0;0 0;0 0;0 0;0 0;0 0;0 0;0 0;0 0;0 0;0 0;0 0;0 0;0 0;0 0;0 0;0 0;0 0;0 0;0 0;0 0;0 0;0 0;0 0;0 0;0 0;0 0;0 0;0 0;0 0;0 0;0 0;0 0;0 0;0 0;0 0;0 0;0 0;0 0;0 0;0 0;0 0;0 0;0 0;0 0;0 0;0 0;0 0;0 0;0 0;0 0;0 0;0 0;0 0;0 0;0 0;0 0;0 0;0 0;0 0;0 0;0 0;0 0;0 0;0 0;0 0;0 0;0 0;0 0;0 0;0 0;0 0;0 0;0 0;0 0;0 0;0 0;0 0;0 0;0 0;0 0;0 0;0 0;0 0;0 0;0 0;0 0;0 0;0 0;0 0;0 0;0 0;0 0;0 0;0 0;0 0;0 0;0 0;0 0;0 0;0 0;0 0;0 0;0 0;0 0;0 0;0 0;0 0;0 0;0 0;0 0;0 0;0 0;0 0;0 0;0 0;0 0;0 0;0 0;0 0;0 0;0 0;0 0;0 0;0 0;0 0;0 0;0 0;0 0;0 0;0 0;0 0;0 0;0 0;0 0;0 0;0 0;0 0;0 0;0 0;0 0;0 0;0 0;0 0;0 0;0 0;0 0;0 0;0 0;0 0;0 0;0 0;0 0;0 0;0 0;0 0;0 0;0 0;0 0;0 0;0 0;0 0;0 0;0 0;0 0;0 0;0 0;0 0;0 0;0 0;0 0;0 0;0 0;0 0;0 0;0 0;0 0;0 0;0 0;0 0;0 0;0 0;0 0;0 0;0 0;0 0;0 0;0 0;0 0;0 0;0 0;0 0;0 0;0 0;0 0;0 0;0 0;0 0;0 0;0 0;0 0;0 0;0 0;0 0;0 0;0 0;0 0;0 0;0 0;0 0;0 0;0 0"
                    dur="18s" repeatCount="indefinite"></animateTransform>
            </path>
            <path class="st1" d="M43.98,60.36c0,1.35,0,2.71,0,4.06c0,0.78,0.24,1.03,1.01,1.05c0.41,0.01,0.88,0.02,0.95,0.48
 c0.05,0.37-0.05,0.74-0.27,1.04c-1.28,1.6-2.61,3.15-3.92,4.72c-0.21,0.35-0.66,0.47-1.01,0.26c-0.1-0.06-0.19-0.14-0.25-0.24
 c-0.53-0.58-1.03-1.18-1.53-1.78c-0.84-1-1.71-1.98-2.5-3.02c-0.2-0.31-0.27-0.68-0.19-1.04c0.06-0.19,0.53-0.35,0.83-0.37
 c0.78-0.04,1.08-0.3,1.08-1.14c0-2.68,0-5.37,0-8.05c0-0.95,0.21-1.17,1.14-1.17c1.22,0,2.44-0.01,3.67,0
 c0.73,0.01,0.98,0.26,0.99,0.99C43.99,57.57,43.98,58.96,43.98,60.36">
                <animateTransform attributeName="transform" attributeType="XML" type="translate"
                    values="0 -3;0 -3;0 -3;0 -3;0 -3;0 -3;0 -3;0 -3;0 -3;0 -3;0 -3;0 -3;0 -3;0 -3;0 -3;0 -3;0 -3;0 -3;0 -3;0 -3;0 -3;0 -3;0 -3;0 -3;0 -3;0 -3;0 -3;0 -3;0 -3;0 -3;0 -3;0 -3;0 -3;0 -3;0 -3;0 -3;0 -3;0 -3;0 -3;0 -3;0 -3;0 -3;0 -3;0 1;0 4;0 0;0 0;0 0;0 0;0 0;0 0;0 0;0 0;0 0;0 0;0 0;0 0;0 0;0 0;0 0;0 0;0 0;0 0;0 0;0 0;0 0;0 0;0 0;0 0;0 0;0 0;0 0;0 0;0 0;0 0;0 0;0 0;0 0;0 0;0 0;0 0;0 0;0 0;0 0;0 0;0 0;0 0;0 0;0 0;0 0;0 0;0 0;0 0;0 0;0 0;0 0;0 0;0 0;0 0;0 0;0 0;0 0;0 0;0 0;0 0;0 0;0 0;0 0;0 0;0 0;0 0;0 0;0 0;0 0;0 0;0 0;0 0;0 0;0 0;0 0;0 0;0 0;0 0;0 0;0 0;0 0;0 0;0 0;0 0;0 0;0 0;0 0;0 0;0 0;0 0;0 0;0 0;0 0;0 0;0 0;0 0;0 0;0 0;0 0;0 0;0 0;0 0;0 0;0 0;0 0;0 0;0 0;0 0;0 0;0 0;0 0;0 0;0 0;0 0;0 0;0 0;0 0;0 0;0 0;0 0;0 0;0 0;0 0;0 0;0 0;0 0;0 0;0 0;0 0;0 0;0 0;0 0;0 0;0 0;0 0;0 0;0 0;0 0;0 0;0 0;0 0;0 0;0 0;0 0;0 0;0 0;0 0;0 0;0 0;0 0;0 0;0 0;0 0;0 0;0 0;0 0;0 0;0 0;0 0;0 0;0 0;0 0;0 0;0 0;0 0;0 0;0 0;0 0;0 0;0 0;0 0;0 0;0 0;0 0;0 0;0 0;0 0;0 0;0 0;0 0;0 0;0 0;0 0;0 0;0 0;0 0;0 0;0 0;0 0;0 0;0 0;0 0;0 0;0 0;0 0;0 0;0 0;0 0;0 0;0 0;0 0;0 0;0 0;0 0;0 0;0 0;0 0;0 0;0 0;0 0;0 0;0 0;0 0;0 0;0 0;0 0;0 0;0 0;0 0;0 0;0 0"
                    dur="18s" repeatCount="indefinite"></animateTransform>
            </path>
            <path class="st1" d="M56.56,54.82c0,1.35,0,2.71,0,4.06c0,0.86,0.24,1.06,1.06,1.15c0.32,0.03,0.81,0.2,0.89,0.43
 c0.08,0.36-0.01,0.74-0.24,1.03c-1.24,1.55-2.53,3.07-3.81,4.59c-0.62,0.74-1.01,0.73-1.63-0.01c-1.28-1.52-2.57-3.04-3.81-4.58
 c-0.22-0.28-0.32-0.63-0.28-0.99c0.08-0.46,0.53-0.48,0.95-0.49c0.82-0.01,1.06-0.27,1.06-1.13c0-2.69,0-5.37,0-8.06
 c0-0.89,0.22-1.11,1.12-1.11c1.2,0,2.4-0.01,3.6,0c0.82,0.01,1.06,0.25,1.06,1.05C56.56,52.11,56.55,53.46,56.56,54.82">
                <animateTransform attributeName="transform" attributeType="XML" type="translate"
                    values="0 -3;0 -3;0 -3;0 -3;0 -3;0 -3;0 -3;0 -3;0 -3;0 -3;0 -3;0 -3;0 -3;0 -3;0 -3;0 -3;0 -3;0 -3;0 -3;0 -3;0 -3;0 -3;0 -3;0 -3;0 -3;0 -3;0 -3;0 -3;0 -3;0 -3;0 -3;0 -3;0 -3;0 -3;0 -3;0 -3;0 -3;0 -3;0 -3;0 -3;0 -3;0 -3;0 -3;0 -3;0 -3;0 -3;0 -3;0 1;0 4;0 0;0 0;0 0;0 0;0 0;0 0;0 0;0 0;0 0;0 0;0 0;0 0;0 0;0 0;0 0;0 0;0 0;0 0;0 0;0 0;0 0;0 0;0 0;0 0;0 0;0 0;0 0;0 0;0 0;0 0;0 0;0 0;0 0;0 0;0 0;0 0;0 0;0 0;0 0;0 0;0 0;0 0;0 0;0 0;0 0;0 0;0 0;0 0;0 0;0 0;0 0;0 0;0 0;0 0;0 0;0 0;0 0;0 0;0 0;0 0;0 0;0 0;0 0;0 0;0 0;0 0;0 0;0 0;0 0;0 0;0 0;0 0;0 0;0 0;0 0;0 0;0 0;0 0;0 0;0 0;0 0;0 0;0 0;0 0;0 0;0 0;0 0;0 0;0 0;0 0;0 0;0 0;0 0;0 0;0 0;0 0;0 0;0 0;0 0;0 0;0 0;0 0;0 0;0 0;0 0;0 0;0 0;0 0;0 0;0 0;0 0;0 0;0 0;0 0;0 0;0 0;0 0;0 0;0 0;0 0;0 0;0 0;0 0;0 0;0 0;0 0;0 0;0 0;0 0;0 0;0 0;0 0;0 0;0 0;0 0;0 0;0 0;0 0;0 0;0 0;0 0;0 0;0 0;0 0;0 0;0 0;0 0;0 0;0 0;0 0;0 0;0 0;0 0;0 0;0 0;0 0;0 0;0 0;0 0;0 0;0 0;0 0;0 0;0 0;0 0;0 0;0 0;0 0;0 0;0 0;0 0;0 0;0 0;0 0;0 0;0 0;0 0;0 0;0 0;0 0;0 0;0 0;0 0;0 0;0 0;0 0;0 0;0 0;0 0;0 0;0 0;0 0;0 0;0 0;0 0;0 0;0 0;0 0;0 0;0 0;0 0;0 0;0 0;0 0;0 0;0 0;0 0;0 0;0 0;0 0;0 0;0 0;0 0;0 0;0 0;0 0;0 0"
                    dur="18s" repeatCount="indefinite"></animateTransform>
            </path>
            <animate attributeName="opacity"
                values="0;0;0;0;0;0;0;0;0;0;0;0;0;0;0;0;0;0;0;0;0;0;0;0;0;0;0;0;0;0;0;0;0;0;0.25;0.4;0.85;1;1;1;1;1;1;1;1;1;1;1;1;1;1;1;1;1;1;1;1;1;1;1;1;1;1;1;1;1;1;1;1;1;1;1;1;1;1;1;1;1;1;1;1;1;1;1;1;1;1;1;1;1;1;1;1;1;1;1;1;1;1;1;1;1;1;1;1;1;1;1;1;1;1;1;1;1;1;1;1;1;1;1;1;1;1;1;1;1;1;1;1;1;1;1;1;1;1;1;1;1;1;1;1;1;1;1;1;1;1;1;1;1;1;1;1;1;1;1;1;1;1;1;1;1;1;1;1;1;1;1;1;1;1;1;1;1;1;1;1;1;1;1;1;1;1;1;1;1;1;1;1;1;1;1;1;1;1;1;1;1;1;1;1;1;1;1;1;1;1;1;1;1;1;1;1;1;1;1;1;1;1;1;1;1;1;1;1;1;1;1;1;1;1;1;1;1;1;1;1;1;1;1;1;1;1;1;1;1;1;1;1;1;1;1;1;1;1;1;1;1;1;1;1;1;1;1;1;1"
                dur="18s" repeatCount="indefinite"></animate>
        </g>
    </svg>
</svg>