<svg id="eWDamtVg36o1" xmlns="http://www.w3.org/2000/svg" xmlns:xlink="http://www.w3.org/1999/xlink" viewBox="0 0 200 200" shape-rendering="geometricPrecision" text-rendering="geometricPrecision">
<style><![CDATA[
#eWDamtVg36o18 {animation: eWDamtVg36o18_c_o 3000ms linear 1 normal forwards}@keyframes eWDamtVg36o18_c_o { 0% {opacity: 0} 16.666667% {opacity: 0} 30% {opacity: 1} 100% {opacity: 1}} #eWDamtVg36o19_to {animation: eWDamtVg36o19_to__to 3000ms linear 1 normal forwards}@keyframes eWDamtVg36o19_to__to { 0% {transform: translate(138.469162px,127.030308px)} 43.333333% {transform: translate(138.469162px,127.030308px)} 48% {transform: translate(153.469162px,127.030308px)} 52.333333% {transform: translate(136.469162px,127.030308px)} 57.333333% {transform: translate(141.469162px,127.030308px)} 100% {transform: translate(141.469162px,127.030308px)}} #eWDamtVg36o19 {animation: eWDamtVg36o19_c_o 3000ms linear 1 normal forwards}@keyframes eWDamtVg36o19_c_o { 0% {opacity: 0} 30% {opacity: 0} 43.333333% {opacity: 1} 100% {opacity: 1}} #eWDamtVg36o22 {animation: eWDamtVg36o22_c_o 3000ms linear 1 normal forwards}@keyframes eWDamtVg36o22_c_o { 0% {opacity: 0} 16.666667% {opacity: 1} 100% {opacity: 1}}
]]></style>
<defs><rect id="eWDamtVg36o2" width="122" height="123" rx="0" ry="0"/></defs><g transform="matrix(1.668057 0 0 1.668057-852.543962-2532.944413)"><g><g transform="translate(511 1518.45)"><g><g><g clip-path="url(#eWDamtVg36o16)"><g><circle r="59.8" transform="translate(60 60)" fill="none" stroke="#00abc8" stroke-width="0.5" stroke-miterlimit="10"/><circle r="45.9" transform="translate(60 60)" fill="none" stroke="#00abc8" stroke-width="0.5" stroke-miterlimit="10"/><line x1="60.1" y1="87.5" x2="60.1" y2="119.8" transform="matrix(-.62379 0 0-.62379 97.589776 174.300837)" fill="none" stroke="#00abc8" stroke-width="0.5" stroke-miterlimit="10"/><line x1="32.5" y1="60.2" x2="0.1" y2="60.2" transform="matrix(.587367 0 0 0.587367 0.131418 24.840507)" fill="none" stroke="#00abc8" stroke-width="0.5" stroke-miterlimit="10"/><line x1="120" y1="60.2" x2="87.6" y2="60.2" transform="matrix(.5751 0 0 0.5751 51.29862 25.57898)" fill="none" stroke="#00abc8" stroke-width="0.5" stroke-miterlimit="10"/><line x1="60.1" y1="0.2" x2="60.1" y2="29.5" transform="matrix(.724713 0 0 0.724713 16.544748-.108488)" fill="none" stroke="#00abc8" stroke-width="0.5" stroke-miterlimit="10"/></g><clipPath id="eWDamtVg36o16"><use width="122" height="123" xlink:href="#eWDamtVg36o2" transform="translate(-1-1.5)"/></clipPath></g></g></g></g></g></g><path id="eWDamtVg36o18" d="M99.11,157.94c-9.56,0-19.13,0-28.69,0-11.73.18-22.09-7.61-25.19-18.93-3.28-11.35,1-23.53,10.66-30.33c5.05-3.42,10.64-4.25,16.49-4.27c3.82-.01,7.64.13,11.46.12c6.33-.02,12.67-.22,19-.12c4.49-.25,8.12-3.75,8.54-8.23.3-4.28-2.52-8.16-6.69-9.2-1.02-.22-2.06-.32-3.11-.29-8.66-.02-17.31,0-25.97-.02-.69.04-1.39-.03-2.07-.18-.86-.22-1.4-1.07-1.23-1.94.05-.8.65-1.46,1.44-1.58.34-.06.69-.08,1.04-.06c9.36,0,18.71-.07,28.06.03c6.35.13,11.6,4.98,12.23,11.3.7,6.53-3.69,12.52-10.13,13.82-3.46.41-6.94.53-10.42.34-4.09.13-8.19.06-12.29.03-4.24-.03-8.49-.3-12.73-.15-6.53.07-12.66,3.14-16.62,8.32-10.29,13.03-3.92,33.01,11.8,36.95c2.04.46,4.14.67,6.23.62c19.41-.01,38.81-.01,58.22,0c.7-.04,1.39-.02,2.09.06c1,.2,1.65,1.18,1.44,2.18-.14.69-.66,1.24-1.34,1.42-.62.11-1.25.14-1.87.1-10.1.01-20.22.01-30.35.01" opacity="0"/><g id="eWDamtVg36o19_to" transform="translate(138.469162,127.030308)"><g id="eWDamtVg36o19" transform="translate(-143.469162,-127.030308)" opacity="0"><path d="M167.12,119.39c-.06,3.02-.77,5.98-2.08,8.7-4.7,10.65-11.76,19.74-19.12,28.61-.89,1.35-2.7,1.72-4.05.83-.32-.21-.6-.48-.81-.8-7.34-8.8-14.27-17.88-19.09-28.39-3.34-6.88-2.76-15.01,1.52-21.35c6.44-10.07,19.37-13.78,30.17-8.64c8.21,3.77,13.47,11.98,13.46,21.04m-3.8-.05c-.21-10.96-9.26-19.68-20.22-19.47-2.98.06-5.91.78-8.57,2.13-9.34,4.45-13.39,15.56-9.1,24.98c4.71,9.27,10.5,17.95,17.24,25.86.58.72.96.8,1.57.03c6.48-8.05,12.8-16.2,17.12-25.69c1.26-2.42,1.93-5.11,1.96-7.84"/><path d="M144.05,107.2c6.92.27,12.31,6.11,12.04,13.03c0,.03,0,.06,0,.09-.22,6.96-6.05,12.43-13.01,12.2-6.96-.22-12.43-6.05-12.2-13.01c0-.11.01-.23.02-.34.24-6.86,6-12.22,12.86-11.98.09,0,.19,0,.29.01m-9.41,12.44c-.09,4.88,3.8,8.9,8.68,8.99s8.9-3.8,8.99-8.68c.09-4.87-3.78-8.89-8.65-8.99-4.79-.19-8.82,3.53-9.01,8.32c0,.12-.01.24-.01.36"/></g></g><g id="eWDamtVg36o22" opacity="0"><path d="M78.76,62.06c-.04,2.73-.74,5.42-2.04,7.82-3.56,6.97-7.99,13.45-13.19,19.3-.79,1.24-2.43,1.61-3.68.83-.32-.2-.6-.48-.81-.8-5.37-6.15-9.96-12.95-13.66-20.23-5.39-11.2,3.63-24.5,16.49-24.1c9.31.33,16.72,7.88,16.89,17.18m-3.78.05c-.13-7.56-6.37-13.59-13.93-13.46-3.67.06-7.17,1.6-9.7,4.26-3.86,3.79-4.86,9.63-2.48,14.48c3.14,6.4,7.07,12.37,11.7,17.78.55.7.9.62,1.41-.03c4.83-5.61,8.88-11.84,12.03-18.54.68-1.39,1.01-2.93.97-4.49"/><path d="M51.71,62.36c.05-5.29,4.38-9.54,9.67-9.49s9.54,4.38,9.49,9.67c-.05,5.28-4.36,9.52-9.64,9.49-5.28-.02-9.54-4.31-9.52-9.58c0-.03,0-.06,0-.09m9.64,5.89c3.22-.07,5.78-2.73,5.71-5.96-.07-3.22-2.73-5.78-5.96-5.71-3.22.14-5.72,2.86-5.58,6.08.14,3.12,2.71,5.59,5.83,5.59"/></g></svg>
