<svg version="1.1" xmlns="http://www.w3.org/2000/svg" xmlns:xlink="http://www.w3.org/1999/xlink" viewBox="0 0 122 122"
    preserveAspectRatio="xMinYMin meet" width="122">
    <g>
        <circle stroke="#D5DB22" r="60" cx="61" cy="61" fill="none" stroke-width="1"></circle>
        <circle stroke="#D5DB22" r="46" cx="61" cy="61" fill="none" stroke-width="1"></circle>
        <line stroke="#D5DB22" stroke-width="1" x1="61" x2="61" y1="1" y2="121"></line>
        <line stroke="#D5DB22" stroke-width="1" x1="1" x2="121" y1="61" y2="61"></line>
    </g><svg x="13.5" y="13.5" viewBox="0 0 82 80" style="enable-background:new 0 0 82 80;" xml:space="preserve"
        width="95" height="95">
        <g fill="#282828">
            <rect width="55" height="36" x="14" y="12" fill="white"></rect>
            <rect x="36" width="10" y="40" height="30" fill="white"></rect>
            <path
                d="M41.95,72.04c-4.01,0-8.03,0-12.04,0c-1.12,0-1.39-0.31-1.48-1.45c-0.17-2.2,0.73-3.78,2.66-4.81
 c0.69-0.37,1.37-0.75,2.06-1.12c5.95-3.23,4.21-9.75,0.84-12.29c-2.06-1.56-4.46-2.4-6.83-3.31c-2.79-1.07-5.69-1.9-8.24-3.55
 c-4.63-2.99-6.53-9.45-4.2-14.44c1.37-2.92,3.7-4.48,6.92-4.63c0.7-0.03,0.98-0.23,1.06-0.93c0.17-1.52,0.42-3.04,0.85-4.51
 c0.21-0.71,0.62-1.08,1.41-1.08c3.49,0.02,6.98-0.01,10.47,0.02c1.3,0.01,1.79,0.74,1.23,1.73c-0.33,0.58-0.91,0.56-1.46,0.56
 c-2.81,0-5.61,0.03-8.42-0.02c-0.86-0.01-1.3,0.18-1.42,1.13c-0.17,1.29-0.47,2.56-0.54,3.87c-0.07,1.38-0.32,1.59-1.75,1.54
 c-1.01-0.04-2.02-0.08-3,0.28c-2.5,0.92-3.93,3.2-4.03,6.45c-0.12,4.34,2.28,7.71,6.61,9.4c3.52,1.37,7.12,2.53,10.51,4.22
 c4.45,2.23,6.88,6.71,5.99,11.35c-0.51,2.68-2.14,4.56-4.42,5.93c-0.75,0.45-1.54,0.86-2.31,1.28c-0.46,0.25-0.91,0.52-1.23,0.94
 c-0.22,0.28-0.53,0.58-0.35,0.95c0.17,0.36,0.58,0.2,0.89,0.2c6.82,0,13.64,0,20.46-0.01c0.31,0,0.74,0.17,0.9-0.15
 c0.2-0.4-0.16-0.73-0.42-1.02c-0.78-0.88-1.88-1.28-2.87-1.83c-2.34-1.29-4.26-3.02-4.9-5.69c-0.91-3.73,0.14-7.69,3.44-10.37
 c2.46-2,5.39-3.01,8.28-4.09c1.89-0.71,3.81-1.34,5.65-2.17c4.63-2.09,6.83-7.55,4.91-12.15c-0.99-2.37-3.01-3.66-5.62-3.57
 c-2.33,0.08-2.33,0.08-2.55-2.25c-0.11-1.14-0.28-2.26-0.52-3.38c-0.14-0.66-0.41-0.9-1.11-0.89c-2.9,0.05-5.81,0.03-8.71,0.03
 c-0.46,0-0.94,0.05-1.24-0.39c-0.26-0.39-0.37-0.85-0.21-1.3c0.17-0.47,0.61-0.58,1.04-0.58c3.65-0.02,7.31-0.02,10.96-0.04
 c0.66,0,0.9,0.43,1.07,0.95c0.5,1.53,0.79,3.1,0.9,4.7c0.04,0.58,0.19,0.84,0.77,0.85c5.6,0.11,8.42,4.94,8.19,9.73
 c-0.25,5.06-2.76,8.62-7.39,10.59c-3.02,1.29-6.14,2.36-9.19,3.58c-1.61,0.64-3.11,1.49-4.38,2.72c-3.02,2.93-3.94,8.97,1.99,11.86
 c0.7,0.34,1.37,0.75,2.04,1.15c1.95,1.15,2.42,2.95,2.18,5.05c-0.09,0.8-0.62,0.96-1.33,0.96C50.04,72.03,46,72.04,41.95,72.04z">
            </path>
            <path
                d="M66.26,35.7c-0.28,3.78-2.26,6.29-5.56,7.83c-1.18,0.55-2.4,1.01-3.66,1.35c-0.62,0.17-1.23,0.26-1.69-0.34
 c-0.47-0.6-0.13-1.08,0.18-1.6c1.84-3.06,2.89-6.4,3.4-9.92c0.3-2.03,1.36-2.82,3.42-2.57c1.9,0.23,3.5,1.92,3.82,4.04
 C66.22,34.91,66.23,35.34,66.26,35.7z M63.9,35.6c0.05-0.86-0.25-1.71-0.9-2.41c-0.64-0.69-1.62-0.6-1.75,0.15
 c-0.47,2.67-1.05,5.31-2.22,7.77c-0.07,0.15-0.14,0.31-0.01,0.46c0.13,0.15,0.3,0.09,0.45,0.03C61.59,40.62,63.88,38.79,63.9,35.6z">
            </path>
            <path d="M17.68,36.2c0-3.21,1.44-5.26,3.62-5.71c1-0.21,1.94,0.04,2.83,0.49c0.77,0.38,0.81,1.14,0.88,1.85
 c0.28,2.89,1.11,5.61,2.37,8.22c0.33,0.67,0.69,1.33,1.08,1.97c0.31,0.52,0.45,1,0.06,1.54c-0.37,0.51-0.87,0.54-1.4,0.4
 c-2.18-0.59-4.29-1.36-6.1-2.76C18.89,40.53,17.74,38.35,17.68,36.2z M19.97,35.52c0.01,2.57,2.14,5.39,4.47,6.09
 c0.15,0.04,0.35,0.09,0.46,0.02c0.23-0.14,0.05-0.35-0.02-0.51c-1.07-2.39-1.73-4.9-2.12-7.49c-0.06-0.41-0.19-0.78-0.64-0.88
 c-0.45-0.1-0.84,0.06-1.15,0.38C20.26,33.84,20.02,34.74,19.97,35.52z"></path>
            <path d="M50.15,11.57c0.01,0.39-0.18,0.7-0.43,0.96c-0.74,0.78-1.5,1.54-2.26,2.31c-0.49,0.49-1.05,0.56-1.57,0.11
 c-0.55-0.48-0.57-1.09-0.09-1.65c0.8-0.95,1.65-1.85,2.66-2.58C49.16,10.21,50.12,10.73,50.15,11.57z"></path>
            <path
                d="M36.93,15.84c-0.18-0.01-0.4-0.06-0.58-0.23c-0.68-0.7-1.38-1.38-2.05-2.09c-0.43-0.46-0.52-0.97-0.03-1.47
 c0.48-0.49,1.02-0.57,1.56-0.12c0.78,0.64,1.51,1.34,2.13,2.14c0.24,0.31,0.46,0.64,0.2,1.06C37.89,15.59,37.52,15.85,36.93,15.84z">
            </path>
            <path d="M44.76,11.46c-0.18,0.74-0.34,1.57-0.73,2.34c-0.26,0.52-0.7,0.44-1.14,0.41c-0.48-0.04-0.63-0.4-0.65-0.8
 c-0.05-1.03,0.32-1.95,0.81-2.83c0.2-0.36,0.61-0.46,1.01-0.31C44.55,10.46,44.78,10.85,44.76,11.46z"></path>
            <path
                d="M48.85,18.73c-0.69-0.02-1.12,0.03-1.53-0.13c-0.53-0.22-0.89-0.59-0.84-1.18c0.06-0.58,0.42-0.97,1.02-1
 c0.78-0.04,1.56-0.02,2.34,0.01c0.65,0.03,1,0.41,1.06,1.06c0.06,0.65-0.31,0.98-0.88,1.09C49.56,18.67,49.07,18.7,48.85,18.73z">
            </path>
            <path
                d="M35.53,16.35c0.08,0.01,0.12,0.02,0.15,0.02c0.8,0.05,1.66,0.06,1.68,1.16c0.02,0.84-0.54,1.19-1.76,1.17
 c-0.45-0.01-0.9-0.09-1.35-0.15c-0.58-0.07-0.86-0.45-0.89-0.99c-0.03-0.59,0.27-1,0.87-1.12C34.67,16.35,35.12,16.27,35.53,16.35z">
            </path>
            <path d="M40.93,12.62c0,0.55-0.25,0.87-0.64,1.09c-0.42,0.24-0.8,0.15-1.17-0.14c-0.91-0.72-1.3-2.1-0.76-2.67
 c0.46-0.49,0.92-0.66,1.48-0.1C40.39,11.34,40.82,11.92,40.93,12.62z"></path>
            <animateTransform attributeName="transform" attributeType="XML" type="translate"
                values="0 100;0 100;0 100;0 100;0 100;0 100;0 100;0 100;0 100;0 100;0 100;0 100;0 100;0 100;0 100;0 100;0 100;0 100;0 100;0 100;0 100;0 100;0 100;0 100;0 100;0 100;0 100;0 100;0 100;0 100;0 100;0 100;0 100;0 100;0 100;0 100;0 100;0 100;0 100;0 100;0 100;0 100;0 100;0 100;0 100;0 100;0 100;0 100;0 100;0 100;0 100;0 100;0 100;0 100;0 100;0 100;0 100;0 100;0 100;0 100;0 100;0 100;0 100;0 100;0 25;0 15;0 7.5;0 0;0 0;0 0;0 0;0 0;0 0;0 0;0 0;0 0;0 0;0 0;0 0;0 0;0 0;0 0;0 0;0 0;0 0;0 0;0 0;0 0;0 0;0 0;0 0;0 0;0 0;0 0;0 0;0 0;0 0;0 0;0 0;0 0;0 0;0 0;0 0;0 0;0 0;0 0;0 0;0 0;0 0;0 0;0 0;0 0;0 0;0 0;0 0;0 0;0 0;0 0;0 0;0 0;0 0;0 0;0 0;0 0;0 0;0 0;0 0;0 0;0 0;0 0;0 0;0 0;0 0;0 0;0 0;0 0;0 0;0 0;0 0;0 0;0 0;0 0;0 0;0 0;0 0;0 0;0 0;0 0;0 0;0 0;0 0;0 0;0 0;0 0;0 0;0 0;0 0;0 0;0 0;0 0;0 0;0 0;0 0;0 0;0 0;0 0;0 0;0 0;0 0;0 0;0 0;0 0;0 0;0 0;0 0;0 0;0 0;0 0;0 0;0 0;0 0;0 0;0 0;0 0;0 0;0 0;0 0;0 0;0 0;0 0;0 0;0 0;0 0;0 0;0 0;0 0;0 0;0 0;0 0;0 0;0 0;0 0;0 0;0 0;0 0;0 0;0 0;0 0;0 0;0 0;0 0;0 0;0 0;0 0;0 0;0 0;0 0;0 0;0 0;0 0;0 0;0 0;0 0;0 0;0 0;0 0;0 0;0 0;0 0;0 0;0 0;0 0;0 0;0 0;0 0;0 0;0 0;0 0;0 0;0 0;0 0;0 0;0 0;0 0;0 0;0 0;0 0;0 0;0 0;0 0;0 0;0 0;0 0;0 0;0 0;0 0;0 0;0 0;0 0;0 0;0 0;0 0;0 0;0 0;0 0;0 0"
                dur="18s" repeatCount="indefinite"></animateTransform>
        </g>
        <g fill="#282828">
            <path d="M33.32,39.68c0.28-1.59,0.55-3.43,0.94-5.25c0.21-0.99,0.1-1.72-0.71-2.43c-1.3-1.14-2.46-2.42-3.73-3.6
 c-0.67-0.62-0.97-1.32-0.74-2.18c0.23-0.88,1.03-1.04,1.77-1.15c1.8-0.29,3.6-0.57,5.42-0.75c0.75-0.08,1.18-0.38,1.49-1.03
 c0.69-1.47,1.41-2.93,2.13-4.4c0.2-0.41,0.41-0.82,0.66-1.2c0.77-1.12,1.97-1.14,2.71,0c1.04,1.58,1.83,3.31,2.6,5.03
 c0.47,1.03,1.07,1.59,2.23,1.69c1.68,0.14,3.35,0.44,5.03,0.65c0.85,0.11,1.48,0.5,1.78,1.31c0.28,0.77-0.19,1.34-0.66,1.82
 c-1.3,1.32-2.63,2.63-4.01,3.88c-0.67,0.61-0.8,1.24-0.63,2.09c0.36,1.79,0.62,3.59,0.95,5.39c0.14,0.77-0.01,1.43-0.62,1.94
 c-0.65,0.53-1.32,0.39-2,0.02c-1.72-0.92-3.47-1.8-5.18-2.74c-0.58-0.32-1.06-0.33-1.64-0.01c-1.74,0.96-3.5,1.88-5.26,2.79
 C34.48,42.26,33.28,41.47,33.32,39.68z M47.9,38.95c0.18-0.21,0.15-0.41,0.12-0.6c-0.27-1.67-0.51-3.35-0.84-5.01
 c-0.19-0.95,0.12-1.64,0.79-2.27c1.09-1.03,2.17-2.07,3.25-3.12c0.18-0.17,0.48-0.33,0.39-0.62c-0.1-0.3-0.44-0.21-0.68-0.25
 c-1.54-0.24-3.09-0.5-4.64-0.69c-0.86-0.11-1.45-0.51-1.82-1.29c-0.68-1.41-1.38-2.81-2.06-4.21c-0.11-0.22-0.09-0.57-0.44-0.55
 c-0.28,0.01-0.3,0.31-0.4,0.51c-0.67,1.34-1.35,2.68-1.99,4.03c-0.42,0.9-1,1.43-2.06,1.53c-1.59,0.15-3.16,0.45-4.73,0.7
 c-0.2,0.03-0.51-0.07-0.58,0.22c-0.06,0.27,0.23,0.36,0.39,0.51c1.12,1.09,2.21,2.22,3.38,3.26c0.79,0.7,0.94,1.48,0.75,2.45
 c-0.29,1.5-0.54,3.01-0.8,4.52c-0.04,0.22-0.17,0.48,0.03,0.65c0.27,0.22,0.48-0.07,0.69-0.18c1.48-0.76,2.95-1.53,4.43-2.29
 c0.66-0.34,1.29-0.3,1.95,0.07C44.64,37.22,46.36,37.92,47.9,38.95z">
                <animateTransform attributeName="transform" attributeType="XML" type="translate"
                    values="0 70;0 70;0 70;0 70;0 70;0 70;0 70;0 70;0 70;0 70;0 70;0 70;0 70;0 70;0 70;0 70;0 70;0 70;0 70;0 70;0 70;0 70;0 70;0 70;0 70;0 70;0 70;0 70;0 70;0 70;0 70;0 70;0 70;0 70;0 70;0 70;0 70;0 70;0 70;0 70;0 70;0 70;0 70;0 70;0 70;0 70;0 70;0 70;0 70;0 70;0 70;0 70;0 70;0 70;0 70;0 70;0 70;0 70;0 70;0 70;0 70;0 70;0 70;0 70;0 70;0 70;0 70;0 70;0 70;0 60;0 30;0 0;0 0;0 0;0 0;0 0;0 0;0 0;0 0;0 0;0 0;0 0;0 0;0 0;0 0;0 0;0 0;0 0;0 0;0 0;0 0;0 0;0 0;0 0;0 0;0 0;0 0;0 0;0 0;0 0;0 0;0 0;0 0;0 0;0 0;0 0;0 0;0 0;0 0;0 0;0 0;0 0;0 0;0 0;0 0;0 0;0 0;0 0;0 0;0 0;0 0;0 0;0 0;0 0;0 0;0 0;0 0;0 0;0 0;0 0;0 0;0 0;0 0;0 0;0 0;0 0;0 0;0 0;0 0;0 0;0 0;0 0;0 0;0 0;0 0;0 0;0 0;0 0;0 0;0 0;0 0;0 0;0 0;0 0;0 0;0 0;0 0;0 0;0 0;0 0;0 0;0 0;0 0;0 0;0 0;0 0;0 0;0 0;0 0;0 0;0 0;0 0;0 0;0 0;0 0;0 0;0 0;0 0;0 0;0 0;0 0;0 0;0 0;0 0;0 0;0 0;0 0;0 0;0 0;0 0;0 0;0 0;0 0;0 0;0 0;0 0;0 0;0 0;0 0;0 0;0 0;0 0;0 0;0 0;0 0;0 0;0 0;0 0;0 0;0 0;0 0;0 0;0 0;0 0;0 0;0 0;0 0;0 0;0 0;0 0;0 0;0 0;0 0;0 0;0 0;0 0;0 0;0 0;0 0;0 0;0 0;0 0;0 0;0 0;0 0;0 0;0 0;0 0;0 0;0 0;0 0;0 0;0 0;0 0;0 0;0 0;0 0;0 0;0 0;0 0;0 0;0 0;0 0;0 0;0 0;0 0;0 0;0 0;0 0;0 0;0 0;0 0;0 0;0 0;0 0;0 0"
                    dur="18s" repeatCount="indefinite"></animateTransform>
            </path>
            <animateTransform attributeName="transform" attributeType="XML" type="rotate"
                values="0 42 30;0 42 30;0 42 30;0 42 30;0 42 30;0 42 30;0 42 30;0 42 30;0 42 30;0 42 30;0 42 30;0 42 30;0 42 30;0 42 30;0 42 30;0 42 30;0 42 30;0 42 30;0 42 30;0 42 30;0 42 30;0 42 30;0 42 30;0 42 30;0 42 30;0 42 30;0 42 30;0 42 30;0 42 30;0 42 30;0 42 30;0 42 30;0 42 30;0 42 30;0 42 30;0 42 30;0 42 30;0 42 30;0 42 30;0 42 30;0 42 30;0 42 30;0 42 30;0 42 30;0 42 30;0 42 30;0 42 30;0 42 30;0 42 30;0 42 30;0 42 30;0 42 30;0 42 30;0 42 30;0 42 30;0 42 30;0 42 30;0 42 30;0 42 30;0 42 30;0 42 30;0 42 30;0 42 30;0 42 30;0 42 30;0 42 30;0 42 30;0 42 30;0 42 30;0 42 30;0 42 30;0 42 30;0 42 30;45 42 30;90 42 30;180 42 30;270 42 30;360 42 30;360 42 30;360 42 30;360 42 30;360 42 30;360 42 30;360 42 30;360 42 30;360 42 30;360 42 30;360 42 30;360 42 30;360 42 30;360 42 30;360 42 30;360 42 30;360 42 30;360 42 30;360 42 30;360 42 30;360 42 30;360 42 30;360 42 30;360 42 30;360 42 30;360 42 30;360 42 30;360 42 30;360 42 30;360 42 30;360 42 30;360 42 30;360 42 30;360 42 30;360 42 30;360 42 30;360 42 30;360 42 30;360 42 30;360 42 30;360 42 30;360 42 30;360 42 30;360 42 30;360 42 30;360 42 30;360 42 30;360 42 30;360 42 30;360 42 30;360 42 30;360 42 30;360 42 30;360 42 30;360 42 30;360 42 30;360 42 30;360 42 30;360 42 30;360 42 30;360 42 30;360 42 30;360 42 30;360 42 30;360 42 30;360 42 30;360 42 30;360 42 30;360 42 30;360 42 30;360 42 30;360 42 30;360 42 30;360 42 30;360 42 30;360 42 30;360 42 30;360 42 30;360 42 30;360 42 30;360 42 30;360 42 30;360 42 30;360 42 30;360 42 30;360 42 30;360 42 30;360 42 30;360 42 30;360 42 30;360 42 30;360 42 30;360 42 30;360 42 30;360 42 30;360 42 30;360 42 30;360 42 30;360 42 30;360 42 30;360 42 30;360 42 30;360 42 30;360 42 30;360 42 30;360 42 30;360 42 30;360 42 30;360 42 30;360 42 30;360 42 30;360 42 30;360 42 30;360 42 30;360 42 30;360 42 30;360 42 30;360 42 30;360 42 30;360 42 30;360 42 30;360 42 30;360 42 30;360 42 30;360 42 30;360 42 30;360 42 30;360 42 30;360 42 30;360 42 30;360 42 30;360 42 30;360 42 30;360 42 30;360 42 30;360 42 30;360 42 30;360 42 30;360 42 30;360 42 30;360 42 30;360 42 30;360 42 30;360 42 30;360 42 30;360 42 30;360 42 30;360 42 30;360 42 30;360 42 30;360 42 30;360 42 30;360 42 30;360 42 30;360 42 30;360 42 30;360 42 30;360 42 30;360 42 30;360 42 30;360 42 30;360 42 30;360 42 30;360 42 30;360 42 30;360 42 30;360 42 30;360 42 30;360 42 30;360 42 30;360 42 30;360 42 30;360 42 30;360 42 30;360 42 30;360 42 30;360 42 30;360 42 30;360 42 30;360 42 30;360 42 30;360 42 30;360 42 30;360 42 30;360 42 30;360 42 30;360 42 30;360 42 30;360 42 30"
                dur="18s" repeatCount="indefinite"></animateTransform>
        </g>
    </svg>
</svg>