<svg version="1.1" xmlns="http://www.w3.org/2000/svg" xmlns:xlink="http://www.w3.org/1999/xlink" viewBox="0 0 122 122"
    preserveAspectRatio="xMinYMin meet" width="122">
    <g>
        <circle stroke="#D5DB22" r="60" cx="61" cy="61" fill="none" stroke-width="1"></circle>
        <circle stroke="#D5DB22" r="46" cx="61" cy="61" fill="none" stroke-width="1"></circle>
        <line stroke="#D5DB22" stroke-width="1" x1="61" x2="61" y1="1" y2="121"></line>
        <line stroke="#D5DB22" stroke-width="1" x1="1" x2="121" y1="61" y2="61"></line>
    </g><svg x="12.5" y="12.5" width="97" height="97" viewBox="0 0 82 80" style="enable-background:new 0 0 82 80;"
        xml:space="preserve">
        <g>
            <g>
                <circle fill="white" cx="41" cy="40" r="30"></circle>
            </g>
            <g>
                <circle fill="none" stroke="#282828" stroke-width="2.5" stroke-miterlimit="10" cx="41.06" cy="40.26"
                    r="27.5"></circle>
                <path fill="#282828" d="M59.39,37.74c0.18,1.56,0.21,3.14,0.02,4.7c-0.8,6.51-4.12,11.19-9.87,14.27c-4.74,2.54-9.78,2.8-14.85,0.93
 c-12.4-4.55-16.5-20.45-6.75-30.58c5.39-5.6,14.45-7.03,21.36-3.5c0.74,0.38,1.3,0.78,0.83,1.7c-0.47,0.92-1.2,0.71-1.9,0.35
 c-2.8-1.45-5.72-1.9-8.71-1.59c-11.18,1.14-18.14,13.18-13.09,23.22c4.16,8.27,13.53,11.58,21.73,7.69
 c6.41-3.04,10.21-10.38,8.98-17.31c-0.08-0.43-0.22-0.96-0.04-1.3c0.17-0.35,0.73-0.75,1.06-0.71c0.4,0.05,0.98,0.5,1.05,0.86
 C59.28,36.91,59.34,37.33,59.39,37.74z"></path>
            </g>
            <g fill="#282828">
                <circle cx="41" cy="18" r="1.21"></circle>
                <circle cx="34" cy="19" r="1.21"></circle>
                <circle cx="49" cy="19" r="1.21"></circle>
                <circle cx="55" cy="23" r="1.21"></circle>
                <circle cx="59.5" cy="27.5" r="1.21"></circle>
                <circle cx="62.5" cy="34.5" r="1.21"></circle>
                <circle cx="63.5" cy="41.5" r="1.21"></circle>
                <circle cx="41.66" cy="63.28" r="1.21"></circle>
                <circle cx="33.63" cy="62.5" r="1.21"></circle>
                <circle cx="27.52" cy="58.66" r="1.21"></circle>
                <circle cx="22.9" cy="54.29" r="1.21"></circle>
                <circle cx="19.71" cy="47.37" r="1.21"></circle>
                <circle cx="18.52" cy="40.4" r="1.21"></circle>
                <circle cx="62.75" cy="48.29" r="1.21"></circle>
                <circle cx="59.91" cy="54.4" r="1.21"></circle>
                <circle cx="54.54" cy="59.02" r="1.21"></circle>
                <circle cx="48.62" cy="62.21" r="1.21"></circle>
                <circle cx="19.34" cy="33.26" r="1.21"></circle>
                <circle cx="23.34" cy="27.26" r="1.21"></circle>
                <circle cx="27.84" cy="22.76" r="1.21"></circle>
            </g>
            <animate attributeName="opacity"
                values="0;0;0;0;0;0;0;0;0;0;0;0;0;0;0;0;0;0;0;0;0;0;0;0;0;0;0;0;0;0;0;0;0;0;0;0;0;0;0;0;0;0;0;0;0;0;0;0;0;0;0;0;0;0;0;0;0;0;0;0;0;0;0;0;0;0;0;0;0;0;0;0;0;0;0;0;0;0;0;0;0;0;0;0;0;0;0;0;0;0;0;0;0.25;0.4;0.85;1;1;1;1;1;1;1;1;1;1;1;1;1;1;1;1;1;1;1;1;1;1;1;1;1;1;1;1;1;1;1;1;1;1;1;1;1;1;1;1;1;1;1;1;1;1;1;1;1;1;1;1;1;1;1;1;1;1;1;1;1;1;1;1;1;1;1;1;1;1;1;1;1;1;1;1;1;1;1;1;1;1;1;1;1;1;1;1;1;1;1;1;1;1;1;1;1;1;1;1;1;1;1;1;1;1;1;1;1;1;1;1;1;1;1;1;1;1;1;1;1;1;1;1;1;1;1;1;1;1;1;1;1;1;1;1;1;1;1;1;1;1;1;1;1;1;1;1;1;1;1;1;1;1;1;1;1;1;1;1;1;1;1;1;1;1;1;1;1;1;1"
                dur="18s" repeatCount="indefinite"></animate>
        </g>
        <g>
            <path fill="#282828" d="M37.73,51.86c-0.22,0.19-0.54,0.18-0.77,0c-0.22-0.18-0.41-0.35-0.57-0.51c-2.35-2.36-4.69-4.74-7.04-7.1
 c-0.66-0.66-0.73-1.34-0.08-2c1.22-1.23,2.48-2.42,3.72-3.64c0.46-0.45,0.91-0.44,1.36-0.01c0.77,0.75,1.56,1.48,2.29,2.27
 c0.54,0.58,0.92,0.51,1.45-0.03c4.01-4.09,8.05-8.15,12.08-12.22c0.07-0.07,0.15-0.15,0.22-0.22c0.79-0.78,2.07-0.78,2.87,0
 c0.94,0.91,1.88,1.82,2.79,2.76c1.02,1.04,1.02,1.39-0.07,2.5c-2.61,2.64-5.25,5.25-7.88,7.88c-3.14,3.14-6.27,6.29-9.42,9.43
 C38.4,51.25,38.07,51.56,37.73,51.86z M54.29,32.53c-0.66-0.69-1.22-1.2-1.69-1.78c-0.53-0.65-0.97-0.59-1.52-0.02
 c-1.42,1.47-2.88,2.9-4.33,4.35c-2.8,2.79-5.59,5.59-8.41,8.36c-0.95,0.93-1.21,0.9-2.13-0.03c-0.68-0.69-1.64-1.55-2.08-2.04
 c-0.17-0.19-0.51-0.46-0.93-0.03c-0.5,0.52-2.38,1.46-1.44,2.39c0.06,0.06,3.35,3.3,5.01,4.98c0.42,0.43,0.77,0.44,1.22-0.01
 c4.5-4.53,9.01-9.04,13.53-13.54C52.39,34.29,53.31,33.46,54.29,32.53z" transform-origin="50% 50%">
                <animateTransform attributeName="transform" attributeType="XML" type="scale"
                    values="1;1;1;1;1;1;1;1;1;1;1;1;1;1;1;1;1;1;1;1;1;1;1;1;1;1;1;1;1;1;1;1;1;1;1;1;1;1;1;1;1;1;1;1;1;1;1;1;1;1;1;1;1;1;1;1;1;1;1;1;1;1;1;1;1;1;1;1;1;1;1;1;1;1;1;1;1;1;1;1;1;1;1;1;1;1;1;1;1;1;1;1;1;1;1;1;1;1;1;1;1;1;1.3;1.4;1.35;1.15;1;1;1;1;1;1;1;1;1;1;1;1;1;1;1;1;1;1;1;1;1;1;1;1;1;1;1;1;1;1;1;1;1;1;1;1;1;1;1;1;1;1;1;1;1;1;1;1;1;1;1;1;1;1;1;1;1;1;1;1;1;1;1;1;1;1;1;1;1;1;1;1;1;1;1;1;1;1;1;1;1;1;1;1;1;1;1;1;1;1;1;1;1;1;1;1;1;1;1;1;1;1;1;1;1;1;1;1;1;1;1;1;1;1;1;1;1;1;1;1;1;1;1;1;1;1;1;1;1;1;1;1;1;1;1;1;1;1;1;1;1;1;1;1;1;1;1;1;1;1;1;1;1;1;1;1;1;1;1;1"
                    dur="18s" repeatCount="indefinite"></animateTransform>
            </path>
            <animate attributeName="opacity"
                values="0;0;0;0;0;0;0;0;0;0;0;0;0;0;0;0;0;0;0;0;0;0;0;0;0;0;0;0;0;0;0;0;0;0;0;0;0;0;0;0;0;0;0;0;0;0;0;0;0;0;0;0;0;0;0;0;0;0;0;0;0;0;0;0;0;0;0;0;0;0;0;0;0;0;0;0;0;0;0;0;0;0;0;0;0;0;0;0;0;0;0;0;0;0;0;0;0;0.25;0.4;0.85;1;1;1;1;1;1;1;1;1;1;1;1;1;1;1;1;1;1;1;1;1;1;1;1;1;1;1;1;1;1;1;1;1;1;1;1;1;1;1;1;1;1;1;1;1;1;1;1;1;1;1;1;1;1;1;1;1;1;1;1;1;1;1;1;1;1;1;1;1;1;1;1;1;1;1;1;1;1;1;1;1;1;1;1;1;1;1;1;1;1;1;1;1;1;1;1;1;1;1;1;1;1;1;1;1;1;1;1;1;1;1;1;1;1;1;1;1;1;1;1;1;1;1;1;1;1;1;1;1;1;1;1;1;1;1;1;1;1;1;1;1;1;1;1;1;1;1;1;1;1;1;1;1;1;1;1;1;1;1;1;1;1;1;1;1;1"
                dur="18s" repeatCount="indefinite"></animate>
        </g>
    </svg>
</svg>