<svg xmlns="http://www.w3.org/2000/svg" xmlns:xlink="http://www.w3.org/1999/xlink" version="1.1" viewBox="0 0 122 122" preserveAspectRatio="xMinYMin meet" width="122"><g><circle stroke="#D5DB22" r="60" cx="61" cy="61" fill="none" stroke-width="1"></circle><circle stroke="#D5DB22" r="46" cx="61" cy="61" fill="none" stroke-width="1"></circle><line stroke="#D5DB22" stroke-width="1" x1="61" x2="61" y1="1" y2="121"></line><line stroke="#D5DB22" stroke-width="1" x1="1" x2="121" y1="61" y2="61"></line></g><svg width="99" height="99" x="11.5" y="11.5" viewBox="0 0 82 80" style="enable-background:new 0 0 82 80;" xml:space="preserve"><g><rect x="14" y="14" width="52" height="55" fill="white"></rect><g fill="#282828"><path d="M14.96,46.07c0-6.21,0.02-12.42-0.02-18.63c-0.01-1.44,0.35-2.59,1.41-3.64c4.04-4.02,8.03-8.11,12-12.2
 c0.78-0.8,1.73-0.56,2.61-0.56c6.26-0.03,12.52-0.01,18.78,0c1.64,0,3.28-0.03,4.91,0.03c2.15,0.08,3.68,1.47,3.72,3.64
 c0.09,4.68-0.03,9.36,0,14.04c0,0.81,0.04,1.65-1.18,1.68c-1.21,0.03-1.38-0.68-1.37-1.64c0.02-3.91,0-7.83,0.07-11.74
 c0.06-3.42,0.09-3.49-3.23-3.5c-7.01-0.03-14.03,0.03-21.04,0c-0.93,0-0.88,0.49-0.88,1.12c0.01,3.91-0.03,7.83,0.03,11.74
 c0.02,1.11-0.41,1.6-1.44,1.59c-3.32-0.02-6.63-0.06-9.95-0.09c-0.77-0.01-0.69-0.54-0.71-1.06c-0.03-0.67,0.06-1.21,0.89-1.21
 c1.81,0.01,3.61,0.05,5.42,0.05c3.81,0,3.2,0.42,3.26-3.06c0.03-1.96,0.05-3.91,0-5.87c-0.01-0.35-0.03-0.85-0.46-0.99
 c-0.37-0.12-0.56,0.29-0.79,0.53c-2.96,3.02-5.75,6.2-8.9,9.02c-0.68,0.61-0.73,1.39-0.73,2.21c-0.01,6.55-0.04,13.1-0.05,19.66
 c-0.01,5.96,0,11.91,0,17.87c0,1.93,0.2,2.1,2.09,2.1c7.9,0.02,15.79-0.04,23.69,0c0.62,0,1.32-0.02,1.73,0.59
 c0.56,0.82-0.05,1.79-1.15,1.83c-6.68,0.28-13.35,0-20.03,0c-1.8,0-3.61,0.22-5.41-0.03c-1.86-0.26-2.84-1.23-3.16-3.07
 c-0.2-1.14-0.09-2.29-0.09-3.44c-0.01-5.66,0-11.32,0-16.98C14.97,46.07,14.97,46.07,14.96,46.07z"></path><path d="M40.81,38.37h-17.7c-0.75,0-1.36-0.61-1.36-1.36v0c0-0.75,0.61-1.36,1.36-1.36h17.7c0.75,0,1.36,0.61,1.36,1.36
 v0C42.17,37.76,41.56,38.37,40.81,38.37z"></path><path d="M40.81,45.18h-17.7c-0.75,0-1.36-0.61-1.36-1.36l0,0c0-0.75,0.61-1.36,1.36-1.36h17.7
 c0.75,0,1.36,0.61,1.36,1.36l0,0C42.17,44.57,41.56,45.18,40.81,45.18z"></path><path d="M31.64,51.99h-8.9c-0.55,0-0.99-0.45-0.99-0.99v-0.73c0-0.55,0.45-0.99,0.99-0.99h8.9
 c0.55,0,0.99,0.45,0.99,0.99V51C32.64,51.55,32.19,51.99,31.64,51.99z"></path></g><animateTransform attributeName="transform" attributeType="XML" type="translate" values="0 35;0 30;0 20;0 3;0 1.5;0 0;0 0;0 0;0 0;0 0;0 0;0 0;0 0;0 0;0 0;0 0;0 0;0 0;0 0;0 0;0 0;0 0;0 0;0 0;0 0;0 0;0 0;0 0;0 0;0 0;0 0;0 0;0 0;0 0;0 0;0 0;0 0;0 0;0 0;0 0;0 0;0 0;0 0;0 0;0 0;0 0;0 0;0 0;0 0;0 0;0 0;0 0;0 0;0 0;0 0;0 0;0 0;0 0;0 0;0 0;0 0;0 0;0 0;0 0;0 0;0 0;0 0;0 0;0 0;0 0;0 0;0 0;0 0;0 0;0 0;0 0;0 0;0 0;0 0;0 0;0 0;0 0;0 0;0 0;0 0;0 0;0 0;0 0;0 0;0 0;0 0;0 0;0 0;0 0;0 0;0 0;0 0;0 0;0 0;0 0;0 0;0 0;0 0;0 0;0 0;0 0;0 0;0 0;0 0;0 0;0 0;0 0;0 0;0 0;0 0;0 0;0 0;0 0;0 0;0 0;0 0;0 0;0 0;0 0;0 0;0 0;0 0;0 0;0 0;0 0;0 0;0 0;0 0;0 0;0 0;0 0;0 0;0 0;0 0;0 0;0 0;0 0;0 0;0 0;0 0;0 0;0 0;0 0;0 0;0 0;0 0;0 0;0 0;0 0;0 0;0 0;0 0;0 0;0 0;0 0;0 0;0 0;0 0;0 0;0 0;0 0;0 0;0 0;0 0;0 0;0 0;0 0;0 0;0 0;0 0;0 0;0 0;0 0;0 0;0 0;0 0;0 0;0 0;0 0;0 0;0 0;0 0;0 0;0 0;0 0;0 0;0 0;0 0;0 0;0 0;0 0;0 0;0 0;0 0;0 0;0 0;0 0;0 0;0 0;0 0;0 0;0 0;0 0;0 0;0 0;0 0;0 0;0 0;0 0;0 0;0 0;0 0;0 0;0 0;0 0;0 0;0 0;0 0;0 0;0 0;0 0;0 0;0 0;0 0;0 0;0 0;0 0;0 0;0 0;0 0;0 0;0 0;0 0;0 0;0 0;0 0;0 0;0 0;0 0;0 0;0 0;0 0;0 0;0 0;0 0;0 0;0 0;0 0;0 0;0 0;0 0;0 0;0 0;0 0;0 0;0 0;0 0;0 0;0 0;0 0;0 0" dur="18s" repeatCount="indefinite"></animateTransform></g><g fill="#282828"><path d="M64.33,41.66c-0.03,0.4-0.31,0.62-0.54,0.85c-2.67,2.7-5.35,5.37-8,8.09c-0.67,0.69-1.25,0.74-1.95,0.14
 c-1.29-1.09-2.46-2.3-3.52-3.62c-0.36-0.45-0.62-0.95-0.07-1.46c0.55-0.5,1.03-0.36,1.55,0.1c0.75,0.68,1.57,1.28,2.3,1.98
 c0.6,0.58,0.95,0.49,1.51-0.11c2.15-2.32,4.36-4.58,6.57-6.84c0.32-0.32,0.7-0.87,1.28-0.46C63.91,40.65,64.21,41.12,64.33,41.66z"></path><path d="M69.01,45.41c0.16,3.37-1.2,6.12-3.47,8.45c-0.72,0.74-0.85,1.38-0.48,2.37c1.08,2.85,2.04,5.76,3.04,8.64
 c0.31,0.89-0.05,1.41-0.91,1.56c-0.53,0.09-4.33-0.55-6.4,1.86c-0.21,0.2-0.46,0.37-0.7,0.54c-1.5,1.05-2.05,0.84-2.57-0.96
 c-0.08-0.28-0.13-0.58-0.24-0.85c-0.19-0.47-0.44-0.46-0.7-0.04c-0.04,0.07-0.08,0.15-0.11,0.23c-1.48,2.85-3.14,1.41-3.14,1.41
 c-0.61-1.05-4.38-2.53-6.6-2.09c-1.14,0.22-1.37-0.7-1.14-1.59c0.33-1.27,0.78-2.51,1.2-3.75c0.66-1.93,1.32-3.85,2.01-5.77
 c0.25-0.68,0.14-1.17-0.36-1.72c-3.95-4.37-4.39-10.5-1.15-15.41c2.75-4.18,8.35-6.1,13.27-4.56
 C66.03,35.42,69.07,39.63,69.01,45.41z M57.32,55.01c4.86,0.11,9.36-4.48,9.47-9.67c0.12-5.33-4.2-9.86-9.52-9.98
 c-5.34-0.12-9.69,4.08-9.82,9.47C47.31,51.08,51.98,55.13,57.32,55.01z M65.14,63.46c-0.85-2.2-1.73-4.49-2.62-6.77
 c-0.2-0.51-0.58-0.33-0.95-0.19c-1.42,0.54-2.88,0.88-4.4,0.96c-0.62,0.03-0.94,0.18-0.65,0.93c0.84,2.21,1.66,4.43,2.4,6.68
 c0.32,0.96,0.73,1.19,1.5,0.52c1.18-1.03,2.45-1.76,4.09-1.5C64.83,64.15,65.21,64.08,65.14,63.46z M55.53,62.51
 c-0.53-1.56-1.09-3.11-1.58-4.67c-0.38-1.21-1.45-1.43-2.39-1.82c-0.31-0.13-0.54,0.06-0.66,0.4c-0.83,2.3-1.68,4.6-2.52,6.9
 c-0.21,0.57-0.06,0.9,0.6,0.86c1.8-0.1,3.39,0.36,4.65,1.75c0.18,0.2,0.5,0.43,0.67-0.03C54.71,64.79,55.11,63.68,55.53,62.51z"></path><animateTransform attributeName="transform" attributeType="XML" type="translate" values="-4 .5;-4 .5;-4 .5;-4 .5;-4 .5;-4 .5;-4 .5;0 0;4 .5;0 0;-3 .15;0 0;3 .15;3 .15;3 .15;3 .15;3 .15;3 .15;3 .15;3 .15;3 .15;3 .15;3 .15;3 .15;3 .15;3 .15;3 .15;3 .15;3 .15;3 .15;3 .15;3 .15;3 .15;3 .15;3 .15;3 .15;3 .15;3 .15;3 .15;3 .15;3 .15;3 .15;3 .15;3 .15;3 .15;3 .15;3 .15;3 .15;3 .15;3 .15;3 .15;3 .15;3 .15;3 .15;3 .15;3 .15;3 .15;3 .15;3 .15;3 .15;3 .15;3 .15;3 .15;3 .15;3 .15;3 .15;3 .15;3 .15;3 .15;3 .15;3 .15;3 .15;3 .15;3 .15;3 .15;3 .15;3 .15;3 .15;3 .15;3 .15;3 .15;3 .15;3 .15;3 .15;3 .15;3 .15;3 .15;3 .15;3 .15;3 .15;3 .15;3 .15;3 .15;3 .15;3 .15;3 .15;3 .15;3 .15;3 .15;3 .15;3 .15;3 .15;3 .15;3 .15;3 .15;3 .15;3 .15;3 .15;3 .15;3 .15;3 .15;3 .15;3 .15;3 .15;3 .15;3 .15;3 .15;3 .15;3 .15;3 .15;3 .15;3 .15;3 .15;3 .15;3 .15;3 .15;3 .15;3 .15;3 .15;3 .15;3 .15;3 .15;3 .15;3 .15;3 .15;3 .15;3 .15;3 .15;3 .15;3 .15;3 .15;3 .15;3 .15;3 .15;3 .15;3 .15;3 .15;3 .15;3 .15;3 .15;3 .15;3 .15;3 .15;3 .15;3 .15;3 .15;3 .15;3 .15;3 .15;3 .15;3 .15;3 .15;3 .15;3 .15;3 .15;3 .15;3 .15;3 .15;3 .15;3 .15;3 .15;3 .15;3 .15;3 .15;3 .15;3 .15;3 .15;3 .15;3 .15;3 .15;3 .15;3 .15;3 .15;3 .15;3 .15;3 .15;3 .15;3 .15;3 .15;3 .15;3 .15;3 .15;3 .15;3 .15;3 .15;3 .15;3 .15;3 .15;3 .15;3 .15;3 .15;3 .15;3 .15;3 .15;3 .15;3 .15;3 .15;3 .15;3 .15;3 .15;3 .15;3 .15;3 .15;3 .15;3 .15;3 .15;3 .15;3 .15;3 .15;3 .15;3 .15;3 .15;3 .15;3 .15;3 .15;3 .15;3 .15;3 .15;3 .15;3 .15;3 .15;3 .15;3 .15;3 .15;3 .15;3 .15;3 .15;3 .15;3 .15;3 .15;3 .15;3 .15;3 .15;3 .15;3 .15;3 .15;3 .15;3 .15;3 .15;3 .15;3 .15;3 .15;3 .15;3 .15;3 .15;3 .15;3 .15;3 .15;3 .15;3 .15;3 .15;3 .15;3 .15;3 .15;3 .15;3 .15" dur="18s" repeatCount="indefinite"></animateTransform></g></svg></svg>