<svg cache-id="b8153eacaac94c0dbecc05ead54d8901" id="eCar14WTVfH1" xmlns="http://www.w3.org/2000/svg" xmlns:xlink="http://www.w3.org/1999/xlink" viewBox="0 0 200 200" shape-rendering="geometricPrecision" text-rendering="geometricPrecision">
<style><![CDATA[
#eCar14WTVfH18 {animation: eCar14WTVfH18_c_o 3000ms linear 1 normal forwards}@keyframes eCar14WTVfH18_c_o { 0% {opacity: 0} 16.666667% {opacity: 1} 100% {opacity: 1}} #eCar14WTVfH20_to {animation: eCar14WTVfH20_to__to 3000ms linear 1 normal forwards}@keyframes eCar14WTVfH20_to__to { 0% {transform: translate(101.225002px,69.559998px)} 26.666667% {transform: translate(101.225002px,69.559998px)} 40% {transform: translate(101.225002px,87.559998px)} 100% {transform: translate(101.225002px,87.559998px)}} #eCar14WTVfH20 {animation: eCar14WTVfH20_c_o 3000ms linear 1 normal forwards}@keyframes eCar14WTVfH20_c_o { 0% {opacity: 0} 26.666667% {opacity: 0} 36.666667% {opacity: 1} 100% {opacity: 1}} #eCar14WTVfH21 {animation: eCar14WTVfH21_c_o 3000ms linear 1 normal forwards}@keyframes eCar14WTVfH21_c_o { 0% {opacity: 0} 16.666667% {opacity: 0} 26.666667% {opacity: 1} 100% {opacity: 1}} #eCar14WTVfH22_to {animation: eCar14WTVfH22_to__to 3000ms linear 1 normal forwards}@keyframes eCar14WTVfH22_to__to { 0% {transform: translate(93.195002px,87.769997px)} 36.666667% {transform: translate(93.195002px,87.769997px)} 53.333333% {transform: translate(93.195002px,103.769997px)} 100% {transform: translate(93.195002px,103.769997px)}} #eCar14WTVfH22 {animation: eCar14WTVfH22_c_o 3000ms linear 1 normal forwards}@keyframes eCar14WTVfH22_c_o { 0% {opacity: 0} 36.666667% {opacity: 0} 46.666667% {opacity: 1} 100% {opacity: 1}}
]]></style>
<defs><rect id="eCar14WTVfH2" width="122" height="123" rx="0" ry="0"/></defs><g transform="matrix(1.668057 0 0 1.668057-852.543962-2532.944413)"><g><g transform="translate(511 1518.45)"><g><g><g clip-path="url(#eCar14WTVfH16)"><g><circle r="59.8" transform="translate(60 60)" fill="none" stroke="#00abc8" stroke-width="0.5" stroke-miterlimit="10"/><circle r="45.9" transform="translate(60 60)" fill="none" stroke="#00abc8" stroke-width="0.5" stroke-miterlimit="10"/><line x1="60.1" y1="87.5" x2="60.1" y2="119.8" transform="matrix(.758934 0 0 0.758934 14.488066 28.583491)" fill="none" stroke="#00abc8" stroke-width="0.5" stroke-miterlimit="10"/><line x1="32.5" y1="60.2" x2="0.1" y2="60.2" transform="matrix(.56735 0 0 0.56735 0.457695 26.04553)" fill="none" stroke="#00abc8" stroke-width="0.5" stroke-miterlimit="10"/><line x1="120" y1="60.2" x2="87.6" y2="60.2" transform="matrix(.546636 0 0 0.546636 54.253183 27.292513)" fill="none" stroke="#00abc8" stroke-width="0.5" stroke-miterlimit="10"/><line x1="60.1" y1="0.2" x2="60.1" y2="29.5" transform="matrix(.752984 0 0 0.752984 14.845661 0.071188)" fill="none" stroke="#00abc8" stroke-width="0.5" stroke-miterlimit="10"/></g><clipPath id="eCar14WTVfH16"><use width="122" height="123" xlink:href="#eCar14WTVfH2" transform="translate(-1-1.5)"/></clipPath></g></g></g></g></g></g><path id="eCar14WTVfH18" d="M72.12,127.93c-2.61,2.08-11.42,9.6-13.01,10.93.03-1.36-.12-14.25-.12-17.2-1.11-.08-1.98-.16-2.86-.19-5.11-.18-8.82-3.52-8.85-8.54-.11-16.16-.11-32.32,0-48.49.04-5.2,3.89-8.58,9.37-8.61c8.22-.05,16.43-.01,24.66-.01c15.89,0,31.77,0,47.66,0c7.1,0,10.32,3.24,10.33,10.41c0,4.27,0,8.54,0,13.06c5.17,0,9.99-.01,14.81,0c6.69.02,10.07,3.4,10.08,10.15.02,14.88.02,29.76.01,44.64c0,7.64-2.82,10.6-10.4,10.94h-.01c-.76.05-1.35.68-1.35,1.44-.02,1.67-.22,14.42-.22,14.42s-13.9-10.39-18.99-14.25c-1.27-.95-2.8-1.49-4.38-1.56-15.43-.11-30.86-.06-46.29-.07-7.18,0-10.42-3.2-10.44-10.29.01-2.01.01-4,0-6.78m-9.13,2.02c4.36-3.47,8.31-6.38,11.99-9.61c2.11-2,4.93-3.08,7.83-3.02c15.68.09,31.35.05,47.03.04c3.75,0,5.51-1.76,5.52-5.52.01-2.92-.17-5.84-.17-8.75.01-12.41.08-24.82.09-37.23c0-4.33-1.61-5.91-5.97-5.92-9.04-.01-18.07-.01-27.11,0-15.06,0-30.12,0-45.18,0-3.74,0-5.61,1.53-5.61,4.82-.01,15.98.03,31.96.12,47.93-.15,2.4,1.67,4.46,4.07,4.61.02,0,.05,0,.07,0c1.36.15,2.73.17,4.1.06c2.25-.12,3.32.87,3.27,3.12-.08,2.91-.05,5.83-.05,9.47m76.34-46.54c0,1.36,0,2.34,0,3.34.05,7.94.12,15.87.14,23.81.02,7.91-3.05,10.96-10.9,10.95-15.24-.01-30.48-.01-45.72,0-4.55,0-6.69,2.18-6.69,6.78c0,2.01,0,4.02,0,6.02c0,5.22,1.41,6.62,6.7,6.62c15.33.01,30.67.06,46-.05c2.54-.15,5.04.7,6.95,2.39c3.42,3.01,11.66,9.27,12.6,9.95c0-2.41.03-4.54.03-6.54c0-5.66,0-5.66,5.6-5.75c4.57-.07,6.04-1.54,6.05-6.12.01-9.12.01-18.24,0-27.36c0-6.3.03-12.6-.01-18.9-.02-3.04-1.45-5-4.21-5.1-5.37-.19-10.74-.05-16.54-.04" transform="translate(-6-6)" opacity="0"/><g transform="translate(-6-6)"><g id="eCar14WTVfH20_to" transform="translate(101.225002,69.559998)"><line id="eCar14WTVfH20" x1="78.08" y1="74.56" x2="124.37" y2="74.56" transform="translate(-101.225002,-74.559998)" opacity="0" fill="none" stroke="#000" stroke-width="3.5" stroke-linecap="round" stroke-miterlimit="10"/></g><line id="eCar14WTVfH21" x1="91.85" y1="88.66" x2="124.37" y2="88.66" transform="translate(0-19)" opacity="0" fill="none" stroke="#000" stroke-width="3.5" stroke-linecap="round" stroke-miterlimit="10"/><g id="eCar14WTVfH22_to" transform="translate(93.195002,87.769997)"><line id="eCar14WTVfH22" x1="62.02" y1="102.77" x2="124.37" y2="102.77" transform="translate(-93.195002,-102.769997)" opacity="0" fill="none" stroke="#000" stroke-width="3.5" stroke-linecap="round" stroke-miterlimit="10"/></g></g></svg>
