<svg xmlns="http://www.w3.org/2000/svg" width="29.013" height="37.164" viewBox="0 0 29.013 37.164">
  <path id="路径_34700" data-name="路径 34700" d="M29.01,14.721a14.323,14.323,0,0,1-1.49,6.023,38.433,38.433,0,0,1-3.769,6.345c-.993,1.377-2.081,2.676-3.179,3.969-1.515,1.784-3.158,3.445-4.813,5.1-.316.315-.674.587-1,.887a.336.336,0,0,1-.532-.014c-1.815-1.651-3.507-3.423-5.151-5.242A54.47,54.47,0,0,1,4.83,26.467a30.717,30.717,0,0,1-2.5-4.032A22.321,22.321,0,0,1,.208,16.676,13.4,13.4,0,0,1,1.1,9.064,14.89,14.89,0,0,1,3.929,4.621,14.135,14.135,0,0,1,9.2,1.042,13.987,13.987,0,0,1,16.91.21a15.237,15.237,0,0,1,6.249,2.7,14.864,14.864,0,0,1,4.6,5.636,12.644,12.644,0,0,1,1.187,4.8,11.974,11.974,0,0,1,.064,1.375m-5.594-.186a8.992,8.992,0,0,0-8.645-8.918,9.092,9.092,0,0,0-9.229,9.1,9.075,9.075,0,0,0,8.779,8.821,8.914,8.914,0,0,0,9.1-9" transform="translate(0 0)" fill="#4eb47d"/>
</svg>
