<svg id="组_6685" data-name="组 6685" xmlns="http://www.w3.org/2000/svg" xmlns:xlink="http://www.w3.org/1999/xlink" width="27.043" height="30.961" viewBox="0 0 27.043 30.961">
  <defs>
    <clipPath id="clip-path">
      <rect id="矩形_2830" data-name="矩形 2830" width="27.043" height="30.961" fill="none"/>
    </clipPath>
  </defs>
  <g id="组_6683" data-name="组 6683" transform="translate(0 0)" clip-path="url(#clip-path)">
    <path id="路径_34615" data-name="路径 34615" d="M14.371,0H12.677a2.078,2.078,0,0,1-.264.052A12.724,12.724,0,0,0,8.8.851a13.529,13.529,0,0,0,4.726,26.207,1.107,1.107,0,0,1,.558.157c1.935,1.18,3.862,2.372,5.791,3.561.091.056.183.109.312.184,0-.151,0-.25,0-.349-.042-1.572-.068-3.145-.14-4.715A.776.776,0,0,1,20.5,25.1a13.269,13.269,0,0,0,6.545-11.621,12.7,12.7,0,0,0-2.27-7.459A13.3,13.3,0,0,0,15.981.234c-.532-.1-1.073-.157-1.61-.234m.962,6.052c-.175,3.454-.348,6.878-.521,10.294h-2.6c-.168-3.444-.334-6.861-.5-10.294ZM13.52,21.661a1.977,1.977,0,0,1-2.042-2.039,2.044,2.044,0,1,1,2.042,2.039" transform="translate(0.001 0)" fill="#fff"/>
  </g>
</svg>
