<svg id="组_6722" data-name="组 6722" xmlns="http://www.w3.org/2000/svg" xmlns:xlink="http://www.w3.org/1999/xlink" width="55.641" height="58" viewBox="0 0 55.641 58">
  <defs>
    <clipPath id="clip-path">
      <rect id="矩形_2833" data-name="矩形 2833" width="55.641" height="58" fill="none"/>
    </clipPath>
  </defs>
  <rect id="矩形_2855" data-name="矩形 2855" width="49.674" height="44" transform="translate(2.968 11.481)" fill="#fff"/>
  <g id="组_6691" data-name="组 6691">
    <g id="组_6690" data-name="组 6690" clip-path="url(#clip-path)">
      <path id="路径_34621" data-name="路径 34621" d="M12.527,0H43.113a5.707,5.707,0,0,1,.994.8q5.507,6.941,10.985,13.9a2.4,2.4,0,0,1,.548,1.557q-.006,19.962,0,39.924c0,1.244-.59,1.813-1.849,1.813H1.857C.573,58,0,57.433,0,56.135Q0,36.23,0,16.325a2.474,2.474,0,0,1,.556-1.613C4.186,10.125,7.8,5.524,11.435.942A7.5,7.5,0,0,1,12.527,0M3.017,54.988H52.61V17.715H3.017ZM29.346,2.971v11.69H51.213c-.132-.191-.218-.331-.32-.46Q46.638,8.8,42.386,3.392a1.007,1.007,0,0,0-.9-.43c-3.85.015-7.7.009-11.552.009ZM4.435,14.663H26.3V2.971h-.71c-3.774,0-7.548.01-11.321-.012a1.211,1.211,0,0,0-1.083.526Q9.005,8.836,4.79,14.16c-.11.14-.207.292-.355.5" transform="translate(0.001)"/>
      <path id="路径_34622" data-name="路径 34622" d="M135.23,194.693c-1.649-1.645-3.249-3.248-4.858-4.841a1.662,1.662,0,0,1-.6-1.4,1.357,1.357,0,0,1,.937-1.234,1.492,1.492,0,0,1,1.622.359q1.768,1.757,3.525,3.524c.476.481.929.985,1.418,1.506.226-.212.377-.346.52-.488q2.244-2.242,4.484-4.488a1.538,1.538,0,0,1,1.659-.421,1.351,1.351,0,0,1,.955,1.219,1.643,1.643,0,0,1-.583,1.406c-1.475,1.461-2.94,2.934-4.411,4.4a4.7,4.7,0,0,0-.57.6,2.188,2.188,0,0,1,.547.292c1.491,1.472,2.966,2.961,4.453,4.438a1.622,1.622,0,0,1,.561,1.412,1.345,1.345,0,0,1-.927,1.181,1.475,1.475,0,0,1-1.58-.319c-.676-.658-1.339-1.331-2.007-2l-3.071-3.068c-.389.409-.742.8-1.111,1.167-1.225,1.232-2.444,2.47-3.693,3.676a2.389,2.389,0,0,1-1,.582,1.347,1.347,0,0,1-1.545-.663,1.469,1.469,0,0,1,.179-1.735c.576-.623,1.189-1.214,1.789-1.814,1.081-1.08,2.164-2.157,3.306-3.3" transform="translate(-108.932 -157.919)" fill="#282828"/>
    </g>
  </g>
</svg>
