<svg id="组_6720" data-name="组 6720" xmlns="http://www.w3.org/2000/svg" xmlns:xlink="http://www.w3.org/1999/xlink" width="44.891" height="57.5" viewBox="0 0 44.891 57.5">
  <defs>
    <clipPath id="clip-path">
      <rect id="矩形_2845" data-name="矩形 2845" width="44.891" height="57.5" fill="none"/>
    </clipPath>
  </defs>
  <rect id="矩形_2854" data-name="矩形 2854" width="38.891" height="46.051" rx="1" transform="translate(3 3.165)" fill="#fff"/>
  <g id="组_6705" data-name="组 6705">
    <g id="组_6704" data-name="组 6704" clip-path="url(#clip-path)">
      <path id="路径_34657" data-name="路径 34657" d="M4.015,57.66A2.482,2.482,0,0,1,2.5,54.882c.019-.155-.014-.317.005-.472a1.617,1.617,0,0,0-.921-1.877A2.808,2.808,0,0,1,.254,49.891q0-3.239,0-6.479c0-12.778,0-13.857,0-26.635a5.714,5.714,0,0,1,.015-.741,1,1,0,0,1,1.061-.915.969.969,0,0,1,.936.97c.015.2.007.4.007.607,0,3.194,0,1.889,0,5.084v.769H43v-.731c0-6.794,0-9.088,0-15.882A3.337,3.337,0,0,0,39.37,2.275c-16.255,0-17.213,0-33.468,0A3.344,3.344,0,0,0,2.274,5.938c0,1.732,0,3.464,0,5.2,0,.809-.353,1.253-.982,1.266-.653.013-1.033-.451-1.035-1.29C.25,9.332.247,7.555.256,5.778A5.332,5.332,0,0,1,4.579.355a1.51,1.51,0,0,0,.244-.1H40.448c3.509.821,4.614,3.437,4.6,6.473-.067,18.086-.033,24.475-.033,42.561,0,.27.009.54,0,.81a2.715,2.715,0,0,1-1.327,2.44,1.643,1.643,0,0,0-.921,1.944c.014.133-.012.271,0,.4a2.476,2.476,0,0,1-1.513,2.778H35.6a2.5,2.5,0,0,1-1.535-2.768c.051-.548.008-1.1.008-1.651H11.2c0,.581-.04,1.12.008,1.651A2.494,2.494,0,0,1,9.673,57.66ZM38.5,31.374H6.789V46.7H9.8c1.616,0,3.233-.009,4.849.01a.951.951,0,0,1,1.009.953,1,1,0,0,1-.935,1.045,4.58,4.58,0,0,1-.605.015H7.38c-1.906,0-2.666-.753-2.666-2.641,0-7.041,0-6.883,0-13.924v-.8H2.274v.76c0,8.188,0,9.178,0,17.366,0,1.34.339,1.682,1.666,1.682H41.313c1.34,0,1.683-.34,1.684-1.665,0-8.188,0-9.178,0-17.366v-.769H40.557v.84c0,7.041,0,6.883,0,13.924,0,1.808-.78,2.591-2.582,2.591H19.032c-1.075,0-1.564-.334-1.545-1.052.019-.694.455-.971,1.537-.971H38.5ZM2.292,29.239H42.957V24.677H2.292ZM4.584,55.6H9.131V53.224H4.584Zm31.563.006h4.559V53.227H36.147Z" transform="translate(-0.205 -0.205)"/>
      <path id="路径_34658" data-name="路径 34658" d="M4.015,57.66A2.482,2.482,0,0,1,2.5,54.882c.019-.155-.014-.317.005-.472a1.617,1.617,0,0,0-.921-1.877A2.808,2.808,0,0,1,.254,49.891q0-3.239,0-6.479c0-12.778,0-13.857,0-26.635a5.714,5.714,0,0,1,.015-.741,1,1,0,0,1,1.061-.915.969.969,0,0,1,.936.97c.015.2.007.4.007.607,0,3.194,0,1.889,0,5.084v.769H43v-.731c0-6.794,0-9.088,0-15.882A3.337,3.337,0,0,0,39.37,2.275c-16.255,0-17.213,0-33.468,0A3.344,3.344,0,0,0,2.274,5.938c0,1.732,0,3.464,0,5.2,0,.809-.353,1.253-.982,1.266-.653.013-1.033-.451-1.035-1.29C.25,9.332.247,7.555.256,5.778A5.332,5.332,0,0,1,4.579.355a1.51,1.51,0,0,0,.244-.1H40.448c3.509.821,4.614,3.437,4.6,6.473-.067,18.086-.033,24.475-.033,42.561,0,.27.009.54,0,.81a2.715,2.715,0,0,1-1.327,2.44,1.643,1.643,0,0,0-.921,1.944c.014.133-.012.271,0,.4a2.476,2.476,0,0,1-1.513,2.778H35.6a2.5,2.5,0,0,1-1.535-2.768c.051-.548.008-1.1.008-1.651H11.2c0,.581-.04,1.12.008,1.651A2.494,2.494,0,0,1,9.673,57.66ZM38.5,31.374H6.789V46.7H9.8c1.616,0,3.233-.009,4.849.01a.951.951,0,0,1,1.009.953,1,1,0,0,1-.935,1.045,4.58,4.58,0,0,1-.605.015H7.38c-1.906,0-2.666-.753-2.666-2.641,0-7.041,0-6.883,0-13.924v-.8H2.274v.76c0,8.188,0,9.178,0,17.366,0,1.34.339,1.682,1.666,1.682H41.313c1.34,0,1.683-.34,1.684-1.665,0-8.188,0-9.178,0-17.366v-.769H40.557v.84c0,7.041,0,6.883,0,13.924,0,1.808-.78,2.591-2.582,2.591H19.032c-1.075,0-1.564-.334-1.545-1.052.019-.694.455-.971,1.537-.971H38.5ZM2.292,29.239H42.957V24.677H2.292ZM4.584,55.6H9.131V53.224H4.584Zm31.563.006h4.559V53.227H36.147Z" transform="translate(-0.205 -0.205)" fill="none" stroke="#000" stroke-miterlimit="10" stroke-width="0.5"/>
      <path id="路径_34659" data-name="路径 34659" d="M157.547,68.713c-1.457,0-2.915.008-4.372,0a2.087,2.087,0,0,1-2.238-2.221c-.007-.719-.012-1.438,0-2.156a2.058,2.058,0,0,1,2.08-2.1q4.506-.023,9.012,0a2.063,2.063,0,0,1,2.077,2.047c.039.784.037,1.573,0,2.358a2.088,2.088,0,0,1-2.191,2.073c-1.457.014-2.914,0-4.371,0m4.515-4.416h-9.051v2.366h9.051Z" transform="translate(-123.768 -51.021)"/>
      <path id="路径_34660" data-name="路径 34660" d="M99.638,65.425c0-.4-.016-.809,0-1.212a2.025,2.025,0,0,1,2-2.027c.805-.03,1.614-.029,2.419,0A2.049,2.049,0,0,1,106.1,64.19a22.919,22.919,0,0,1,0,2.423,2.1,2.1,0,0,1-2.152,2.05c-.694.015-1.389.01-2.084,0a2.1,2.1,0,0,1-2.236-2.23c-.007-.337,0-.673,0-1.01h0m4.419-1.18h-2.345V66.6h2.345Z" transform="translate(-81.701 -50.976)"/>
      <path id="路径_34661" data-name="路径 34661" d="M121.4,208.557c1.727,0,3.454,0,5.181,0a2.18,2.18,0,0,1,2.492,2.466c0,.629.02,1.259-.006,1.888a2.07,2.07,0,0,1-2.132,2.141q-5.585.041-11.169,0a2.083,2.083,0,0,1-2.119-2.222c-.012-.674-.011-1.349,0-2.022a2.109,2.109,0,0,1,2.236-2.243c1.839-.023,3.678-.006,5.517-.007m-5.7,4.485h1.967q4.375,0,8.749,0c.267,0,.632.112.633-.366,0-.668,0-1.335,0-2.04H115.7Z" transform="translate(-93.186 -171.019)"/>
    </g>
  </g>
</svg>
