<svg xmlns="http://www.w3.org/2000/svg" xmlns:xlink="http://www.w3.org/1999/xlink" width="55" height="60.515" viewBox="0 0 55 60.515">
  <defs>
    <clipPath id="clip-path">
      <rect id="矩形_2846" data-name="矩形 2846" width="55" height="60.515" fill="none"/>
    </clipPath>
  </defs>
  <g id="组_6706" data-name="组 6706" clip-path="url(#clip-path)">
    <path id="路径_34662" data-name="路径 34662" d="M26.826,60.338c-.262-.233-.535-.455-.783-.7q-4.261-4.245-8.516-8.5c-.861-.859-.886-1.092-.236-2.031l-6.027-5.993c-1.062.625-1.166.61-2.1-.322q-4.3-4.29-8.6-8.581c-.758-.758-.756-1.169,0-1.929L16.348,16.538c.761-.759,1.083-.781,1.856-.179l6.06-6.044c-.6-.936-.576-1.1.318-1.994L32.344.574c.762-.76,1.185-.765,1.934-.018q10,9.975,20,19.947a1.689,1.689,0,0,1,.548,1.3q-.026,5.3,0,10.6a1.678,1.678,0,0,1-.556,1.3c-1.39,1.362-2.759,2.745-4.137,4.118-.755.753-1.079.775-1.862.181l-2.3,2.291c.585.883.559,1.121-.28,1.959Q36.969,50.955,28.245,59.66c-.232.231-.474.452-.711.678Z" transform="translate(0.089 0.088)"/>
    <path id="路径_34663" data-name="路径 34663" d="M26.826,60.338c-.262-.233-.535-.455-.783-.7q-4.261-4.245-8.516-8.5c-.861-.859-.886-1.092-.236-2.031l-6.027-5.993c-1.062.625-1.166.61-2.1-.322q-4.3-4.29-8.6-8.581c-.758-.758-.756-1.169,0-1.929L16.348,16.538c.761-.759,1.083-.781,1.856-.179l6.06-6.044c-.6-.936-.576-1.1.318-1.994L32.344.574c.762-.76,1.185-.765,1.934-.018q10,9.975,20,19.947a1.689,1.689,0,0,1,.548,1.3q-.026,5.3,0,10.6a1.678,1.678,0,0,1-.556,1.3c-1.39,1.362-2.759,2.745-4.137,4.118-.755.753-1.079.775-1.862.181l-2.3,2.291c.585.883.559,1.121-.28,1.959Q36.969,50.955,28.245,59.66c-.232.231-.474.452-.711.678Z" transform="translate(0.089 0.088)" fill="none" stroke="#000" stroke-miterlimit="10" stroke-width="1.5"/>
    <path id="路径_34664" data-name="路径 34664" d="M46.533,33.459c1.119-1.117,2.229-2.2,3.3-3.316a1.375,1.375,0,0,0,.354-.857q.037-4.711,0-9.422a1.347,1.347,0,0,0-.353-.858Q40.488,9.636,31.113.3C30.981.165,30.841.042,30.8,0L23.781,7c.592.785.57,1.106-.183,1.857q-3.4,3.4-6.8,6.788c-.88.878-1.041.9-2.018.3L0,30.695l7.824,7.8c.663-.569,1.079-.56,1.757.115q3.487,3.474,6.969,6.953c.78.779.8,1.1.22,1.852l7.823,7.81L41.255,38.6c-.625-.846-.6-1.143.178-1.923q1.585-1.583,3.171-3.165c.727-.724,1.088-.743,1.929-.051" transform="translate(2.704 2.613)"/>
    <path id="路径_34665" data-name="路径 34665" d="M46.533,33.459c1.119-1.117,2.229-2.2,3.3-3.316a1.375,1.375,0,0,0,.354-.857q.037-4.711,0-9.422a1.347,1.347,0,0,0-.353-.858Q40.488,9.636,31.113.3C30.981.165,30.841.042,30.8,0L23.781,7c.592.785.57,1.106-.183,1.857q-3.4,3.4-6.8,6.788c-.88.878-1.041.9-2.018.3L0,30.695l7.824,7.8c.663-.569,1.079-.56,1.757.115q3.487,3.474,6.969,6.953c.78.779.8,1.1.22,1.852l7.823,7.81L41.255,38.6c-.625-.846-.6-1.143.178-1.923q1.585-1.583,3.171-3.165C45.331,32.786,45.692,32.767,46.533,33.459Z" transform="translate(2.704 2.613)" fill="none"/>
    <path id="路径_34666" data-name="路径 34666" d="M46.533,33.459c-.841-.692-1.2-.673-1.929.051q-1.587,1.581-3.171,3.165c-.78.779-.8,1.077-.178,1.923L24.593,55.226l-7.823-7.81c.582-.749.559-1.074-.22-1.852q-3.483-3.478-6.969-6.953c-.678-.676-1.094-.685-1.756-.116L0,30.695,14.78,15.945c.977.6,1.138.578,2.018-.3q3.4-3.393,6.8-6.788c.753-.752.775-1.072.183-1.857L30.8,0c.045.042.185.165.317.3Q40.48,9.644,49.835,19.005a1.348,1.348,0,0,1,.353.858q.037,4.711,0,9.422a1.375,1.375,0,0,1-.355.857c-1.071,1.118-2.181,2.2-3.3,3.316m.642-8.1a6.266,6.266,0,0,0-2.027-4.5q-5.377-5.336-10.729-10.7a8.377,8.377,0,0,0-.833-.746,6.28,6.28,0,0,0-8.373.65c-3.464,3.428-6.9,6.882-10.352,10.326a3.07,3.07,0,0,0-.282.3.992.992,0,0,0,.062,1.292.979.979,0,0,0,1.29.11,4.1,4.1,0,0,0,.476-.439Q21.478,16.6,26.549,11.538a4.3,4.3,0,0,1,6.4-.036q5.439,5.4,10.849,10.829a4.285,4.285,0,0,1,.008,6.344Q35.759,36.723,27.7,44.751a4.3,4.3,0,0,1-6.313.009c-3.669-3.64-7.337-7.282-10.96-10.968a6.552,6.552,0,0,1-1.366-2.163A2.882,2.882,0,0,1,9.83,28.2c1.143-1.049,2.213-2.178,3.3-3.283A1,1,0,1,0,11.749,23.5c-1.258,1.243-2.513,2.49-3.75,3.753a4.1,4.1,0,0,0-1.154,2.762A6.552,6.552,0,0,0,8.9,35.1c3.708,3.739,7.42,7.475,11.183,11.157a6.239,6.239,0,0,0,8.995-.08q8.113-8.062,16.194-16.156a6.414,6.414,0,0,0,1.9-4.664M25.255,16.236a1.018,1.018,0,0,0-1.038,1.478,2.821,2.821,0,0,0,.461.531q5.485,5.48,10.975,10.956c.557.555,1.1,1.123,1.672,1.663a.991.991,0,1,0,1.415-1.387c-.077-.089-.164-.17-.247-.253Q32.252,23,26.007,16.775a4.855,4.855,0,0,0-.752-.54" transform="translate(2.703 2.614)" fill="#fff"/>
    <path id="路径_34667" data-name="路径 34667" d="M46.533,33.459c-.841-.692-1.2-.673-1.929.051q-1.587,1.581-3.171,3.165c-.78.779-.8,1.077-.178,1.923L24.593,55.226l-7.823-7.81c.582-.749.559-1.074-.22-1.852q-3.483-3.478-6.969-6.953c-.678-.676-1.094-.685-1.756-.116L0,30.695,14.78,15.945c.977.6,1.138.578,2.018-.3q3.4-3.393,6.8-6.788c.753-.752.775-1.072.183-1.857L30.8,0c.045.042.185.165.317.3Q40.48,9.644,49.835,19.005a1.348,1.348,0,0,1,.353.858q.037,4.711,0,9.422a1.375,1.375,0,0,1-.355.857C48.763,31.26,47.653,32.342,46.533,33.459Zm.642-8.1a6.266,6.266,0,0,0-2.027-4.5q-5.377-5.336-10.729-10.7a8.377,8.377,0,0,0-.833-.746,6.28,6.28,0,0,0-8.373.65c-3.464,3.428-6.9,6.882-10.352,10.326a3.07,3.07,0,0,0-.282.3.992.992,0,0,0,.062,1.292.979.979,0,0,0,1.29.11,4.1,4.1,0,0,0,.476-.439Q21.478,16.6,26.549,11.538a4.3,4.3,0,0,1,6.4-.036q5.439,5.4,10.849,10.829a4.285,4.285,0,0,1,.008,6.344Q35.759,36.723,27.7,44.751a4.3,4.3,0,0,1-6.313.009c-3.669-3.64-7.337-7.282-10.96-10.968a6.552,6.552,0,0,1-1.366-2.163A2.882,2.882,0,0,1,9.83,28.2c1.143-1.049,2.213-2.178,3.3-3.283A1,1,0,1,0,11.749,23.5c-1.258,1.243-2.513,2.49-3.75,3.753a4.1,4.1,0,0,0-1.154,2.762A6.552,6.552,0,0,0,8.9,35.1c3.708,3.739,7.42,7.475,11.183,11.157a6.239,6.239,0,0,0,8.995-.08q8.113-8.062,16.194-16.156A6.414,6.414,0,0,0,47.175,25.36ZM25.255,16.236a1.018,1.018,0,0,0-1.038,1.478,2.821,2.821,0,0,0,.461.531q5.485,5.48,10.975,10.956c.557.555,1.1,1.123,1.672,1.663a.991.991,0,1,0,1.415-1.387c-.077-.089-.164-.17-.247-.253Q32.252,23,26.007,16.775A4.855,4.855,0,0,0,25.255,16.236Z" transform="translate(2.703 2.614)" fill="none"/>
    <path id="路径_34668" data-name="路径 34668" d="M1.17,0a4.856,4.856,0,0,1,.752.54Q8.173,6.755,14.407,12.988c.083.083.17.165.247.253a.991.991,0,1,1-1.415,1.387c-.571-.54-1.116-1.107-1.672-1.663Q6.079,7.487.592,2.009a2.822,2.822,0,0,1-.461-.531A1.018,1.018,0,0,1,1.17,0" transform="translate(26.788 18.849)"/>
    <path id="路径_34669" data-name="路径 34669" d="M1.17,0a4.856,4.856,0,0,1,.752.54Q8.173,6.755,14.407,12.988c.083.083.17.165.247.253a.991.991,0,1,1-1.415,1.387c-.571-.54-1.116-1.107-1.672-1.663Q6.079,7.487.592,2.009a2.822,2.822,0,0,1-.461-.531A1.018,1.018,0,0,1,1.17,0Z" transform="translate(26.788 18.849)" fill="none" stroke="#000" stroke-miterlimit="10" stroke-width="1"/>
  </g>
</svg>
