<svg id="组_6709" data-name="组 6709" xmlns="http://www.w3.org/2000/svg" xmlns:xlink="http://www.w3.org/1999/xlink" width="73.581" height="58" viewBox="0 0 73.581 58">
  <defs>
    <clipPath id="clip-path">
      <rect id="矩形_2847" data-name="矩形 2847" width="73.581" height="58" fill="none"/>
    </clipPath>
  </defs>
  <g id="组_6708" data-name="组 6708" clip-path="url(#clip-path)">
    <path id="路径_34670" data-name="路径 34670" d="M.105,5.773A8.95,8.95,0,0,1,.813,4.028a6.651,6.651,0,0,1,6.567-4A6.518,6.518,0,0,1,13.6,4.437c1.609,4.161,3.081,8.375,4.608,12.569q4.7,12.916,9.391,25.837a1,1,0,0,0,1.038.8,20.67,20.67,0,0,1,2.629.472L20.169,13.629,57.608,0,69.757,33.37l2.352-.817,1.472,4.032c-1.743.637-3.441,1.26-5.141,1.879Q52.3,44.341,36.148,50.206a.909.909,0,0,0-.752.981,7.2,7.2,0,1,1-14.368-.9,7.6,7.6,0,0,1,2.753-4.945.646.646,0,0,0,.206-.848Q17,25.321,10.021,6.148C9.455,4.6,8.023,3.7,5.926,4.53A2.667,2.667,0,0,0,4.414,8.092c.307.875.626,1.747.971,2.709-1.348.494-2.392.959-3.813,1.48L.129,7.915A4.956,4.956,0,0,1,.105,5.773m35.8,40.769,30.8-11.21L55.5,4.53,47.983,7.265,52.444,19.54c-.33.023-.573.046-.816.056-2.082.08-4.165.237-6.245.2a4.454,4.454,0,0,0-3.12,1.134c-1.784,1.491-3.652,2.88-5.564,4.374l-4.488-12.3L24.7,15.743l11.209,30.8m10.651-30.5L44.052,9.17l-7.608,2.773,2.462,6.766c.947-.739,1.783-1.46,2.692-2.071a3.415,3.415,0,0,1,1.558-.567c1.069-.087,2.151-.026,3.4-.026M28.3,47.925a2.884,2.884,0,1,0-.185,5.765,2.884,2.884,0,1,0,.185-5.765" transform="translate(0)"/>
  </g>
</svg>
