<svg id="组_6699" data-name="组 6699" xmlns="http://www.w3.org/2000/svg" xmlns:xlink="http://www.w3.org/1999/xlink" width="39.819" height="58" viewBox="0 0 39.819 58">
  <defs>
    <clipPath id="clip-path">
      <rect id="矩形_2840" data-name="矩形 2840" width="39.819" height="58" fill="none"/>
    </clipPath>
  </defs>
  <g id="组_6698" data-name="组 6698" clip-path="url(#clip-path)">
    <path id="路径_34644" data-name="路径 34644" d="M6.205,58c-.213-.058-.426-.121-.641-.172a7.082,7.082,0,0,1-5.55-7.239Q0,39.463.013,28.337c0-4.19.03-8.38-.012-12.569A7.723,7.723,0,0,1,2.027,9.978c-.085-.1-.149-.182-.225-.256A5.6,5.6,0,0,1,.45,3.484,5.7,5.7,0,0,1,5.758,0Q19.887-.005,34.016,0A5.707,5.707,0,0,1,39.38,3.484a5.608,5.608,0,0,1-1.393,6.276c-.053.052-.1.11-.164.181.287.378.591.736.848,1.125a7.4,7.4,0,0,1,1.149,4.191q-.006,17.637,0,35.274a7.059,7.059,0,0,1-6.051,7.383.5.5,0,0,0-.14.085ZM3.5,43.892H36.334V21.943H3.5Zm-.016,3.484c-.01.162-.024.274-.023.385.006,1.151-.023,2.3.03,3.453A3.435,3.435,0,0,0,6.6,54.489c1.9.118,3.809.085,5.714.087q10.024.012,20.048,0c2.065,0,3.685-1.128,3.911-2.955a35,35,0,0,0,.034-4.248ZM36.342,18.45c0-1.346.031-2.629-.017-3.909a3.167,3.167,0,0,0-.37-1.288,3.693,3.693,0,0,0-3.588-2.006q-7.984.007-15.968,0c-3,0-6-.008-9,0C5.4,11.259,3.859,12.3,3.59,14.109a29.971,29.971,0,0,0-.042,4.341ZM19.9,7.823H33.662c.189,0,.378,0,.566,0a2.169,2.169,0,0,0,2.13-2.3,2.24,2.24,0,0,0-2.531-2.089q-13.9,0-27.8,0a4.283,4.283,0,0,0-.9.085A2.147,2.147,0,0,0,3.474,5.492,2.176,2.176,0,0,0,5.806,7.82q7.049.01,14.1,0" transform="translate(0 0)"/>
    <rect id="矩形_2839" data-name="矩形 2839" width="32.833" height="21.949" transform="translate(3.501 21.943)" fill="#fff"/>
    <path id="路径_34645" data-name="路径 34645" d="M24.413,333.983H57.237a35,35,0,0,1-.034,4.248c-.226,1.826-1.846,2.954-3.911,2.955q-10.024,0-20.048,0c-1.905,0-3.815.031-5.714-.087a3.435,3.435,0,0,1-3.111-3.276c-.053-1.149-.024-2.3-.03-3.453,0-.111.013-.223.023-.385" transform="translate(-20.927 -286.608)" fill="#fff"/>
    <path id="路径_34646" data-name="路径 34646" d="M57.428,86.492H24.634a29.971,29.971,0,0,1,.042-4.341c.269-1.811,1.811-2.85,3.806-2.857,3-.01,6,0,9,0q7.984,0,15.968,0A3.693,3.693,0,0,1,57.041,81.3a3.17,3.17,0,0,1,.37,1.288c.048,1.28.017,2.563.017,3.909" transform="translate(-21.085 -68.042)" fill="#fff"/>
    <path id="路径_34647" data-name="路径 34647" d="M40.9,28.544q-7.049,0-14.1,0a2.176,2.176,0,0,1-2.333-2.328,2.147,2.147,0,0,1,1.655-1.979,4.293,4.293,0,0,1,.9-.085q13.9-.006,27.8,0a2.24,2.24,0,0,1,2.531,2.089,2.169,2.169,0,0,1-2.13,2.3c-.188.008-.377,0-.566,0H40.9" transform="translate(-20.997 -20.721)" fill="#fff"/>
  </g>
</svg>
