<svg xmlns="http://www.w3.org/2000/svg" xmlns:xlink="http://www.w3.org/1999/xlink" width="56.37" height="57.626" viewBox="0 0 56.37 57.626">
  <defs>
    <clipPath id="clip-path">
      <rect id="矩形_2705" data-name="矩形 2705" width="56.37" height="57.626" fill="none"/>
    </clipPath>
  </defs>
  <g id="组_6435" data-name="组 6435" clip-path="url(#clip-path)">
    <path id="路径_34385" data-name="路径 34385" d="M29.312,51.937a2.22,2.22,0,0,1-1.276.158q-12.552.012-25.1.006C.689,52.1,0,51.413,0,49.175q0-8.982.005-17.963Q.005,17.16,0,3.107C0,.636.627.018,3.112.018,11.071.017,19.03.036,26.988,0A5.22,5.22,0,0,1,30.8,1.495q5.665,5.292,11.426,10.483a4.106,4.106,0,0,1,1.441,3.236q-.008,6.078.057,12.157c.007.706-.112.936-.921.849-1.786-.192-1.79-.123-1.789-1.888,0-3.307-.033-6.615.022-9.92.016-.952-.2-1.283-1.218-1.26-3.234.071-6.471.029-9.706.025-2.1,0-2.752-.648-2.754-2.711,0-2.938-.026-5.877.015-8.814.011-.783-.231-1.009-1.009-1.007q-11.38.038-22.76,0c-.821,0-.975.291-.971,1.031q.058,13.274.063,26.549c0,5.912-.037,11.823-.047,17.735,0,1.675-.19,1.515,1.466,1.516,7.475,0,14.951.028,22.426-.025,1.114-.008,1.836.22,2.165,1.342a6.667,6.667,0,0,0,.607,1.15M30,4.381c0,2.77,0,5.2,0,7.633,0,.665.5.527.877.529,1.892.011,3.785.006,5.677.006h2.026l.121-.339a5.648,5.648,0,0,1-.631-.439c-2.6-2.374-5.2-4.755-8.07-7.39" transform="translate(0 -0.001)"/>
    <path id="路径_34386" data-name="路径 34386" d="M140.864,160.341a14.054,14.054,0,1,1-.109-28.108,14.054,14.054,0,0,1,.109,28.108M129.394,146.3a11.4,11.4,0,1,0,11.47-11.365,11.385,11.385,0,0,0-11.47,11.365" transform="translate(-98.459 -102.716)"/>
    <path id="路径_34387" data-name="路径 34387" d="M33.9,117.471q4.892,0,9.784,0c4.594-.006,9.188,0,13.782-.045.849-.009,1.092.31,1.065,1.224,0,.927.053,1.377-1.01,1.426-4.859-.062-9.72-.029-14.58-.014q-5.225.016-10.449.09c-.669.01-.9-.2-.905-.887-.016-1.811-.05-1.811,2.313-1.792" transform="translate(-24.536 -91.213)"/>
    <path id="路径_34388" data-name="路径 34388" d="M45.187,84q-6.229,0-12.459,0c-.682,0-.9-.231-.94-.98-.011-1.633-.214-1.684,1.633-1.687q12.036-.02,24.072.006c.4,0,1.017.026,1.144.617,0,.728.04.847,0,1.589-.16.381-.727.394-1.079.4q-6.185.017-12.37.007V84" transform="translate(-24.69 -63.144)"/>
    <path id="路径_34389" data-name="路径 34389" d="M54.617,153.436c-.519.871-.921,1.493-1.266,2.145a.88.88,0,0,1-.908.479q-9.929-.01-19.858,0c-.615,0-.787-.2-.83-.821-.009-.452-.009-.319,0-.779-.035-.771.268-1.047,1.067-1.042,4.946.031,9.892.015,14.838.014h6.959" transform="translate(-24.645 -119.175)"/>
    <path id="路径_34390" data-name="路径 34390" d="M41.629,192.015c-2.934,0-5.869-.054-8.8.027-1.173.032-.987-.652-.993-1.341s-.154-1.343,1-1.332q8.912.085,17.825,0c1.3-.013.93.778.981,1.451.056.73.048,1.245-.992,1.22-3.006-.072-6.015-.026-9.024-.025" transform="translate(-24.722 -147.097)"/>
    <path id="路径_34391" data-name="路径 34391" d="M39.935,45.7c-2.378,0-4.757-.028-7.135.016-.758.014-1.022-.26-1.011-.979-.011-1.557-.17-1.66,1.648-1.667,4.5-.019,8.994.031,13.49-.033,1.078-.015,1.125.483,1.072,1.277-.047.708.225,1.471-1.041,1.415-2.337-.1-4.681-.029-7.023-.029" transform="translate(-24.691 -33.432)"/>
    <path id="路径_34392" data-name="路径 34392" d="M167.908,166.918a1.944,1.944,0,0,1-.643,1.435c-2.89,3.144-5.767,6.3-8.668,9.431a1.836,1.836,0,0,1-3.055-.01q-2.263-2.458-4.474-4.964a1.9,1.9,0,0,1-.075-2.779c.831-.78,1.906-.662,2.826.334.856.927,1.73,1.843,2.522,2.824.536.663.855.745,1.478.041,2.214-2.5,4.494-4.946,6.771-7.392a1.811,1.811,0,0,1,2.826-.178,1.741,1.741,0,0,1,.492,1.258" transform="translate(-116.845 -128.217)"/>
  </g>
</svg>
