<svg xmlns="http://www.w3.org/2000/svg" xmlns:xlink="http://www.w3.org/1999/xlink" width="65.538" height="65.022" viewBox="0 0 65.538 65.022">
  <defs>
    <clipPath id="clip-path">
      <rect id="矩形_2816" data-name="矩形 2816" width="65.538" height="65.022" fill="none"/>
    </clipPath>
  </defs>
  <g id="组_6638" data-name="组 6638" clip-path="url(#clip-path)">
    <path id="路径_34598" data-name="路径 34598" d="M34.26,147.1a21.2,21.2,0,0,1-9.04-2.622,52.518,52.518,0,0,1-23.1-23.17A18.341,18.341,0,0,1,0,113.464a4.527,4.527,0,0,1,.938-3.056,21.757,21.757,0,0,1,3.209-3.3,4.242,4.242,0,0,1,6.008.075,15.229,15.229,0,0,1,4.1,5.566,3.55,3.55,0,0,1-.33,3.633,29.291,29.291,0,0,1-2.152,2.582,2.233,2.233,0,0,0-.441,2.389,10.285,10.285,0,0,0,1.786,3.1,55.659,55.659,0,0,0,10.244,9.891,10.664,10.664,0,0,0,3.252,1.748,2.291,2.291,0,0,0,2.729-.719,1.049,1.049,0,0,1,.078-.081c3.116-3.253,4.813-3.433,8.583-.889a13.568,13.568,0,0,1,3.3,2.863,3.945,3.945,0,0,1,.273,4.905,16.8,16.8,0,0,1-3.814,4.094,5.341,5.341,0,0,1-3.5.833" transform="translate(0 -82.081)"/>
    <path id="路径_34599" data-name="路径 34599" d="M107.959,40.248c.479-2.593.869-5.025,1.4-7.427a4.046,4.046,0,0,0-.627-3.23c-4.073-6.7-4.28-13.582-.266-20.319,2.943-4.939,7.657-7.566,13.2-8.758a21,21,0,0,1,23.6,11.1c3.137,6.256,2.688,12.41-.976,18.3-4.61,7.406-13.119,10.139-21.224,8.249a23.181,23.181,0,0,1-4.1-1.163,2.581,2.581,0,0,0-2.037.2c-2.923,1.018-5.857,2-8.968,3.058m4.2-4.286c2.1-.51,3.778-1.617,5.652-2.226a1.565,1.565,0,0,1,1.173-.14,29.1,29.1,0,0,0,5.863,1.5c5.664.917,10.639-.217,14.826-4.4a15.268,15.268,0,0,0,2.869-17.252c-5.433-10.978-17.5-12.1-25.326-7.921-5.894,3.146-8.694,8.172-8.247,14.875a16.526,16.526,0,0,0,3.608,8.941,2.443,2.443,0,0,1,.511,2.282c-.357,1.366-.6,2.763-.928,4.341" transform="translate(-81.817 -0.001)"/>
    <path id="路径_34600" data-name="路径 34600" d="M144.588,73.227a3.013,3.013,0,0,1,3.172-3.165,3.151,3.151,0,0,1,3.166,3.114,3.314,3.314,0,0,1-3.17,3.273,3.15,3.15,0,0,1-3.167-3.223" transform="translate(-112.065 -54.303)"/>
    <path id="路径_34601" data-name="路径 34601" d="M184.7,73.176a3.014,3.014,0,0,1,3.218-3.118,3.139,3.139,0,0,1,3.119,3.158,3.312,3.312,0,0,1-3.215,3.231,3.172,3.172,0,0,1-3.123-3.272" transform="translate(-143.158 -54.299)"/>
    <path id="路径_34602" data-name="路径 34602" d="M230.745,73.257a3.165,3.165,0,0,1-3.085,3.2,3.323,3.323,0,0,1-3.272-3.3,3.168,3.168,0,0,1,3.2-3.088,3.023,3.023,0,0,1,3.156,3.188" transform="translate(-173.915 -54.308)"/>
  </g>
</svg>
