<svg xmlns="http://www.w3.org/2000/svg" xmlns:xlink="http://www.w3.org/1999/xlink" width="32.591" height="36.926" viewBox="0 0 32.591 36.926">
  <defs>
    <clipPath id="clip-path">
      <rect id="矩形_2573" data-name="矩形 2573" width="32.591" height="36.926"/>
    </clipPath>
  </defs>
  <g id="组_6088" data-name="组 6088" clip-path="url(#clip-path)">
    <path id="路径_30812" data-name="路径 30812" d="M13.712.6a2.055,2.055,0,1,0,2.906,0,2.056,2.056,0,0,0-2.906,0" transform="translate(-1.037 0)"/>
    <path id="路径_30813" data-name="路径 30813" d="M19.651,6.541a2.055,2.055,0,1,0,2.906,0,2.054,2.054,0,0,0-2.906,0" transform="translate(-1.507 -0.469)"/>
    <path id="路径_30814" data-name="路径 30814" d="M25.59,12.48a2.055,2.055,0,1,0,2.905,0,2.054,2.054,0,0,0-2.905,0" transform="translate(-1.977 -0.939)"/>
    <path id="路径_30815" data-name="路径 30815" d="M31.53,18.42a2.055,2.055,0,1,0,2.905,0,2.054,2.054,0,0,0-2.905,0" transform="translate(-2.447 -1.409)"/>
    <path id="路径_30816" data-name="路径 30816" d="M13.712,39.144a2.055,2.055,0,1,1,2.906,0,2.056,2.056,0,0,1-2.906,0" transform="translate(-1.037 -2.819)"/>
    <path id="路径_30817" data-name="路径 30817" d="M19.651,33.2a2.055,2.055,0,1,1,2.906,0,2.054,2.054,0,0,1-2.906,0" transform="translate(-1.507 -2.349)"/>
    <path id="路径_30818" data-name="路径 30818" d="M25.59,27.265a2.054,2.054,0,1,1,2.905,0,2.053,2.053,0,0,1-2.905,0" transform="translate(-1.977 -1.879)"/>
    <path id="路径_30819" data-name="路径 30819" d="M31.53,21.326a2.055,2.055,0,1,1,2.905,0,2.054,2.054,0,0,1-2.905,0" transform="translate(-2.447 -1.409)"/>
    <path id="路径_30820" data-name="路径 30820" d="M.6.6A2.055,2.055,0,1,0,3.508.6,2.056,2.056,0,0,0,.6.6" transform="translate(0 0)"/>
    <path id="路径_30821" data-name="路径 30821" d="M6.541,6.541a2.055,2.055,0,1,0,2.906,0,2.056,2.056,0,0,0-2.906,0" transform="translate(-0.47 -0.469)"/>
    <path id="路径_30822" data-name="路径 30822" d="M12.48,12.48a2.055,2.055,0,1,0,2.906,0,2.054,2.054,0,0,0-2.906,0" transform="translate(-0.94 -0.939)"/>
    <path id="路径_30823" data-name="路径 30823" d="M18.42,18.42a2.055,2.055,0,1,0,2.905,0,2.054,2.054,0,0,0-2.905,0" transform="translate(-1.41 -1.409)"/>
    <path id="路径_30824" data-name="路径 30824" d="M.6,39.144a2.055,2.055,0,1,1,2.906,0,2.056,2.056,0,0,1-2.906,0" transform="translate(0 -2.819)"/>
    <path id="路径_30825" data-name="路径 30825" d="M6.541,33.2a2.055,2.055,0,1,1,2.906,0,2.056,2.056,0,0,1-2.906,0" transform="translate(-0.47 -2.349)"/>
    <path id="路径_30826" data-name="路径 30826" d="M12.48,27.265a2.055,2.055,0,1,1,2.906,0,2.053,2.053,0,0,1-2.906,0" transform="translate(-0.94 -1.879)"/>
    <path id="路径_30827" data-name="路径 30827" d="M18.42,21.326a2.055,2.055,0,1,1,2.905,0,2.054,2.054,0,0,1-2.905,0" transform="translate(-1.41 -1.409)"/>
  </g>
</svg>
