<svg id="组_6489" data-name="组 6489" xmlns="http://www.w3.org/2000/svg" xmlns:xlink="http://www.w3.org/1999/xlink" width="76.02" height="101.376" viewBox="0 0 76.02 101.376">
  <defs>
    <clipPath id="clip-path">
      <rect id="矩形_2727" data-name="矩形 2727" width="76.02" height="101.376" fill="none"/>
    </clipPath>
  </defs>
  <g id="组_6488" data-name="组 6488" clip-path="url(#clip-path)">
    <path id="路径_34410" data-name="路径 34410" d="M62.747,40.964a5.562,5.562,0,0,1-1.691,3.718Q47.637,58.118,34.188,71.525A5.753,5.753,0,0,1,25.95,71.5q-4.464-4.341-8.8-8.808a5.959,5.959,0,0,1,.154-8.463Q30.3,41.273,43.291,28.323c3.252-3.239,6.455-3.232,9.7.012q3.956,3.951,7.9,7.91a6.1,6.1,0,0,1,1.849,4.72M60,40.512a3.293,3.293,0,0,0-1.216-2.5q-4.009-3.988-8-7.991c-1.856-1.852-3.415-1.879-5.259-.04Q35.9,39.579,26.29,49.188c-.551.548-.685.857-.055,1.478Q32.162,56.5,38,62.428c.593.6.907.568,1.476-.02Q43.5,58.257,47.6,54.185q5.7-5.694,11.428-11.356A3.057,3.057,0,0,0,60,40.512M30.184,70.456a2.722,2.722,0,0,0,2.015-.823c1.363-1.328,2.687-2.7,4.06-4.014.464-.446.364-.727-.042-1.131Q30.192,58.5,24.2,52.468c-.446-.45-.68-.426-1.1,0-1.275,1.3-2.62,2.523-3.881,3.83a3.033,3.033,0,0,0,.024,4.612c2.822,2.861,5.675,5.691,8.515,8.532a3.076,3.076,0,0,0,2.421,1.016" transform="translate(-0.314 -0.527)"/>
    <path id="路径_34411" data-name="路径 34411" d="M62.747,40.964a5.562,5.562,0,0,1-1.691,3.718Q47.637,58.118,34.188,71.525A5.753,5.753,0,0,1,25.95,71.5q-4.464-4.341-8.8-8.808a5.959,5.959,0,0,1,.154-8.463Q30.3,41.273,43.291,28.323c3.252-3.239,6.455-3.232,9.7.012q3.956,3.951,7.9,7.91A6.1,6.1,0,0,1,62.747,40.964ZM60,40.512a3.293,3.293,0,0,0-1.216-2.5q-4.009-3.988-8-7.991c-1.856-1.852-3.415-1.879-5.259-.04Q35.9,39.579,26.29,49.188c-.551.548-.685.857-.055,1.478Q32.162,56.5,38,62.428c.593.6.907.568,1.476-.02Q43.5,58.257,47.6,54.185q5.7-5.694,11.428-11.356A3.057,3.057,0,0,0,60,40.512ZM30.184,70.456a2.722,2.722,0,0,0,2.015-.823c1.363-1.328,2.687-2.7,4.06-4.014.464-.446.364-.727-.042-1.131Q30.192,58.5,24.2,52.468c-.446-.45-.68-.426-1.1,0-1.275,1.3-2.62,2.523-3.881,3.83a3.033,3.033,0,0,0,.024,4.612c2.822,2.861,5.675,5.691,8.515,8.532A3.076,3.076,0,0,0,30.184,70.456Z" transform="translate(-0.314 -0.527)" fill="none" stroke="#000" stroke-miterlimit="10" stroke-width="1"/>
    <rect id="矩形_2726" data-name="矩形 2726" width="72.101" height="97.457" rx="9.402" transform="translate(1.959 1.959)" fill="none" stroke="#000" stroke-miterlimit="10" stroke-width="4"/>
    <path id="路径_34412" data-name="路径 34412" d="M17.992,12.646a4.708,4.708,0,1,1-4.707-4.707A4.707,4.707,0,0,1,17.992,12.646Z" transform="translate(-0.174 -0.161)" fill="none" stroke="#000" stroke-miterlimit="10" stroke-width="3"/>
    <path id="路径_34413" data-name="路径 34413" d="M69.655,12.646a4.708,4.708,0,1,1-4.707-4.707A4.707,4.707,0,0,1,69.655,12.646Z" transform="translate(-1.225 -0.161)" fill="none" stroke="#000" stroke-miterlimit="10" stroke-width="3"/>
    <path id="路径_34414" data-name="路径 34414" d="M69.655,90.731a4.708,4.708,0,1,1-4.707-4.707A4.707,4.707,0,0,1,69.655,90.731Z" transform="translate(-1.225 -1.749)" fill="none" stroke="#000" stroke-miterlimit="10" stroke-width="3"/>
    <path id="路径_34415" data-name="路径 34415" d="M17.992,90.731a4.708,4.708,0,1,1-4.707-4.707A4.707,4.707,0,0,1,17.992,90.731Z" transform="translate(-0.174 -1.749)" fill="none" stroke="#000" stroke-miterlimit="10" stroke-width="3"/>
  </g>
</svg>
