<svg id="组_6493" data-name="组 6493" xmlns="http://www.w3.org/2000/svg" xmlns:xlink="http://www.w3.org/1999/xlink" width="77.937" height="109.933" viewBox="0 0 77.937 109.933">
  <defs>
    <clipPath id="clip-path">
      <rect id="矩形_2730" data-name="矩形 2730" width="77.937" height="109.933" fill="#f5f5f5"/>
    </clipPath>
  </defs>
  <g id="组_6492" data-name="组 6492" clip-path="url(#clip-path)">
    <path id="路径_34421" data-name="路径 34421" d="M68.041,61.434l8.406-39.1a8.351,8.351,0,0,0-6.408-9.92L22.463,2.188A8.351,8.351,0,0,0,12.543,8.6L4.254,47.147l27.072-.322L44.207,64Z" transform="translate(-0.476 -0.224)" fill="#f5f5f5" stroke="#000" stroke-miterlimit="10" stroke-width="4"/>
    <path id="路径_34422" data-name="路径 34422" d="M27.987,13.943a4.268,4.268,0,1,1-3.275-5.069A4.267,4.267,0,0,1,27.987,13.943Z" transform="translate(-2.187 -0.982)" fill="#f5f5f5" stroke="#000" stroke-miterlimit="10" stroke-width="3"/>
    <path id="路径_34423" data-name="路径 34423" d="M78.5,24.8a4.268,4.268,0,1,1-3.275-5.069A4.267,4.267,0,0,1,78.5,24.8Z" transform="translate(-7.837 -2.197)" fill="#f5f5f5" stroke="#000" stroke-miterlimit="10" stroke-width="3"/>
    <path id="路径_34424" data-name="路径 34424" d="M67.365,74.587v32.848a8.351,8.351,0,0,1-8.35,8.35H10.35A8.35,8.35,0,0,1,2,107.435V74.029L28.4,68.19,44.6,83.079Z" transform="translate(-0.224 -7.628)" fill="#f5f5f5" stroke="#000" stroke-miterlimit="10" stroke-width="4"/>
    <path id="路径_34425" data-name="路径 34425" d="M68.775,110.377a4.268,4.268,0,1,1-4.267-4.267A4.267,4.267,0,0,1,68.775,110.377Z" transform="translate(-6.739 -11.87)" fill="#f5f5f5" stroke="#000" stroke-miterlimit="10" stroke-width="3"/>
    <path id="路径_34426" data-name="路径 34426" d="M17.112,110.377a4.268,4.268,0,1,1-4.267-4.267A4.267,4.267,0,0,1,17.112,110.377Z" transform="translate(-0.959 -11.87)" fill="#f5f5f5" stroke="#000" stroke-miterlimit="10" stroke-width="3"/>
  </g>
</svg>
