<svg id="组_6491" data-name="组 6491" xmlns="http://www.w3.org/2000/svg" xmlns:xlink="http://www.w3.org/1999/xlink" width="72" height="96.014" viewBox="0 0 72 96.014">
  <defs>
    <clipPath id="clip-path">
      <rect id="矩形_2729" data-name="矩形 2729" width="72" height="96.014" fill="#fff2f2"/>
    </clipPath>
  </defs>
  <g id="组_6490" data-name="组 6490" clip-path="url(#clip-path)">
    <rect id="矩形_2728" data-name="矩形 2728" width="68.288" height="92.303" rx="9.402" transform="translate(1.856 1.856)" fill="#f5f5f5" stroke="#000" stroke-miterlimit="10" stroke-width="4"/>
    <path id="路径_34416" data-name="路径 34416" d="M17.494,12.4a4.459,4.459,0,1,1-4.458-4.458A4.458,4.458,0,0,1,17.494,12.4Z" transform="translate(-0.619 -0.573)" fill="#f5f5f5" stroke="#000" stroke-miterlimit="10" stroke-width="3"/>
    <path id="路径_34417" data-name="路径 34417" d="M69.157,12.4A4.459,4.459,0,1,1,64.7,7.939,4.458,4.458,0,0,1,69.157,12.4Z" transform="translate(-4.346 -0.573)" fill="#f5f5f5" stroke="#000" stroke-miterlimit="10" stroke-width="3"/>
    <path id="路径_34418" data-name="路径 34418" d="M69.157,90.482A4.459,4.459,0,1,1,64.7,86.024,4.458,4.458,0,0,1,69.157,90.482Z" transform="translate(-4.346 -6.206)" fill="#f5f5f5" stroke="#000" stroke-miterlimit="10" stroke-width="3"/>
    <path id="路径_34419" data-name="路径 34419" d="M17.494,90.482a4.459,4.459,0,1,1-4.458-4.458A4.458,4.458,0,0,1,17.494,90.482Z" transform="translate(-0.619 -6.206)" fill="#f5f5f5" stroke="#000" stroke-miterlimit="10" stroke-width="3"/>
    <path id="路径_34420" data-name="路径 34420" d="M26.317,58.662q1.623-4.969,3.247-9.937c1.1-3.358,2.189-6.718,3.308-10.068.176-.528.129-.67-.475-.66-2.275.038-4.552.015-6.993.015L41.92,11.062l.109.051-2.11,6.421q-2.231,6.787-4.47,13.571c-.174.525-.161.73.493.72,2.08-.031,4.162.007,6.243.008.39,0,.616.011.323.487-1.3,2.111-2.576,4.237-3.865,6.354q-6,9.858-12.012,19.714c-.068.112-.147.219-.22.329l-.093-.057" transform="translate(2.638 11.562)" fill="#282828"/>
  </g>
</svg>
