<svg xmlns="http://www.w3.org/2000/svg" width="24.201" height="31" viewBox="0 0 24.201 31">
  <path id="路径_34697" data-name="路径 34697" d="M24.2,12.279A11.948,11.948,0,0,1,22.956,17.3,32.058,32.058,0,0,1,19.812,22.6c-.829,1.148-1.736,2.232-2.652,3.311-1.264,1.488-2.635,2.873-4.014,4.25-.263.263-.562.489-.837.74a.281.281,0,0,1-.443-.012c-1.514-1.377-2.925-2.855-4.3-4.373a45.435,45.435,0,0,1-3.538-4.435,25.622,25.622,0,0,1-2.082-3.363,18.619,18.619,0,0,1-1.774-4.8A11.179,11.179,0,0,1,.918,7.561,12.42,12.42,0,0,1,3.277,3.855,11.791,11.791,0,0,1,7.673.869,11.667,11.667,0,0,1,14.105.175a12.71,12.71,0,0,1,5.213,2.252,12.4,12.4,0,0,1,3.836,4.7,10.547,10.547,0,0,1,.99,4,9.988,9.988,0,0,1,.053,1.147m-4.666-.155a7.5,7.5,0,0,0-7.211-7.439,7.584,7.584,0,0,0-7.7,7.587,7.57,7.57,0,0,0,7.323,7.358,7.435,7.435,0,0,0,7.587-7.506" transform="translate(0 0)" fill="#fff"/>
</svg>
