<svg xmlns="http://www.w3.org/2000/svg" xmlns:xlink="http://www.w3.org/1999/xlink" width="60" height="48.361" viewBox="0 0 60 48.361">
  <defs>
    <clipPath id="clip-path">
      <rect id="矩形_2580" data-name="矩形 2580" width="60" height="48.361" fill="none"/>
    </clipPath>
  </defs>
  <g id="组_6110" data-name="组 6110" clip-path="url(#clip-path)">
    <path id="路径_30831" data-name="路径 30831" d="M29.943,48.359q-9.6,0-19.2,0C4.483,48.35.044,43.961.013,37.723c-.023-4.654,0-9.308,0-13.961,0-4.312-.021-8.624,0-12.936C.033,4.4,4.418.01,10.809.006q19.259-.012,38.518,0a10.277,10.277,0,0,1,10.65,10.586c.04,5.557.013,11.115.013,16.673,0,3.482.014,6.964-.01,10.447A10.283,10.283,0,0,1,49.264,48.358q-9.661.007-19.321,0m.18-43.143q-9.652,0-19.3-.005a5.977,5.977,0,0,0-2.661.521C6.41,6.574,6.375,6.8,7.777,8.042c.218.193.437.383.656.574,5.416,4.707,11,9.239,16.186,14.187C27.883,25.916,32,26.064,35.148,23c.979-.955,2.026-1.841,3.05-2.747q7.18-6.357,14.375-12.694c.7-.615.7-.971-.084-1.456a6.073,6.073,0,0,0-3.311-.891c-6.352.016-12.7.007-19.055.007M50.7,42.971c-.1-.21-.125-.344-.205-.415q-7.212-6.414-14.435-12.815a1.08,1.08,0,0,0-1.34-.179,11.631,11.631,0,0,1-9.543.064,1.436,1.436,0,0,0-1.758.272C18.931,33.915,14.408,37.887,9.9,41.878a2.151,2.151,0,0,0-.867,1.093Zm4.06-30.358C53.078,14.1,51.688,15.331,50.3,16.56c-3.138,2.77-6.263,5.555-9.424,8.3-.849.737-1.006,1.234-.028,2.068,2.62,2.231,5.136,4.583,7.7,6.875q2.647,2.364,5.324,4.7c.177.155.435.377.611.342.367-.074.243-.466.264-.734.03-.372.014-.747.014-1.12l0-18.3V12.614M5.49,13a2.094,2.094,0,0,0-.245,1.461c.013,4.521.06,9.041.064,13.562,0,3.234-.046,6.468-.064,9.7,0,.277-.118.656.149.806.368.207.581-.2.811-.4q6.914-6.125,13.841-12.286L5.49,13" transform="translate(0 0)" fill="#fff"/>
  </g>
</svg>
