<svg xmlns="http://www.w3.org/2000/svg" xmlns:xlink="http://www.w3.org/1999/xlink" width="65" height="64.993" viewBox="0 0 65 64.993">
  <defs>
    <clipPath id="clip-path">
      <rect id="矩形_2669" data-name="矩形 2669" width="65" height="64.993" fill="none"/>
    </clipPath>
  </defs>
  <g id="组_6370" data-name="组 6370" transform="translate(0 0)">
    <g id="组_6369" data-name="组 6369" transform="translate(0 0.001)" clip-path="url(#clip-path)">
      <path id="路径_34360" data-name="路径 34360" d="M.007,32.466c0-6.159.011-12.318-.007-18.481A14.147,14.147,0,0,1,1.03,8.427,13.638,13.638,0,0,1,12.954.012C13.19,0,13.426,0,13.663,0Q32.495,0,51.327,0a13.582,13.582,0,0,1,11.72,6.606,13.255,13.255,0,0,1,1.946,6.927q.006,18.965,0,37.93a13.155,13.155,0,0,1-3.12,8.585,13.409,13.409,0,0,1-7.791,4.678,12.886,12.886,0,0,1-2.7.266q-18.876-.006-37.753,0A13.642,13.642,0,0,1,.27,54.082,13.323,13.323,0,0,1,0,51.239q.006-9.388,0-18.773M32.5,59.577H51.138a11.9,11.9,0,0,0,1.739-.114,7.654,7.654,0,0,0,4.989-2.869,8.055,8.055,0,0,0,1.713-5.243V13.955a12.484,12.484,0,0,0-.114-1.857,7.669,7.669,0,0,0-2.84-4.944,8.023,8.023,0,0,0-5.262-1.735H13.936a11.658,11.658,0,0,0-1.828.114A7.659,7.659,0,0,0,7.164,8.365a8.068,8.068,0,0,0-1.743,5.291V51.113a11.826,11.826,0,0,0,.114,1.769A7.642,7.642,0,0,0,8.39,57.849a8.011,8.011,0,0,0,5.232,1.728H32.5" transform="translate(0 0.001)" fill="#fff"/>
      <path id="路径_34361" data-name="路径 34361" d="M24.25,3.363a25.469,25.469,0,0,1,11.3,2.5,19.32,19.32,0,0,1,8.29,7.322,14.622,14.622,0,0,1,2.112,6.259A14.1,14.1,0,0,1,43.721,28.6a26.356,26.356,0,0,1-4.642,5.358,76.619,76.619,0,0,1-11.521,8.46A27.562,27.562,0,0,1,24.726,44a4.281,4.281,0,0,1-1.119.369c-.757.122-1.163-.262-1.06-1.019.074-.524.166-1.049.251-1.573a8.434,8.434,0,0,0,.162-2.134,1.3,1.3,0,0,0-.742-1.123,6.067,6.067,0,0,0-1.861-.528,24.2,24.2,0,0,1-6.883-2.12,20.237,20.237,0,0,1-6.266-4.594,15.533,15.533,0,0,1-4.025-8.005A14.305,14.305,0,0,1,4.868,13.7,18.7,18.7,0,0,1,12.12,6.568a24.081,24.081,0,0,1,8.692-2.936c1.23-.174,2.463-.229,3.438-.27M24.4,20.212c.126.03.162.14.225.222q.726.986,1.451,1.976,1.307,1.784,2.618,3.567a1.161,1.161,0,0,0,1.019.546,1.083,1.083,0,0,0,1.03-1.174c0-1.739,0-3.482,0-5.225,0-1.082.007-2.164,0-3.246a1.036,1.036,0,0,0-.838-1.034A1.059,1.059,0,0,0,28.585,16.9c-.011,1.662,0,3.327-.007,4.989,0,.081.044.2-.059.236s-.133-.092-.181-.159q-1.257-1.7-2.5-3.4c-.565-.768-1.119-1.547-1.7-2.3a1.087,1.087,0,0,0-1.868.207,1.622,1.622,0,0,0-.114.661c0,2.718,0,5.432,0,8.149a1.95,1.95,0,0,0,0,.207A1.082,1.082,0,0,0,23.445,26.5a1.094,1.094,0,0,0,.912-1.2c0-1.584,0-3.168,0-4.752,0-.111-.037-.233.041-.343m7.946.953c0,1.4,0,2.8,0,4.191a1.07,1.07,0,0,0,1.111,1.185c1.407.026,2.814.022,4.217,0a1.066,1.066,0,0,0,1.093-.96,1.081,1.081,0,0,0-1.115-1.233q-1.4-.011-2.8,0c-.258,0-.347-.089-.34-.343.015-.45,0-.9,0-1.355,0-.384.015-.4.4-.4.942,0,1.887,0,2.832-.011a1.029,1.029,0,0,0,1.023-1.041,1.047,1.047,0,0,0-1.1-1.115q-1.4-.017-2.8,0c-.27,0-.362-.092-.354-.362.018-.45.022-.9,0-1.355-.015-.3.1-.388.391-.384.923.015,1.846.011,2.773,0a1.063,1.063,0,0,0,1.1-1.071A1.1,1.1,0,0,0,37.547,15.8c-1.318-.011-2.636-.015-3.955,0a1.113,1.113,0,0,0-1.241,1.27q-.006,2.049,0,4.1m-21.609,0h0c0,1.37,0,2.736,0,4.1a1.117,1.117,0,0,0,1.241,1.274c1.318.011,2.636.007,3.955,0a1.26,1.26,0,0,0,.783-.214,1.1,1.1,0,0,0,.421-1.2,1.076,1.076,0,0,0-1.041-.775c-.934-.011-1.868-.015-2.8,0-.3,0-.4-.085-.391-.384.015-1.23.007-2.459.007-3.689,0-1.123,0-2.245,0-3.368a1.082,1.082,0,1,0-2.164.007c-.011,1.418,0,2.836,0,4.25m7.562-.011h0v1.207c0,1.034,0,2.068.007,3.1a1.052,1.052,0,0,0,.838,1.038,1.07,1.07,0,0,0,1.322-1.086c.007-1.85,0-3.7,0-5.546,0-.982,0-1.968,0-2.95a1.08,1.08,0,1,0-2.16-.007c-.011,1.414,0,2.832,0,4.246" transform="translate(8.005 9.053)" fill="#fff"/>
    </g>
  </g>
</svg>
