<svg xmlns="http://www.w3.org/2000/svg" xmlns:xlink="http://www.w3.org/1999/xlink" width="63.947" height="41.003" viewBox="0 0 63.947 41.003">
  <defs>
    <clipPath id="clip-path">
      <rect id="矩形_2704" data-name="矩形 2704" width="63.947" height="41.003" fill="none"/>
    </clipPath>
  </defs>
  <g id="组_6434" data-name="组 6434" transform="translate(0 2)">
    <g id="组_6433" data-name="组 6433" transform="translate(0 -2)" clip-path="url(#clip-path)">
      <path id="路径_34381" data-name="路径 34381" d="M23.682,0Q34.5,0,45.313,0c1.669,0,1.9.226,1.9,1.869,0,1.188.035,2.378-.01,3.564-.028.709.243.935.955.919,2.008-.045,4.019,0,6.026-.065a2.074,2.074,0,0,1,2.036,1.045c2.374,3.707,4.8,7.385,7.213,11.065a2.619,2.619,0,0,1,.5,1.494q-.011,6.439.018,12.877c0,1.016-.5,1.471-1.522,1.459-1.064-.012-2.129.026-3.191-.014-.682-.026-.939.157-.992.884a6.405,6.405,0,0,1-12.771,0c-.058-.71-.27-.891-.968-.89q-12,.029-23.995,0c-.747,0-.991.2-1.052.954A6.245,6.245,0,0,1,13.076,41,6.278,6.278,0,0,1,6.689,35.15c-.053-.766-.3-.967-1.038-.94-1.338.049-2.679.027-4.018.01C.36,34.2.006,33.872.006,32.647Q-.005,17.126,0,1.606C.006.281.306,0,1.7,0Q12.69-.005,23.682,0m0,2.249q-10.1,0-20.206-.006c-.673,0-1.181-.05-1.177.91q.054,13.96.013,27.92c0,.682.177.963.923.922A26.756,26.756,0,0,1,6.3,32a1.559,1.559,0,0,0,1.52-.786,6.457,6.457,0,0,1,10.527.012A1.63,1.63,0,0,0,19.871,32q12.584-.039,25.168,0a1.728,1.728,0,0,0,1.608-.836,6.336,6.336,0,0,1,9.9-.575,3.846,3.846,0,0,0,3.346,1.455c.57-.007.633,0,.987,0,.8-.032.779-.311.773-.976-.025-3.175-.031-6.351,0-9.526.008-.743-.293-.89-.979-.886-4.56.02-9.121-.005-13.682.011-1.876.007-2.14-.231-2.131-2.1.024-5.018.011-10.037.083-15.054.014-1-.242-1.291-1.3-1.284-6.656.049-13.313.025-19.969.025M60.438,18.358a2.551,2.551,0,0,0-.149-.489c-1.924-2.978-3.858-5.951-5.776-8.933a.915.915,0,0,0-.905-.387c-1.81.007-3.621.024-5.431,0-.683-.01-.983.18-.974.9.032,2.641.017,5.283,0,7.925,0,.684.168,1.012,1,1,4.043-.044,8.088-.02,12.238-.02M8.972,34.752a4.122,4.122,0,1,0,4.151-3.99,4.061,4.061,0,0,0-4.151,3.99m42.882,4a4,4,0,1,0-.033-8,4,4,0,1,0,.033,8" transform="translate(0 0.001)"/>
      <path id="路径_34382" data-name="路径 34382" d="M56.3,81.142c-1.414,0-2.831.054-4.242-.012a3.319,3.319,0,0,1-2.9-4.959,31.818,31.818,0,0,1,1.93-3.276c.419-.624.921-.962,1.665-.558A1.05,1.05,0,0,1,53.145,74q-.807,1.331-1.656,2.638a1.624,1.624,0,0,0-.205,1.831c.355.565,1.032.475,1.612.477,2.581.007,5.162-.01,7.743,0,.731,0,1.247.347,1.219,1.1s-.518,1.151-1.32,1.148c-1.412-.005-2.825,0-4.237,0,0-.013,0-.026,0-.04" transform="translate(-37.213 -55.562)"/>
      <path id="路径_34383" data-name="路径 34383" d="M76.616,22.146a3.357,3.357,0,0,1,2.64,1.44c.8,1.135,1.557,2.3,2.326,3.459.442.665.513,1.32-.271,1.78-.742.436-1.261.044-1.667-.565-.664-1-1.318-2-2-2.984-.824-1.2-1.641-1.2-2.428,0q-1.737,2.668-3.425,5.365c-.454.727-.993,1.311-1.883.763-.83-.511-.556-1.221-.116-1.9,1.194-1.847,2.359-3.712,3.549-5.561a3.662,3.662,0,0,1,3.27-1.8" transform="translate(-52.972 -17.052)"/>
      <path id="路径_34384" data-name="路径 34384" d="M123.494,76.393c-.354,0-.711-.025-1.062.005-.758.066-1.413-.107-1.463-.939-.055-.91.53-1.273,1.443-1.236.628.026,1.26-.006,1.889-.041,1.218-.067,1.706-.816,1.141-1.857-.789-1.455-1.643-2.876-2.486-4.3-.422-.714-.582-1.418.287-1.871.8-.419,1.32.072,1.71.738.817,1.395,1.552,2.847,2.494,4.158a3.428,3.428,0,0,1-3.126,5.358,6.649,6.649,0,0,0-.827,0v-.008" transform="translate(-92.362 -50.815)"/>
    </g>
  </g>
</svg>
