<svg xmlns="http://www.w3.org/2000/svg" xmlns:xlink="http://www.w3.org/1999/xlink" width="57.333" height="61.507" viewBox="0 0 57.333 61.507">
  <defs>
    <clipPath id="clip-path">
      <rect id="矩形_2701" data-name="矩形 2701" width="57.333" height="61.507" fill="none"/>
    </clipPath>
  </defs>
  <g id="组_6428" data-name="组 6428" transform="translate(-3.108 -3.334)">
    <g id="组_6427" data-name="组 6427" transform="translate(3.108 3.334)" clip-path="url(#clip-path)">
      <path id="路径_34365" data-name="路径 34365" d="M57.314,30.839c0,5.633-.018,11.265.017,16.9a1.826,1.826,0,0,1-1.237,1.95q-13.156,5.736-26.28,11.545a2.5,2.5,0,0,1-2.2.04Q14.436,55.44,1.228,49.682A1.826,1.826,0,0,1,.01,47.719c.035-5.483.018-10.966.017-16.448C.026,25.485.047,19.7,0,13.914a1.969,1.969,0,0,1,1.384-2.09Q14.423,6.112,27.42.307A2.716,2.716,0,0,1,29.838.263Q42.89,6.087,55.977,11.833a1.968,1.968,0,0,1,1.356,2.108c-.044,5.633-.02,11.266-.019,16.9M27.59,42.123h0c0-5.2-.02-10.4.02-15.6a1.4,1.4,0,0,0-1.015-1.53Q14.9,20.123,3.234,15.176c-.951-.4-1.082-.153-1.07.755q.083,6.943.078,13.888,0,8.448-.08,16.9a1.346,1.346,0,0,0,.96,1.461q11.721,5.1,23.406,10.288c.9.4,1.086.244,1.08-.712-.035-5.21-.017-10.421-.017-15.632M29.745,57.6c0,1.3.009,1.3,1.235.764,7.7-3.382,15.389-6.784,23.105-10.126a1.551,1.551,0,0,0,1.089-1.721C55.115,40.66,55.1,34.8,55.1,28.943q0-6.6.068-13.2c.007-.761-.147-.972-.91-.626-1.51.686-3.038,1.339-4.592,1.914a1.5,1.5,0,0,0-1.151,1.683c.057,4.589.03,9.18.02,13.77,0,1.4-.614,1.812-1.912,1.293-.931-.372-1.876-.726-2.766-1.183-.709-.364-1.071-.188-1.48.454-1.079,1.689-2.234,3.33-3.356,4.992a1.121,1.121,0,0,1-1.269.581,1.025,1.025,0,0,1-.784-1.131c-.033-1.921-.1-3.841-.1-5.762,0-2.767.052-5.535.1-8.3.013-.734-.164-.988-.934-.645-1.833.815-3.685,1.586-5.548,2.331a1.01,1.01,0,0,0-.747,1.118c.053,1.54.071,3.082.074,4.623M44.58,16.88c-.614-.294-.918-.449-1.229-.588C36.137,13.082,28.91,9.9,21.72,6.636a3.4,3.4,0,0,0-3.332-.018c-1.612.854-3.325,1.518-5.167,2.341.364.206.514.311.678.382q11.74,5.023,23.484,10.037a1.156,1.156,0,0,0,.991.117c1.97-.846,3.951-1.668,6.206-2.614M3.9,13.08c.56.267.887.439,1.226.582C11.548,16.368,18.059,18.9,24.37,21.85c3.057,1.431,5.6,1.141,8.7.006.937-.407,1.652-.666,2.293-1a4.124,4.124,0,0,0-.669-.3q-11.8-5.045-23.6-10.087a1.223,1.223,0,0,0-1-.134C8.1,11.208,6.112,12.1,3.9,13.08m49.674.073a6.517,6.517,0,0,0-.664-.306Q41.115,7.622,29.325,2.4a1.164,1.164,0,0,0-.993-.147c-1.783.79-3.565,1.583-5.316,2.361.047.356.25.4.423.473Q35.115,10.281,46.79,15.478a1.125,1.125,0,0,0,.989.068c1.8-.778,3.455-1.419,5.444-2.257m-14.15,20.06.337.163c.667-1.007,1.368-1.994,1.99-3.029a1.124,1.124,0,0,1,1.632-.541c.806.365,1.626.7,2.434,1.058.561.249.841.168.843-.533q.011-5.549.076-11.1c.009-.754-.237-.849-.885-.568q-2.863,1.244-5.755,2.417a.972.972,0,0,0-.681,1.048c.018,3.694.009,7.389.009,11.083" transform="translate(0 0)"/>
      <path id="路径_34366" data-name="路径 34366" d="M53.316,113.277c0,.848.018,1.7,0,2.545-.031,1.2-.511,1.6-1.6,1.183-2.154-.826-4.275-1.737-6.4-2.624a12.485,12.485,0,0,0-1.9-.827,1.673,1.673,0,0,1-1.418-2.017c.076-1.578.073-3.158.132-4.737.041-1.089.61-1.558,1.567-1.176,3.034,1.21,6.043,2.484,9.058,3.741a1.1,1.1,0,0,1,.629,1.14q0,1.387,0,2.774h-.063m-9.127-3.4c.169.631-.428,1.6.65,1.935,1.514.468,2.88,1.268,4.344,1.847,2,.791,1.929.815,2.013-1.279a1.551,1.551,0,0,0-1.2-1.752c-1.617-.617-3.219-1.292-4.767-2.062-.92-.457-1.072-.127-1.039.682.008.192,0,.385,0,.63" transform="translate(-32.259 -81.05)"/>
    </g>
  </g>
</svg>
