<svg id="组_6430" data-name="组 6430" xmlns="http://www.w3.org/2000/svg" xmlns:xlink="http://www.w3.org/1999/xlink" width="53.463" height="58.402" viewBox="0 0 53.463 58.402">
  <defs>
    <clipPath id="clip-path">
      <rect id="矩形_2702" data-name="矩形 2702" width="53.463" height="58.402" fill="none"/>
    </clipPath>
  </defs>
  <g id="组_6429" data-name="组 6429" clip-path="url(#clip-path)">
    <path id="路径_34367" data-name="路径 34367" d="M42.71,20.163c-.007-5.022,0-10.9-.006-15.924,0-1.513-.36-1.878-1.857-1.879-9.133,0-18.266.011-27.4-.02-.834,0-1.024.254-1,1.039.052,2.084.026,4.17.014,6.255a2.688,2.688,0,0,1-2.9,2.928q-3.215.039-6.431,0c-.6-.009-.8.155-.8.782q.025,20.571.016,41.142c0,1.118.438,1.571,1.536,1.572q18.633.01,37.267,0c1.121,0,1.551-.477,1.552-1.657.005-4.258.071-8.518-.036-12.774a3.652,3.652,0,0,1,1.467-3.4c.251-.182.386-.519.75-.573.239.254.129.561.129.835q.013,8.017.006,16.034a3.615,3.615,0,0,1-3.843,3.88q-18.633.013-37.267,0A3.61,3.61,0,0,1,.018,54.479c-.015-6.607,0-13.215,0-19.822Q.013,23.486,0,12.316a1.875,1.875,0,0,1,.595-1.469Q5.758,5.731,10.871.565A1.775,1.775,0,0,1,12.261,0Q26.578.021,40.894.013c2.719,0,4.124,1.412,4.125,4.126,0,4.288-.021,8.575.019,12.863a2.535,2.535,0,0,1-.843,2.073" transform="translate(0 0)"/>
    <path id="路径_34368" data-name="路径 34368" d="M178.117,155.234c-.123-.1-.238-.183-.337-.282-1.5-1.492-2.98-3-4.492-4.472-.336-.328-.222-.5.047-.771q6.262-6.244,12.5-12.507c.335-.336.531-.3.844.016,1.415,1.444,2.826,2.893,4.293,4.282.523.5.2.714-.12,1.034Q185.377,148,179.9,153.479q-.716.716-1.433,1.431c-.1.1-.212.195-.354.325" transform="translate(-142.583 -112.83)"/>
    <path id="路径_34369" data-name="路径 34369" d="M63.48,156.087c-4.1,0-8.2.006-12.3,0-.892,0-1.362-.415-1.38-1.128-.018-.694.464-1.158,1.361-1.169,2.081-.024,4.163,0,6.245.005q4.444,0,8.888,0c3.2,0,6.4-.012,9.6-.011.82,0,1.354.423,1.371,1.055a1.222,1.222,0,0,1-1.384,1.249c-3.723.01-7.445,0-11.168,0h-1.23v0" transform="translate(-41.025 -126.68)"/>
    <path id="路径_34370" data-name="路径 34370" d="M63.8,105.25q5.942,0,11.884,0a5.732,5.732,0,0,1,.878.035,1.138,1.138,0,0,1,.091,2.233,3.565,3.565,0,0,1-.873.057q-11.929,0-23.857,0a4.769,4.769,0,0,1-.7-.014,1.1,1.1,0,0,1-1.049-1.192,1.066,1.066,0,0,1,1.041-1.1,6.57,6.57,0,0,1,.791-.02H63.8" transform="translate(-41.327 -86.703)"/>
    <path id="路径_34371" data-name="路径 34371" d="M59.462,202.386c2.638,0,5.276,0,7.914,0a1.18,1.18,0,0,1,1.245.776,1.074,1.074,0,0,1-.3,1.2,1.291,1.291,0,0,1-.966.343c-5.305,0-10.611,0-15.916-.008-.841,0-1.358-.5-1.3-1.214.067-.786.558-1.1,1.316-1.1q4,.009,8,0" transform="translate(-41.304 -166.722)"/>
    <path id="路径_34372" data-name="路径 34372" d="M264.241,114.177a2.032,2.032,0,0,1-.591,1.251c-.795.816-1.618,1.606-2.4,2.435-.309.328-.494.254-.771-.026q-2.16-2.188-4.352-4.344c-.309-.3-.384-.5-.026-.839.813-.759,1.563-1.585,2.379-2.341a1.855,1.855,0,0,1,2.857.081c.772.76,1.532,1.532,2.3,2.294a1.845,1.845,0,0,1,.6,1.49" transform="translate(-210.779 -90.353)"/>
    <path id="路径_34373" data-name="路径 34373" d="M144.426,227.994c.807-2.553,1.549-4.925,2.309-7.291.189-.587.751-.882,1.141-1.311.25-.274.414.014.564.163,1.476,1.468,2.94,2.948,4.424,4.408.3.295.294.479,0,.778a4.233,4.233,0,0,1-1.887,1.2c-2.135.617-4.244,1.322-6.551,2.051" transform="translate(-118.977 -180.64)"/>
    <path id="路径_34374" data-name="路径 34374" d="M115.774,59c-2.374,0-4.749.005-7.123,0-.946,0-1.453-.415-1.454-1.138s.51-1.168,1.436-1.169q7.211-.008,14.421,0c.921,0,1.458.439,1.465,1.151S123.995,59,123.072,59c-2.433.007-4.866,0-7.3,0" transform="translate(-88.308 -46.698)"/>
    <path id="路径_34375" data-name="路径 34375" d="M57.582,253.109c-1.993,0-3.986,0-5.979,0-.962,0-1.459-.386-1.48-1.113-.023-.76.51-1.2,1.495-1.2q6.023-.007,12.045,0c.9,0,1.454.464,1.451,1.173s-.54,1.141-1.465,1.144c-2.022.007-4.044,0-6.067,0" transform="translate(-41.29 -206.597)"/>
  </g>
</svg>
