<svg xmlns="http://www.w3.org/2000/svg" xmlns:xlink="http://www.w3.org/1999/xlink" width="64.44" height="57.546" viewBox="0 0 64.44 57.546">
  <defs>
    <clipPath id="clip-path">
      <rect id="矩形_2700" data-name="矩形 2700" width="64.44" height="57.546" fill="none"/>
    </clipPath>
  </defs>
  <g id="组_7010" data-name="组 7010" transform="translate(-0.592 -1.421)">
    <g id="组_6425" data-name="组 6425" transform="translate(0.592 1.421)" clip-path="url(#clip-path)">
      <path id="路径_34364" data-name="路径 34364" d="M9.2,40.072c-.079-.27-.348-.306-.543-.419C5.985,38.113,3.311,36.566.615,35.06a1.255,1.255,0,0,1-.592-1.449A.579.579,0,0,1,.616,33.1a2.318,2.318,0,0,1,1.025.188,11.823,11.823,0,0,0,9.858-.772c6.852-3.561,10.96-9.423,13.487-16.529A46.846,46.846,0,0,0,27.6,1.422C27.633.1,28.12-.24,29.4.154a5.521,5.521,0,0,1,1.174.582q11.4,6.746,22.795,13.489c.507.3,1.06.521,1.58.8.944.5,1.041.816.987,1.876q-.164,3.252-.492,6.49c-.041.4.241.477.472.617q3.74,2.263,7.484,4.517A1.642,1.642,0,0,1,64.09,31.1,37.778,37.778,0,0,1,58.042,39.5c-7.424,7.918-16.021,14.123-26.324,17.782A4.178,4.178,0,0,1,27.63,56.6a24.716,24.716,0,0,0-2.481-1.478Q14.209,48.836,3.266,42.551a3.491,3.491,0,0,1-1.132-.883.615.615,0,0,1,.221-1.032,3.228,3.228,0,0,1,.738-.27c1.276-.312,2.569-.568,3.829-.934a1.809,1.809,0,0,1,1.586.314,1.274,1.274,0,0,0,.7.315c.009.21.354.158.329.429L5.682,41.733c.212.142.3.206.389.26q11.608,6.779,23.214,13.563a1.213,1.213,0,0,0,1,.109,33.032,33.032,0,0,0,5.187-1.87A65.376,65.376,0,0,0,54.108,40.723a43.671,43.671,0,0,0,7.95-10c.36-.644.279-.908-.373-1.242-.389-.2-.781-.4-1.156-.621Q58.1,27.4,55.69,25.932c-.347-.213-.479-.242-.565.244a35.207,35.207,0,0,1-4.482,12.2c-3.513,5.8-8.273,10.131-14.816,12.256A11.533,11.533,0,0,1,25.9,49.613C20.574,46.441,15.169,43.4,9.8,40.3c-.182-.1-.342-.288-.591-.232M5.959,35.885c.412.24.637.373.863.5,6.7,3.825,13.422,7.6,20.08,11.5a10.328,10.328,0,0,0,7.642,1.191,19.462,19.462,0,0,0,9.909-5.771,31.229,31.229,0,0,0,7.062-11.8,42.125,42.125,0,0,0,2.489-14.237.93.93,0,0,0-.541-.929Q41.724,9.654,30.006,2.933c-.509-.292-.635-.23-.663.355a46.389,46.389,0,0,1-1.067,7.874A39.007,39.007,0,0,1,22.9,24.705,26.545,26.545,0,0,1,13.493,33.6a18.939,18.939,0,0,1-7.534,2.29" transform="translate(0 -0.001)"/>
    </g>
  </g>
</svg>
