<svg id="组_6449" data-name="组 6449" xmlns="http://www.w3.org/2000/svg" xmlns:xlink="http://www.w3.org/1999/xlink" width="44.569" height="74.341" viewBox="0 0 44.569 74.341">
  <defs>
    <clipPath id="clip-path">
      <rect id="矩形_2712" data-name="矩形 2712" width="44.569" height="74.342" fill="none"/>
    </clipPath>
  </defs>
  <g id="组_6448" data-name="组 6448" clip-path="url(#clip-path)">
    <path id="路径_34409" data-name="路径 34409" d="M44.565,37.17q0,13.633,0,27.266a9.856,9.856,0,0,1-8.336,9.742,14.045,14.045,0,0,1-2.173.153q-10.774.008-21.548,0A22.141,22.141,0,0,1,7.7,74.07,9.965,9.965,0,0,1,.072,65.587,12.342,12.342,0,0,1,0,64.244Q0,37.117,0,9.991A9.924,9.924,0,0,1,7.954.183,9.613,9.613,0,0,1,9.938.011q11.634,0,23.268,0A13.925,13.925,0,0,1,37.077.3a9.756,9.756,0,0,1,7.29,7.627,9.736,9.736,0,0,1,.2,2.259q0,13.493,0,26.987ZM4.916,35.9h.01q0,11.544-.008,23.087c0,.381.136.5.483.484.418-.014.836-.008,1.254-.008q16.21,0,32.419.013c.426,0,.593-.1.591-.57-.018-3.778-.01-7.556-.01-11.335q0-17.373.006-34.747c0-.375-.106-.461-.473-.461q-16.186.013-32.373,0c-.511,0-1.022.013-1.532,0-.259-.006-.359.085-.353.35.011.449-.012.9-.012,1.347q0,10.917,0,21.833M17.33,66.844a4.963,4.963,0,1,0,9.926.062,4.963,4.963,0,1,0-9.926-.062m4.947-61.9v-.01q-1.808,0-3.616,0a1.251,1.251,0,1,0-.042,2.5c2.349.013,4.7.009,7.047,0a2.781,2.781,0,0,0,.821-.112,1.16,1.16,0,0,0,.744-1.3,1.192,1.192,0,0,0-1.2-1.075c-1.252-.017-2.5,0-3.756,0" transform="translate(0 0)" fill="#fff"/>
  </g>
</svg>
