<svg xmlns="http://www.w3.org/2000/svg" xmlns:xlink="http://www.w3.org/1999/xlink" width="98.525" height="84.765" viewBox="0 0 98.525 84.765">
  <defs>
    <clipPath id="clip-path">
      <rect id="矩形_2991" data-name="矩形 2991" width="98.525" height="84.765" fill="none"/>
    </clipPath>
  </defs>
  <g id="组_7330" data-name="组 7330" clip-path="url(#clip-path)">
    <path id="路径_34850" data-name="路径 34850" d="M13.627,71.99a11.931,11.931,0,0,1-.511-2.47h9.4v-2.1H12.848q.026-.577.047-1.177V63.96a1.152,1.152,0,0,0-1.153-1.155H10.588v3.439q-.023.575-.071,1.177H.826v2.1H10.3A16.67,16.67,0,0,1,0,82.349l1.58,1.685A20.182,20.182,0,0,0,11.343,73.9c.113-.322.235-.652.364-.991q1.819,5.494,8.4,10.336.6.438,1.359.969L23.39,82.7q-7.8-4.8-9.763-10.707" transform="translate(0 0.247)" fill="#004974"/>
    <path id="路径_34851" data-name="路径 34851" d="M41.463,82.365a3.264,3.264,0,0,1,.24-.461c.213-.432.374-.792.487-1.085H45.4c.162,0,.244-.075.244-.23V76.8c0-.138-.082-.207-.244-.207H27.521c-.145,0-.218.069-.218.207v3.786c0,.155.073.23.218.23H30.63c.112.249.274.553.487.924.1.2.192.407.291.622H24.826V84H48.068V82.365ZM29.1,79.273c-.063-.016-.087-.047-.073-.093v-.968c-.014-.047.01-.069.073-.069h14.72c.065,0,.1.022.1.069v.968c0,.046-.032.077-.1.093ZM39.35,82.365H33.471c-.338-.739-.591-1.253-.753-1.546h7.433c-.259.509-.526,1.023-.8,1.546" transform="translate(0.097 0.301)" fill="#004974"/>
    <rect id="矩形_2989" data-name="矩形 2989" width="22.173" height="1.546" transform="translate(25.507 74.404)" fill="#004974"/>
    <rect id="矩形_2990" data-name="矩形 2990" width="16.346" height="1.546" transform="translate(56.549 69.514)" fill="#004974"/>
    <path id="路径_34852" data-name="路径 34852" d="M71.948,78.32l-1.137-1.5a25.987,25.987,0,0,1-3.476,2.352,7.59,7.59,0,0,1-1.166-2.584h4.883a.246.246,0,0,0,.268-.253v-4.2c0-.156-.09-.233-.268-.233H57.886c-.162,0-.24.077-.24.233v4.2a.229.229,0,0,0,.24.253h2.82a18.3,18.3,0,0,1-3.278,2.562.1.1,0,0,0-.1.044q-.9.44-1.893.81L56.5,81.644a20.534,20.534,0,0,0,3.617-2.053v2.676q-1.553.16-2.865.3l.413,1.869a39.607,39.607,0,0,0,7.869-1.2l-.462-1.868a25.672,25.672,0,0,1-2.937.6V77.814c.29-.369.623-.776.993-1.224H64.2q1.042,5.495,7.555,7.892l1.383-1.662a13.8,13.8,0,0,1-4.469-2.237,24.757,24.757,0,0,0,3.278-2.263M59.635,75.046c-.063-.017-.09-.047-.072-.093V73.521c-.018-.045.009-.069.072-.069H69.3c.066,0,.1.024.1.069v1.432c0,.046-.031.076-.1.093Z" transform="translate(0.218 0.282)" fill="#004974"/>
    <path id="路径_34853" data-name="路径 34853" d="M56.089,76.6a18.766,18.766,0,0,1-1.944,1.269v-5.03h1.944V70.926H54.145V65.364H55.99V63.45H50.138v1.914h2.088v5.562H50.138v1.914h2.088v6.022q-1.044.438-2.427.993l1.213,1.686A35.381,35.381,0,0,0,57.351,78.1Z" transform="translate(0.196 0.249)" fill="#004974"/>
    <path id="路径_34854" data-name="路径 34854" d="M57.492,68.135H72.015a.244.244,0,0,0,.267-.255V63.311c0-.153-.088-.23-.267-.23H57.492c-.163,0-.242.077-.242.23V67.88a.233.233,0,0,0,.242.255m10.32-3.508h2.453c.065,0,.1.023.1.069v1.8c0,.046-.033.077-.1.092H67.812Zm-4.274,0h2.55v1.96h-2.55Zm-4.371.069c-.016-.046.007-.069.071-.069h2.575v1.961H59.239c-.064-.015-.087-.046-.071-.092Z" transform="translate(0.225 0.248)" fill="#004974"/>
    <path id="路径_34855" data-name="路径 34855" d="M90.948,75.1H97.7V73.1H90.22V70.95h6c.208,0,.313-.1.313-.3V63.313c0-.185-.105-.278-.313-.278H82.375c-.2,0-.291.093-.291.278V70.65a.261.261,0,0,0,.291.3h5.73V73.1H80.771V75.1h6.459a22.949,22.949,0,0,1-7.067,5.676l1.58,1.685a23.9,23.9,0,0,0,6.361-5.422v7.2H90.22V77.179a29.843,29.843,0,0,0,6.192,5.355l1.8-1.525A22.651,22.651,0,0,1,90.948,75.1m-6.656-6.161c-.062,0-.1-.037-.1-.113V65.136a.086.086,0,0,1,.1-.093H94.3a.113.113,0,0,1,.12.093v3.692c0,.06-.04.1-.12.113Z" transform="translate(0.315 0.247)" fill="#004974"/>
    <path id="路径_34856" data-name="路径 34856" d="M78.994,62.506a22.617,22.617,0,0,1-4.175,9.9l2.016.806c.259-.337.525-.716.8-1.13v12.16h2.113V67.768a39.053,39.053,0,0,0,1.335-4.938Z" transform="translate(0.294 0.245)" fill="#004974"/>
    <path id="路径_34857" data-name="路径 34857" d="M26.52,73.122H46.388q.8,0,.8-.762V63.7a.958.958,0,0,0-.959-.959h-.96v8.537c0,.2-.1.3-.315.3H42.332V70.4h1.945V68.945H42.332v-1.13h1.945V66.362H42.332V65.139h2.04V63.684h-2.04v-.475a.863.863,0,0,0-.861-.863h-.864v1.338H38.324v1.455h2.282v1.223H38.324v1.453h2.282v1.13H38.324V70.4h2.282v1.178H37.279V63.4a.957.957,0,0,0-.959-.959h-.958v9.137H32.324V70.4h2.043V68.945H32.324V67.723h1.946V66.269H32.324v-1.13h1.946V63.684H32.324V63.3a.862.862,0,0,0-.86-.861H30.6v1.245H28.414v1.455H30.6v1.13H28.512v1.454H30.6v1.222H28.414V70.4H30.6v1.178H27.954a.261.261,0,0,1-.291-.3V63.7a.96.96,0,0,0-.961-.959h-.958V72.36a.68.68,0,0,0,.776.762" transform="translate(0.101 0.245)" fill="#004974"/>
    <path id="路径_34858" data-name="路径 34858" d="M50.931,0A25.894,25.894,0,0,0,35.207,5.3a.283.283,0,0,1-.029,0l-1.66-.2a3.438,3.438,0,0,0-.415-.024,4.55,4.55,0,0,0-3.517,1.779L20.2,19.005a.788.788,0,0,0-.128.715,1.447,1.447,0,0,1-.234,1.307l-1.3,1.69a5.13,5.13,0,0,0-.625,5.329L23.37,39.956a.79.79,0,0,0,.718.461.762.762,0,0,0,.3-.061l2.765-1.147c.179-.073,1.122-.345,1.352-.046A26,26,0,1,0,50.931,0" transform="translate(0.068 0)" fill="#fff"/>
    <path id="路径_34859" data-name="路径 34859" d="M19.045,27.608a4.254,4.254,0,0,1,.525-4.432L22,20c.1-.107.2-.211.294-.312.17-.182.31-.329.44-.456a4.887,4.887,0,0,1,.748-.509,1.874,1.874,0,0,1,.493-.051,4.82,4.82,0,0,1,.521.033l1.427.172A25.955,25.955,0,0,0,27.934,38l-3.469,1.441Z" transform="translate(0.073 0.073)" fill="#099660"/>
    <path id="路径_34860" data-name="路径 34860" d="M30.707,38.117a21.508,21.508,0,0,1-1.995-1.142,24.521,24.521,0,0,1-2.6-10.111,17.5,17.5,0,0,0,3.725,1.591,63.4,63.4,0,0,0,.87,9.662" transform="translate(0.103 0.105)" fill="#099660"/>
    <path id="路径_34861" data-name="路径 34861" d="M36.692,34.887c-.573-.036-1.148-.074-1.721-.116-.129-1.646-.213-3.331-.253-5.013.315.071.634.141.963.208a32,32,0,0,0,1.011,4.921" transform="translate(0.136 0.117)" fill="#099660"/>
    <path id="路径_34862" data-name="路径 34862" d="M39.316,41.224a44.961,44.961,0,0,1-5.837-1.875c-.5-.2-.989-.419-1.47-.637,1.809.3,3.7.538,5.756.741.228.014.453.027.672.036.282.6.578,1.185.879,1.736" transform="translate(0.126 0.152)" fill="#099660"/>
    <path id="路径_34863" data-name="路径 34863" d="M35.595,29.393c-.287-.06-.565-.122-.841-.185l-.045-.009c-.046-2.621.019-5.263.191-7.858.284-.02.57-.035.854-.051a32.333,32.333,0,0,0-.337,4.63c0,1.11.058,2.25.179,3.473" transform="translate(0.136 0.083)" fill="#099660"/>
    <path id="路径_34864" data-name="路径 34864" d="M29.829,27.861a14.594,14.594,0,0,1-3.724-1.652c0-.039-.005-.082-.01-.124s-.008-.106-.008-.156a24.679,24.679,0,0,1,.988-6.914l3.279.387a65.12,65.12,0,0,0-.525,8.46" transform="translate(0.102 0.075)" fill="#099660"/>
    <path id="路径_34865" data-name="路径 34865" d="M53.157,50.459c2.6-1.006,5.351-3.476,7.637-6.889.323-.472.653-.995,1.025-1.642A40.02,40.02,0,0,0,72.3,37.943,24.589,24.589,0,0,1,53.157,50.459" transform="translate(0.209 0.149)" fill="#099660"/>
    <path id="路径_34866" data-name="路径 34866" d="M71.769,27.845c0-.555,0-1.134-.017-1.767l0-.082-.081,0c-1.766-.054-3.605-.1-5.621-.141a32.821,32.821,0,0,0-.345-4.61c2.293.169,4.346.374,6.269.627l.109.014-.012-.109c-.14-1.28-.325-2.546-.551-3.765l-.01-.056-.058-.012c-1.516-.321-3.105-.6-4.845-.838a34.164,34.164,0,0,0,6.041-2.519,24.8,24.8,0,0,1,2.765,11.361c0,.049,0,.1-.009.156s-.005.085-.006.125a14.369,14.369,0,0,1-3.625,1.617" transform="translate(0.258 0.057)" fill="#099660"/>
    <path id="路径_34867" data-name="路径 34867" d="M65.3,16.979l-.391-.048-.107-.014a31.224,31.224,0,0,0-4-8.635c-2.287-3.413-5.034-5.882-7.64-6.889A24.592,24.592,0,0,1,72.408,14.111,36.9,36.9,0,0,1,65.3,16.979" transform="translate(0.209 0.005)" fill="#099660"/>
    <path id="路径_34868" data-name="路径 34868" d="M41.1,3.746l-.173-.435a24.45,24.45,0,0,1,7.407-1.92,15.959,15.959,0,0,0-6.2,4.945Z" transform="translate(0.161 0.005)" fill="#099660"/>
    <path id="路径_34869" data-name="路径 34869" d="M36.95,5.572c.559-.37,1.123-.723,1.681-1.05l-.154,1.291Z" transform="translate(0.145 0.018)" fill="#099660"/>
    <path id="路径_34870" data-name="路径 34870" d="M62.17,41.27a31.926,31.926,0,0,0,3.564-10.833c2.312-.074,4.194-.154,5.915-.245l.077,0,0-.078c.025-.56.041-1.127.046-1.689A17.209,17.209,0,0,0,75.4,26.862a24.5,24.5,0,0,1-2.6,10.113,29.323,29.323,0,0,1-4.791,2.42A44.746,44.746,0,0,1,62.17,41.27" transform="translate(0.244 0.105)" fill="#099660"/>
    <path id="路径_34871" data-name="路径 34871" d="M48.377,50.459A24.6,24.6,0,0,1,29.236,37.943a40.089,40.089,0,0,0,10.48,3.985c.266.462.62,1.058,1.023,1.644,2.284,3.411,5.034,5.88,7.638,6.887" transform="translate(0.115 0.149)" fill="#099660"/>
    <path id="路径_34872" data-name="路径 34872" d="M54.846,42.517c.358-1.31.681-2.691.958-4.117q-.032.7-.072,1.409l0,.1.094,0c1.931-.088,3.842-.219,5.683-.388l.07-.006.006-.07c.313-2.8.509-5.69.6-8.825l.678-.107c.764-.018,1.536-.039,2.311-.062a31.836,31.836,0,0,1-3.742,11.005,48.573,48.573,0,0,1-6.581,1.07" transform="translate(0.215 0.119)" fill="#099660"/>
    <path id="路径_34873" data-name="路径 34873" d="M51.7,50.257c1.046-1.311,2.165-4.327,2.885-6.794.015-.059.033-.119.05-.181s.04-.137.057-.206a51.125,51.125,0,0,0,6.342-.979c-.2.341-.429.695-.718,1.123C57.7,47.134,54.5,49.744,51.7,50.257" transform="translate(0.203 0.165)" fill="#099660"/>
    <path id="路径_34874" data-name="路径 34874" d="M50.757,19.055c-1.068,0-2.188-.036-3.325-.107l-.023-.022a.582.582,0,0,0-.052-.045,9.564,9.564,0,0,0-1.809-1.09c1.241-9.909,4.381-16.317,5.193-16.317.857,0,3.822,6.2,5.107,15.548.031.59.057,1.187.08,1.784-1.758.166-3.5.25-5.171.25" transform="translate(0.179 0.006)" fill="#099660"/>
    <path id="路径_34875" data-name="路径 34875" d="M65.48,25.816q-1.652-.03-3.3-.054c-.028-1.641-.088-3.249-.175-4.779,1.105.058,2.127.12,3.116.191a32.078,32.078,0,0,1,.36,4.642" transform="translate(0.243 0.082)" fill="#099660"/>
    <path id="路径_34876" data-name="路径 34876" d="M64.163,16.847c-2.359-.26-4.936-.451-7.868-.585a62.21,62.21,0,0,0-1.71-7.891C53.864,5.9,52.745,2.89,51.7,1.577c2.8.515,6,3.125,8.618,7.037a30.5,30.5,0,0,1,3.846,8.233" transform="translate(0.203 0.006)" fill="#099660"/>
    <path id="路径_34877" data-name="路径 34877" d="M50.735,50.358c-.522,0-2.013-2.576-3.363-7.238,1.018.073,2.125.109,3.379.109s2.343-.036,3.362-.109c-1.351,4.662-2.852,7.238-3.378,7.238" transform="translate(0.186 0.169)" fill="#099660"/>
    <path id="路径_34878" data-name="路径 34878" d="M43.874,30.632a75.151,75.151,0,0,1-7.684-1.118,32.6,32.6,0,0,1-.2-3.6c0-1.019.053-2.07.158-3.127l2.192.265,1.224-1.681c2.935.681,4.621,3.137,4.63,6.752a9.341,9.341,0,0,1-.321,2.5" transform="translate(0.141 0.084)" fill="#099660"/>
    <path id="路径_34879" data-name="路径 34879" d="M46.644,42.488a48.628,48.628,0,0,1-6.583-1.07c-.359-.634-.695-1.278-1-1.915h.09a13.163,13.163,0,0,0,6.455-1.509c.291,1.539.637,3.05,1.035,4.495" transform="translate(0.153 0.149)" fill="#099660"/>
    <path id="路径_34880" data-name="路径 34880" d="M37.9,34.953c-.116,0-.234,0-.352-.006-.074-.007-.151-.013-.231-.018a32.712,32.712,0,0,1-1.036-4.844c2.389.468,4.883.828,7.417,1.072a5.719,5.719,0,0,1-5.8,3.8" transform="translate(0.142 0.118)" fill="#099660"/>
    <path id="路径_34881" data-name="路径 34881" d="M45.009,17.547a12.766,12.766,0,0,0-2.155-.636l1.917-2.635.331-.453-.2-.525L42.372,6.964c2.372-3,5.06-4.953,7.416-5.387A22.886,22.886,0,0,0,46.9,8.372a62.671,62.671,0,0,0-1.894,9.176" transform="translate(0.166 0.006)" fill="#099660"/>
    <path id="路径_34882" data-name="路径 34882" d="M49.8,50.257c-2.8-.513-6-3.123-8.619-7.036-.271-.408-.5-.762-.717-1.123a51.2,51.2,0,0,0,6.344.979c.018.072.038.145.059.215s.033.115.046.169a22.86,22.86,0,0,0,2.886,6.8" transform="translate(0.159 0.165)" fill="#099660"/>
    <path id="路径_34883" data-name="路径 34883" d="M50.755,42.7c-1.135,0-2.33-.045-3.55-.133-.417-1.534-.788-3.168-1.1-4.858a10.163,10.163,0,0,0,4.377-6.218l.271,0c1.781,0,3.569-.063,5.319-.188q-.021,1.068-.049,2.136a61.642,61.642,0,0,1-1.739,9.125c-1.217.088-2.4.133-3.531.133" transform="translate(0.181 0.123)" fill="#099660"/>
    <path id="路径_34884" data-name="路径 34884" d="M50.609,30.956a14.923,14.923,0,0,0,.3-2.815c.043-3.658-.934-6.642-2.833-8.645.9.047,1.8.068,2.674.068,1.7,0,3.447-.087,5.2-.262.141,3.8.187,7.656.134,11.468-2.009.127-3.7.188-5.329.188Z" transform="translate(0.189 0.076)" fill="#099660"/>
    <path id="路径_34885" data-name="路径 34885" d="M37.235,21.869,37.6,19.2,24.614,17.665a5.765,5.765,0,0,0-.649-.042,2.442,2.442,0,0,0-1.824.694L30.6,7.363a3.655,3.655,0,0,1,2.826-1.441,2.786,2.786,0,0,1,.313.018l5.452.853.316-2.677.656.076,3.77,9.461-6.048,8.294Z" transform="translate(0.087 0.016)" fill="#099660"/>
  </g>
</svg>
