<svg xmlns="http://www.w3.org/2000/svg" width="29" height="29" viewBox="0 0 29 29">
  <g id="组_6978" data-name="组 6978" transform="translate(-362.308 -645.116)">
    <g id="组_5655" data-name="组 5655" transform="translate(362.808 645.616)">
      <path id="路径_25759" data-name="路径 25759" d="M14,0A14,14,0,1,1,0,14,14,14,0,0,1,14,0Z" fill="none" stroke="#004974" stroke-width="1"/>
    </g>
    <g id="组_6980" data-name="组 6980" transform="translate(369.197 653.351)">
      <g id="组_6982" data-name="组 6982" transform="translate(0.904 0.71)">
        <path id="路径_34746" data-name="路径 34746" d="M14.137,1.053v9.028a.364.364,0,0,0-.054.088,1.323,1.323,0,0,1-1.3.941q-5.708-.015-11.416,0a1.3,1.3,0,0,1-.889-.279A1.16,1.16,0,0,1,0,9.931Q0,5.583,0,1.235A1.2,1.2,0,0,1,.351.389,1.3,1.3,0,0,1,1.362,0q5.549,0,11.1,0c.191,0,.382.017.573.029a1.191,1.191,0,0,1,.961.4,1.051,1.051,0,0,1,.143.618M7.052,1.008H1.406a1.431,1.431,0,0,0-.152,0A.264.264,0,0,0,1,1.289a3.276,3.276,0,0,0,.066.563,3.2,3.2,0,0,0,1.3,1.822q.569.443,1.135.891c.322.254.641.511.963.765s.669.53,1.008.791.671.528,1.023.768A.9.9,0,0,0,7.406,7a4.733,4.733,0,0,0,1.011-.679q.472-.384.947-.765.49-.392.985-.78c.29-.228.581-.455.87-.684s.587-.451.864-.7A3.834,3.834,0,0,0,12.89,2.36a2.033,2.033,0,0,0,.227-1.136.182.182,0,0,0-.029-.073.337.337,0,0,0-.335-.142q-2.85,0-5.7,0M13.126,3.8c-.192.177-.354.345-.535.489-.449.36-.908.706-1.36,1.062-.375.3-.745.6-1.117.9-.324.259-.651.514-.97.779A5.5,5.5,0,0,1,7.855,7.9a1.921,1.921,0,0,1-.9.192A2.372,2.372,0,0,1,5.79,7.645c-.4-.277-.776-.6-1.16-.9-.462-.367-.92-.739-1.383-1.1-.324-.256-.656-.5-.979-.761-.307-.244-.61-.495-.91-.747-.115-.1-.22-.206-.339-.319,0,.044-.005.075-.005.106q0,2.919,0,5.837a.3.3,0,0,0,.014.149.525.525,0,0,0,.163.173.393.393,0,0,0,.188.02q5.686,0,11.371,0c.251,0,.381-.1.38-.384-.007-1.918,0-3.836,0-5.755Z" transform="translate(0 0)" fill="#004974" stroke="#004974" stroke-width="0.2"/>
      </g>
    </g>
  </g>
</svg>
