<svg xmlns="http://www.w3.org/2000/svg" xmlns:xlink="http://www.w3.org/1999/xlink" width="122" height="123" viewBox="0 0 122 123">
  <defs>
    <clipPath id="clip-path">
      <rect id="矩形_2436" data-name="矩形 2436" width="122" height="123" transform="translate(-1 -1.454)" fill="none" stroke="#00abc8" stroke-width="1"/>
    </clipPath>
    <clipPath id="clip-path-2">
      <rect id="矩形_2826" data-name="矩形 2826" width="58" height="50.506" fill="none"/>
    </clipPath>
  </defs>
  <g id="组_6840" data-name="组 6840" transform="translate(-1309 -1517)">
    <g id="组_5703" data-name="组 5703" transform="translate(1310 1518.454)">
      <g id="组_5699" data-name="组 5699">
        <g id="组_5696" data-name="组 5696" clip-path="url(#clip-path)">
          <circle id="椭圆_1567" data-name="椭圆 1567" cx="59.793" cy="59.793" r="59.793" transform="translate(0.207 0.207)" fill="none" stroke="#00abc8" stroke-miterlimit="10" stroke-width="0.5"/>
          <circle id="椭圆_1568" data-name="椭圆 1568" cx="45.931" cy="45.931" r="45.931" transform="translate(14.069 14.069)" fill="none" stroke="#00abc8" stroke-miterlimit="10" stroke-width="0.5"/>
          <line id="直线_28" data-name="直线 28" y2="29.293" transform="translate(60.104 90.5)" fill="none" stroke="#00abc8" stroke-miterlimit="10" stroke-width="0.5"/>
          <line id="直线_29" data-name="直线 29" x1="33.444" transform="translate(0.104 60.207)" fill="none" stroke="#00abc8" stroke-miterlimit="10" stroke-width="0.5"/>
          <line id="直线_78" data-name="直线 78" x1="33.444" transform="translate(86.557 60.207)" fill="none" stroke="#00abc8" stroke-miterlimit="10" stroke-width="0.5"/>
          <line id="直线_79" data-name="直线 79" y2="25.293" transform="translate(60.104 0.207)" fill="none" stroke="#00abc8" stroke-miterlimit="10" stroke-width="0.5"/>
        </g>
      </g>
    </g>
    <g id="组_6667" data-name="组 6667" transform="translate(1341 1553.247)">
      <g id="组_6666" data-name="组 6666" clip-path="url(#clip-path-2)">
        <path id="路径_34607" data-name="路径 34607" d="M0,43.224V5.556C0,2.936,2.633.641,5.213.126a6.591,6.591,0,0,1,6.728,2.728,1.073,1.073,0,0,0,1.04.551q21.663-.02,43.325-.018A1.562,1.562,0,0,1,58,4.4V49.63a1.472,1.472,0,0,1-1.549.876q-7.757-.015-15.513-.006-16.9,0-33.8,0A6.693,6.693,0,0,1,1.144,47.5,8.259,8.259,0,0,1,0,43.224M13.142,5.688V6.952q0,18.2,0,36.4a3.548,3.548,0,0,1-.023.563,1.1,1.1,0,0,1-1.072.978,1.069,1.069,0,0,1-1.127-.907c-.066-.312-.065-.638-.129-.95a4.162,4.162,0,0,0-3.2-3.434,4.322,4.322,0,0,0-4.54,1.306,4.235,4.235,0,0,0-.371,4.732,5.019,5.019,0,0,0,4.457,2.6H55.693V5.688ZM2.267,38.568A25.51,25.51,0,0,1,4.8,37.448c.515-.168.7-.338.7-.894q-.03-12.069-.012-24.138a4.733,4.733,0,0,1,.05-.787,1.1,1.1,0,0,1,2.183.04,5.963,5.963,0,0,1,.029.733q0,12.069,0,24.138a2.526,2.526,0,0,0,.011.507.436.436,0,0,0,.2.281c.967.427,1.942.837,2.919,1.253v-.4q0-15.63,0-31.26a6.379,6.379,0,0,0-.047-.845,4.308,4.308,0,0,0-6.491-3.2A4.113,4.113,0,0,0,2.265,6.706q.007,15.743,0,31.486v.376" transform="translate(0 0)"/>
        <path id="路径_34608" data-name="路径 34608" d="M170.518,93.549q2.006-2.027,4.013-4.054c.934-.939,1.416-.933,2.363.009l13.84,13.764c.107.106.215.211.321.319a1.133,1.133,0,0,1,.319,1.287,1.159,1.159,0,0,1-1.169.73c-.543.006-1.087,0-1.694,0v.712q0,6.7,0,13.4c0,1.161-.362,1.527-1.516,1.527q-11.3,0-22.6,0c-1.122,0-1.5-.374-1.5-1.49q0-6.7,0-13.4v-.748c-.557,0-1.077,0-1.6,0a1.173,1.173,0,0,1-.854-2.113c.967-.954,1.941-1.9,2.878-2.882a1.328,1.328,0,0,0,.338-.824c.027-2.336.013-4.672.016-7.009,0-1.1.4-1.488,1.5-1.492,1.17,0,2.341,0,3.511,0,1.312,0,1.661.355,1.668,1.687,0,.165,0,.329,0,.494l.156.082m-5.335,25.385h6.325c0-2.267,0-4.487,0-6.708,0-1.065.406-1.486,1.454-1.49q2.745-.011,5.491,0c1.029,0,1.443.422,1.445,1.44q.006,3.079,0,6.158v.6h6.3V105.648H165.183ZM164.107,103.3h23.21L175.709,91.577l-11.6,11.727m9.7,15.645h3.791v-5.928H173.8Zm-7.841-21.092.119.082c.627-.639,1.257-1.275,1.878-1.92a.481.481,0,0,0,.129-.3c.011-.706.006-1.412.006-2.127h-2.133Z" transform="translate(-141.832 -78.736)"/>
        <path id="路径_34609" data-name="路径 34609" d="M49.677,54.705a1.06,1.06,0,0,1,1.09,1.106,1.118,1.118,0,1,1-2.235-.044,1.08,1.08,0,0,1,1.145-1.062" transform="translate(-43.034 -48.508)"/>
      </g>
    </g>
  </g>
</svg>
