<svg xmlns="http://www.w3.org/2000/svg" xmlns:xlink="http://www.w3.org/1999/xlink" width="122" height="123" viewBox="0 0 122 123">
  <defs>
    <clipPath id="clip-path">
      <rect id="矩形_2436" data-name="矩形 2436" width="122" height="123" transform="translate(-1 -1.454)" fill="none" stroke="#00abc8" stroke-width="1"/>
    </clipPath>
    <clipPath id="clip-path-2">
      <rect id="矩形_2921" data-name="矩形 2921" width="60.897" height="59" fill="none"/>
    </clipPath>
  </defs>
  <g id="组_6838" data-name="组 6838" transform="translate(-510 -1517)">
    <g id="组_7328" data-name="组 7328">
      <g id="组_6276" data-name="组 6276" transform="translate(511 1518.454)">
        <g id="组_5698" data-name="组 5698">
          <g id="组_5696" data-name="组 5696" clip-path="url(#clip-path)">
            <circle id="椭圆_1567" data-name="椭圆 1567" cx="59.793" cy="59.793" r="59.793" transform="translate(0.207 0.207)" fill="none" stroke="#00abc8" stroke-miterlimit="10" stroke-width="0.5"/>
            <circle id="椭圆_1568" data-name="椭圆 1568" cx="45.931" cy="45.931" r="45.931" transform="translate(14.069 14.069)" fill="none" stroke="#00abc8" stroke-miterlimit="10" stroke-width="0.5"/>
            <line id="直线_28" data-name="直线 28" y2="32.293" transform="translate(60.104 87.5)" fill="none" stroke="#00abc8" stroke-miterlimit="10" stroke-width="0.5"/>
            <line id="直线_29" data-name="直线 29" x1="32.396" transform="translate(0.104 60.207)" fill="none" stroke="#00abc8" stroke-miterlimit="10" stroke-width="0.5"/>
            <line id="直线_75" data-name="直线 75" x1="32.396" transform="translate(87.604 60.207)" fill="none" stroke="#00abc8" stroke-miterlimit="10" stroke-width="0.5"/>
            <line id="直线_76" data-name="直线 76" y2="29.293" transform="translate(60.104 0.207)" fill="none" stroke="#00abc8" stroke-miterlimit="10" stroke-width="0.5"/>
          </g>
        </g>
      </g>
      <g id="组_7009" data-name="组 7009" transform="translate(546 1547)">
        <g id="组_7008" data-name="组 7008" transform="translate(0 0)" clip-path="url(#clip-path-2)">
          <path id="路径_34757" data-name="路径 34757" d="M67.156,30.366a3.941,3.941,0,0,1,1.254-3.052c.622-.659.452-.965-.348-1.237-1.664-.567-3.294-1.235-4.963-1.784-.972-.32-1.325-.784-.932-1.8.755-1.958,1.41-3.955,2.16-5.915.511-1.336,1.369-1.512,2.493-.6a10.974,10.974,0,0,0,1.532,1.161,2.649,2.649,0,0,0,3.223-.4,2.765,2.765,0,0,0,.831-3.155,2.636,2.636,0,0,0-2.491-1.905c-.684-.044-1.378.007-2.055-.08a1.167,1.167,0,0,1-1.1-1.647c.743-2.235,1.556-4.447,2.38-6.654.381-1.018,1.172-.64,1.846-.4q5.636,2.011,11.259,4.056c2.461.889,4.911,1.807,7.382,2.667.946.329,1.144.844.809,1.762Q87,20.8,83.619,30.238c-.33.922-.853,1.188-1.776.831-1.48-.571-2.979-1.093-4.473-1.628s-1.5-.532-1.605,1.051a4.342,4.342,0,0,1-8.183,1.935,3.968,3.968,0,0,1-.426-2.061" transform="translate(-29.688 -1.256)"/>
          <path id="路径_34758" data-name="路径 34758" d="M22.327,72.362q-10.043,0-20.086,0C.312,72.359.252,72.3.252,70.441q0-20.185,0-40.37c0-1.81.056-1.861,1.9-1.863q9.593-.01,19.185-.016c1.532,0,1.688.148,1.7,1.7.013,1.628.041,3.258-.01,4.885-.031,1,.322,1.206,1.215.845a4.1,4.1,0,0,1,4.661.774,4.387,4.387,0,0,1,.846,5.305,4.335,4.335,0,0,1-5.108,1.972c-1.593-.4-1.595-.4-1.6,1.241,0,1.071.058,2.146-.016,3.213-.077,1.1.284,1.558,1.445,1.5,1.584-.08,3.175-.041,4.763-.01,1.548.03,1.988.683,1.5,2.168a6.843,6.843,0,0,0-.549,1.968,2.693,2.693,0,0,0,1.628,2.809,2.762,2.762,0,0,0,3.23-.5,2.824,2.824,0,0,0,.764-3.169c-1.13-3.061-.957-3.281,2.285-3.281,1.674,0,3.348.016,5.022,0,.92-.009,1.315.407,1.314,1.325q-.019,10.092,0,20.184c0,1.2-.73,1.255-1.622,1.254q-10.236-.015-20.472-.006M1.629,39.581c0,2.912.022,5.825-.013,8.737-.011.92.287,1.339,1.257,1.3,1.2-.054,2.4-.006,3.6-.013,1.535-.008,1.532-.012,1.078-1.476a4.174,4.174,0,0,1,1.1-4.6,4.2,4.2,0,0,1,4.531-.919,4.318,4.318,0,0,1,2.377,5.825c-.4.852-.269,1.234.777,1.185,1.37-.065,2.745-.05,4.117-.005.907.03,1.206-.357,1.188-1.223-.035-1.712-.048-3.428.016-5.139.053-1.391.741-1.82,2.046-1.392.448.147.878.347,1.328.487a2.881,2.881,0,0,0,3.3-1.056,2.988,2.988,0,0,0,.045-3.378,2.793,2.793,0,0,0-3.159-1.131c-.5.125-.968.341-1.455.5-1.372.462-2.07.012-2.114-1.451-.048-1.626-.057-3.256,0-4.881.033-1-.33-1.36-1.339-1.355q-8.686.047-17.372,0c-1.028-.006-1.337.4-1.323,1.374.041,2.869.014,5.739.015,8.609M43.02,60.993c0-2.915-.024-5.829.014-8.744.012-.94-.323-1.323-1.275-1.279-1.113.052-2.231.01-3.348.012-1.685,0-1.685,0-1.257,1.634a4.324,4.324,0,0,1-7.918,3.37,4.516,4.516,0,0,1-.05-4.092c.286-.7.108-.93-.623-.917-1.373.024-2.75.054-4.12-.009-1.044-.048-1.472.3-1.425,1.388.07,1.582.043,3.172.006,4.757-.038,1.631-.715,2.073-2.22,1.528a12.033,12.033,0,0,0-1.468-.473,2.892,2.892,0,0,0-2.218,5.248,3.785,3.785,0,0,0,3.579-.057c1.573-.651,2.289-.2,2.328,1.49.037,1.585.052,3.173,0,4.757-.033.973.268,1.382,1.308,1.376q8.693-.052,17.386,0c1.033.006,1.334-.4,1.32-1.371-.043-2.871-.016-5.743-.016-8.615M11.64,70.964c2.831,0,5.664-.051,8.493.024,1.214.032,1.6-.416,1.514-1.568-.076-1.023-.015-2.055-.017-3.083,0-1.74-.006-1.74-1.647-1.223A4.289,4.289,0,0,1,14.4,61.127a4.243,4.243,0,0,1,5.914-4.14c1.11.388,1.374.1,1.334-.962-.049-1.283-.046-2.57,0-3.854.03-.893-.338-1.219-1.217-1.2-1.672.036-3.346.042-5.018-.009-1.557-.047-2.011-.743-1.458-2.169a5.68,5.68,0,0,0,.521-2.231,2.785,2.785,0,0,0-2.356-2.779,2.8,2.8,0,0,0-3.289,2.176,4.277,4.277,0,0,0,.4,2.619c.636,1.743.215,2.37-1.667,2.4-1.5.022-3,.052-4.5-.009-1.034-.042-1.45.286-1.442,1.38q.061,8.609,0,17.218C1.6,70.618,1.948,71,3.019,70.982c2.873-.053,5.748-.018,8.622-.018" transform="translate(-0.12 -13.498)"/>
          <path id="路径_34759" data-name="路径 34759" d="M22.327,72.362q-10.043,0-20.086,0C.312,72.359.252,72.3.252,70.441q0-20.185,0-40.37c0-1.81.056-1.861,1.9-1.863q9.593-.01,19.185-.016c1.532,0,1.688.148,1.7,1.7.013,1.628.041,3.258-.01,4.885-.031,1,.322,1.206,1.215.845a4.1,4.1,0,0,1,4.661.774,4.387,4.387,0,0,1,.846,5.305,4.335,4.335,0,0,1-5.108,1.972c-1.593-.4-1.595-.4-1.6,1.241,0,1.071.058,2.146-.016,3.213-.077,1.1.284,1.558,1.445,1.5,1.584-.08,3.175-.041,4.763-.01,1.548.03,1.988.683,1.5,2.168a6.843,6.843,0,0,0-.549,1.968,2.693,2.693,0,0,0,1.628,2.809,2.762,2.762,0,0,0,3.23-.5,2.824,2.824,0,0,0,.764-3.169c-1.13-3.061-.957-3.281,2.285-3.281,1.674,0,3.348.016,5.022,0,.92-.009,1.315.407,1.314,1.325q-.019,10.092,0,20.184c0,1.2-.73,1.255-1.622,1.254Q32.564,72.353,22.327,72.362ZM1.629,39.581c0,2.912.022,5.825-.013,8.737-.011.92.287,1.339,1.257,1.3,1.2-.054,2.4-.006,3.6-.013,1.535-.008,1.532-.012,1.078-1.476a4.174,4.174,0,0,1,1.1-4.6,4.2,4.2,0,0,1,4.531-.919,4.318,4.318,0,0,1,2.377,5.825c-.4.852-.269,1.234.777,1.185,1.37-.065,2.745-.05,4.117-.005.907.03,1.206-.357,1.188-1.223-.035-1.712-.048-3.428.016-5.139.053-1.391.741-1.82,2.046-1.392.448.147.878.347,1.328.487a2.881,2.881,0,0,0,3.3-1.056,2.988,2.988,0,0,0,.045-3.378,2.793,2.793,0,0,0-3.159-1.131c-.5.125-.968.341-1.455.5-1.372.462-2.07.012-2.114-1.451-.048-1.626-.057-3.256,0-4.881.033-1-.33-1.36-1.339-1.355q-8.686.047-17.372,0c-1.028-.006-1.337.4-1.323,1.374C1.654,33.842,1.628,36.712,1.629,39.581ZM43.02,60.993c0-2.915-.024-5.829.014-8.744.012-.94-.323-1.323-1.275-1.279-1.113.052-2.231.01-3.348.012-1.685,0-1.685,0-1.257,1.634a4.324,4.324,0,0,1-7.918,3.37,4.516,4.516,0,0,1-.05-4.092c.286-.7.108-.93-.623-.917-1.373.024-2.75.054-4.12-.009-1.044-.048-1.472.3-1.425,1.388.07,1.582.043,3.172.006,4.757-.038,1.631-.715,2.073-2.22,1.528a12.033,12.033,0,0,0-1.468-.473,2.892,2.892,0,0,0-2.218,5.248,3.785,3.785,0,0,0,3.579-.057c1.573-.651,2.289-.2,2.328,1.49.037,1.585.052,3.173,0,4.757-.033.973.268,1.382,1.308,1.376q8.693-.052,17.386,0c1.033.006,1.334-.4,1.32-1.371C42.993,66.737,43.02,63.865,43.02,60.993ZM11.64,70.964c2.831,0,5.664-.051,8.493.024,1.214.032,1.6-.416,1.514-1.568-.076-1.023-.015-2.055-.017-3.083,0-1.74-.006-1.74-1.647-1.223A4.289,4.289,0,0,1,14.4,61.127a4.243,4.243,0,0,1,5.914-4.14c1.11.388,1.374.1,1.334-.962-.049-1.283-.046-2.57,0-3.854.03-.893-.338-1.219-1.217-1.2-1.672.036-3.346.042-5.018-.009-1.557-.047-2.011-.743-1.458-2.169a5.68,5.68,0,0,0,.521-2.231,2.785,2.785,0,0,0-2.356-2.779,2.8,2.8,0,0,0-3.289,2.176,4.277,4.277,0,0,0,.4,2.619c.636,1.743.215,2.37-1.667,2.4-1.5.022-3,.052-4.5-.009-1.034-.042-1.45.286-1.442,1.38q.061,8.609,0,17.218C1.6,70.618,1.948,71,3.019,70.982,5.892,70.929,8.766,70.964,11.64,70.964Z" transform="translate(-0.12 -13.498)" fill="none" stroke="#000" stroke-miterlimit="10" stroke-width="0.5"/>
          <path id="路径_34760" data-name="路径 34760" d="M44.915,0a.885.885,0,0,1,.756.653c.5,1.179,1,2.359,1.465,3.55.155.393.311.881-.2,1.13-.59.289-.861-.173-1.05-.619-.5-1.178-.983-2.364-1.457-3.552-.219-.547-.19-1.012.483-1.16" transform="translate(-21.214 0)"/>
          <path id="路径_34761" data-name="路径 34761" d="M58.973,4.849c.4-1.224.823-2.529,1.273-3.821a.654.654,0,0,1,.813-.463.591.591,0,0,1,.455.794c-.4,1.353-.838,2.7-1.29,4.034a.653.653,0,0,1-.814.463c-.485-.125-.508-.516-.437-1.007" transform="translate(-28.22 -0.259)"/>
          <path id="路径_34762" data-name="路径 34762" d="M33.449,12.566c1.215.632,2.578,1.32,3.914,2.055a.542.542,0,0,1,.118.8.6.6,0,0,1-.782.255q-1.955-.933-3.877-1.934a.6.6,0,0,1-.274-.775c.125-.322.4-.416.9-.4" transform="translate(-15.56 -6.015)"/>
        </g>
      </g>
    </g>
  </g>
</svg>
