<svg xmlns="http://www.w3.org/2000/svg" xmlns:xlink="http://www.w3.org/1999/xlink" width="122" height="123" viewBox="0 0 122 123">
  <defs>
    <clipPath id="clip-path">
      <rect id="矩形_2436" data-name="矩形 2436" width="122" height="123" transform="translate(-1 -1.454)" fill="none" stroke="#00abc8" stroke-width="1"/>
    </clipPath>
    <clipPath id="clip-path-2">
      <rect id="矩形_2920" data-name="矩形 2920" width="56" height="55.544" fill="none"/>
    </clipPath>
  </defs>
  <g id="组_7010" data-name="组 7010" transform="translate(-899 -1517)">
    <g id="组_5702" data-name="组 5702" transform="translate(900 1518.454)">
      <g id="组_5697" data-name="组 5697">
        <g id="组_5696" data-name="组 5696" clip-path="url(#clip-path)">
          <path id="路径_34677" data-name="路径 34677" d="M59.793,0A59.793,59.793,0,1,1,0,59.793,59.793,59.793,0,0,1,59.793,0Z" transform="translate(0.207 0.207)" fill="none" stroke="#00abc8" stroke-width="0.5"/>
          <circle id="椭圆_1568" data-name="椭圆 1568" cx="45.931" cy="45.931" r="45.931" transform="translate(14.069 14.069)" fill="none" stroke="#00abc8" stroke-miterlimit="10" stroke-width="0.5"/>
          <line id="直线_28" data-name="直线 28" y2="33.293" transform="translate(60 0.207)" fill="none" stroke="#00abc8" stroke-miterlimit="10" stroke-width="0.5"/>
          <path id="路径_30809" data-name="路径 30809" d="M27.5,0H0" transform="translate(0.103 60.207)" fill="none" stroke="#00abc8" stroke-width="0.5"/>
          <path id="路径_30810" data-name="路径 30810" d="M27.5,0H0" transform="translate(92.504 60.207)" fill="none" stroke="#00abc8" stroke-width="0.5"/>
          <line id="直线_77" data-name="直线 77" y2="29.293" transform="translate(60 90.5)" fill="none" stroke="#00abc8" stroke-miterlimit="10" stroke-width="0.5"/>
        </g>
      </g>
    </g>
    <g id="组_7007" data-name="组 7007" transform="translate(932 1553)">
      <g id="组_7006" data-name="组 7006" transform="translate(0 0)" clip-path="url(#clip-path-2)">
        <path id="路径_34753" data-name="路径 34753" d="M0,31.688a3.717,3.717,0,0,1,1.213-1.71Q3.66,27.754,6.083,25.5c.387-.358.758-.735,1.125-1.113A4.4,4.4,0,0,1,10.4,22.929a15.991,15.991,0,0,1,3.157.118c2.333.456,3.693,2.35,3.694,4.92V63.452a2.831,2.831,0,0,1-1.944,2.972,2.685,2.685,0,0,1-2.528-.446,6.7,6.7,0,0,0,.572-3.607V47.255H11.493V63.566a2.78,2.78,0,0,1-2.24,2.941,2.75,2.75,0,0,1-3.231-2.163c-.01-.051-.019-.1-.026-.153a5.848,5.848,0,0,1-.056-.762Q5.926,52.8,5.918,42.16v-.383A15.764,15.764,0,0,0,7.9,41.766a4.1,4.1,0,0,0,2.774-6.46c-.914-1.222-1.989-2.323-3.035-3.53l2.489-3.39-.078-.079L5.59,32.3c1.12,1.25,2.209,2.473,3.305,3.692a2.355,2.355,0,0,1,.69,1.993,2.219,2.219,0,0,1-1.6,1.9,2.2,2.2,0,0,1-2.427-.686c-1.213-1.332-2.414-2.682-3.619-4.025a12.8,12.8,0,0,1-.869-.982C.687,33.66.353,33.1,0,32.563Z" transform="translate(0 -11.025)"/>
        <path id="路径_34754" data-name="路径 34754" d="M62.356,31.369c-.892,0-2.821-.021-3.708.022-.131.007-.32.294-.362.478q-1.144,5.087-2.255,10.182Q54.7,48.1,53.37,54.157c-.088,1.012-.426,1.783-1.441,1.766a1.888,1.888,0,0,1-1.693-2.463c.258-1.192.528-2.381.792-3.572L54.989,31.92c.034-.156.052-.315.093-.553H45.813c-1.512,0-2.168-.658-2.17-2.161,0-.857-.013-1.713.012-2.569,0-.149.15-.406.26-.424a3.793,3.793,0,0,0,2.028-1.389v4.107H74.691V3.274H46.482a.53.53,0,0,0-.528.538c0,1.472-.017,6.11,0,8.162a2.747,2.747,0,0,1-2.319,2.671V2.886A1.84,1.84,0,0,1,45.722.807h29.2a1.824,1.824,0,0,1,2.065,2.042V29.317a1.817,1.817,0,0,1-2.053,2.053c-2.844.007-5.687,0-8.531,0h-.725c.041.248.064.44.105.627q2.361,10.718,4.724,21.434a1.75,1.75,0,0,1-.921,2.286c-.914.461-1.51.094-1.972-.819a1.877,1.877,0,0,1-.169-.5c-.6-2.645-1.171-5.3-1.755-7.944l-3.2-14.56c-.035-.158-.085-.312-.143-.522" transform="translate(-21.001 -0.38)"/>
        <path id="路径_34755" data-name="路径 34755" d="M22.7,5.611a5.413,5.413,0,0,1-10.821.336c0-.146,0-.292,0-.438a5.413,5.413,0,0,1,10.817.1" transform="translate(-5.72 -0.176)"/>
        <path id="路径_34756" data-name="路径 34756" d="M46.2,29.631c-1.174,1.344-3.173,4.262-4.34,5.615-1.071,1.243-2.321,1.257-3.651.3a3.147,3.147,0,0,1-1.448-3.159c.132-1.365.029-2.752.029-4.2l2.893,2.475c1.054-1.228,2.071-2.414,3.089-3.6s2.488-2.333,4.037-1.3c1.818,1.213-.613,3.869-.613,3.869" transform="translate(-17.68 -12.208)"/>
      </g>
    </g>
  </g>
</svg>
