<svg id="组_7329" data-name="组 7329" xmlns="http://www.w3.org/2000/svg" xmlns:xlink="http://www.w3.org/1999/xlink" width="57" height="55.304" viewBox="0 0 57 55.304">
  <defs>
    <clipPath id="clip-path">
      <rect id="矩形_2427" data-name="矩形 2427" width="57" height="55.304" fill="none"/>
    </clipPath>
  </defs>
  <g id="组_5665" data-name="组 5665">
    <g id="组_5664" data-name="组 5664" clip-path="url(#clip-path)">
      <path id="路径_25760" data-name="路径 25760" d="M47.757,20.022l3.271-2.108c-2.241-3.813-4.375-7.633-6.705-11.329-1.088-1.727-2.2-.836-2.973.478-2.163,3.656-4.291,7.332-6.436,11-.487.832-.992,1.653-1.595,2.656l-4.832-2.768C31.566,12.792,34.333,7.616,37.631,2.8c2.693-3.928,8.348-3.651,11.06.34,2.153,3.168,3.945,6.582,5.9,9.883.409.689.844,1.363,1.3,2.1l3.325-1.776c-.594,3.524-1.124,6.673-1.714,10.176l-9.754-3.509" transform="translate(-14.501 0)"/>
      <path id="路径_25761" data-name="路径 25761" d="M65.926,78.868v3.886s-5.081-4.293-7.809-6.561l7.809-6.529v3.7s8.961.079,13.191-.034c1.992-.054,2.4-1.069,1.3-3.032-2.506-4.485-5.084-8.929-7.76-13.614l4.748-2.76c1.684,2.9,3.313,5.682,4.926,8.476,1.062,1.841,2.168,3.661,3.143,5.548,2.9,5.618-.136,10.784-6.439,10.9-4.157.079-13.112.015-13.112.015" transform="translate(-29.583 -27.45)"/>
      <path id="路径_25762" data-name="路径 25762" d="M7.48,53.807,4.317,51.726l9.641-3.553c.606,3.459,1.163,6.636,1.777,10.143L12.317,56.6C10.172,60.359,8.015,64,6,67.723c-.965,1.777-.339,2.654,1.87,2.694,4.25.076,8.5.05,12.755.064.883,0,1.767,0,2.813,0V75.8c-5.983,0-11.944.339-17.845-.109-4.6-.35-6.948-5.66-4.765-10.009,1.611-3.209,3.51-6.273,5.279-9.4.435-.771.863-1.547,1.377-2.469" transform="translate(0 -24.521)"/>
    </g>
  </g>
  <text id="_5" data-name="5" transform="translate(23.601 36.452)" font-size="18" font-family="ArialMT, Arial"><tspan x="0" y="0">5</tspan></text>
</svg>
