<svg xmlns="http://www.w3.org/2000/svg" xmlns:xlink="http://www.w3.org/1999/xlink" width="51" height="41.107" viewBox="0 0 51 41.107">
  <defs>
    <clipPath id="clip-path">
      <rect id="矩形_2580" data-name="矩形 2580" width="51" height="41.107" fill="none"/>
    </clipPath>
  </defs>
  <g id="组_6111" data-name="组 6111" transform="translate(49 -28)">
    <g id="组_6110" data-name="组 6110" transform="translate(-49 28)" clip-path="url(#clip-path)">
      <path id="路径_30831" data-name="路径 30831" d="M25.452,41.105q-8.158,0-16.317,0A8.744,8.744,0,0,1,.011,32.065c-.02-3.956,0-7.912,0-11.867,0-3.665-.018-7.331,0-11C.028,3.741,3.755.008,9.188.005q16.371-.01,32.74,0a8.735,8.735,0,0,1,9.052,9c.034,4.724.011,9.448.011,14.172,0,2.96.012,5.92-.008,8.88a8.741,8.741,0,0,1-9.109,9.05q-8.211.006-16.423,0M25.6,4.433q-8.2,0-16.409,0a5.08,5.08,0,0,0-2.262.443c-1.486.716-1.516.908-.324,1.964.185.164.371.325.558.488,4.6,4,9.349,7.853,13.758,12.059,2.774,2.646,6.278,2.772,8.95.165.832-.811,1.722-1.564,2.593-2.335q6.1-5.4,12.219-10.79c.6-.523.6-.825-.072-1.238A5.162,5.162,0,0,0,41.8,4.427c-5.4.013-10.8.006-16.2.006M43.092,36.525c-.086-.179-.107-.292-.174-.353q-6.13-5.452-12.27-10.893a.918.918,0,0,0-1.139-.152,9.886,9.886,0,0,1-8.112.055,1.22,1.22,0,0,0-1.494.231C16.092,28.827,12.247,32.2,8.416,35.6a1.828,1.828,0,0,0-.737.929Zm3.451-25.8c-1.427,1.262-2.608,2.31-3.792,3.355-2.667,2.355-5.324,4.722-8.011,7.055-.722.627-.855,1.049-.023,1.758,2.227,1.9,4.365,3.9,6.547,5.844q2.25,2.01,4.525,3.991c.15.132.37.32.519.291.312-.063.206-.4.225-.624.025-.316.012-.635.012-.952l0-15.552V10.721m-41.877.332A1.78,1.78,0,0,0,4.459,12.3c.011,3.843.051,7.685.055,11.528,0,2.749-.039,5.5-.055,8.247,0,.235-.1.558.127.685.313.176.494-.168.689-.34q5.877-5.206,11.765-10.443L4.667,11.054" transform="translate(0 0)"/>
    </g>
  </g>
</svg>
