<svg xmlns="http://www.w3.org/2000/svg" xmlns:xlink="http://www.w3.org/1999/xlink" width="403.543" height="181.517" viewBox="0 0 403.543 181.517">
  <defs>
    <clipPath id="clip-path">
      <rect id="矩形_2573" data-name="矩形 2573" width="21.182" height="24" fill="#004974"/>
    </clipPath>
  </defs>
  <g id="组_6995" data-name="组 6995" transform="translate(-1119.617 -3332.319)">
    <text id="實現消費後再生塑膠PCR循環經濟" transform="translate(1134 3419.36)" fill="#004974" font-size="24" font-family="YuGothicUI-Regular, Yu Gothic UI"><tspan x="-178.77" y="26">實現消費後再生塑膠</tspan><tspan y="26" font-family="Roboto-Regular, Roboto">PCR</tspan><tspan y="26">循環經濟</tspan></text>
    <text id="_100_" data-name="100%" transform="translate(1238 3401.36)" fill="#004974" font-size="66" font-family="Roboto-Regular, Roboto"><tspan x="0" y="0">100%</tspan></text>
    <g id="组_6089" data-name="组 6089" transform="translate(1327.999 3489.818) rotate(90)">
      <g id="组_6088" data-name="组 6088" transform="translate(0 -0.001)" clip-path="url(#clip-path)">
        <path id="路径_30812" data-name="路径 30812" d="M13.5.391a1.336,1.336,0,1,0,1.889,0,1.336,1.336,0,0,0-1.889,0" transform="translate(-5.264 0)" fill="#004974"/>
        <path id="路径_30813" data-name="路径 30813" d="M19.44,6.331a1.336,1.336,0,1,0,1.889,0,1.335,1.335,0,0,0-1.889,0" transform="translate(-7.648 -2.384)" fill="#004974"/>
        <path id="路径_30814" data-name="路径 30814" d="M25.379,12.269a1.335,1.335,0,1,0,1.888,0,1.335,1.335,0,0,0-1.888,0" transform="translate(-10.032 -4.769)" fill="#004974"/>
        <path id="路径_30815" data-name="路径 30815" d="M31.319,18.209a1.335,1.335,0,1,0,1.888,0,1.335,1.335,0,0,0-1.888,0" transform="translate(-12.417 -7.153)" fill="#004974"/>
        <path id="路径_30816" data-name="路径 30816" d="M13.5,37.916a1.336,1.336,0,1,1,1.889,0,1.336,1.336,0,0,1-1.889,0" transform="translate(-5.264 -14.307)" fill="#004974"/>
        <path id="路径_30817" data-name="路径 30817" d="M19.44,31.977a1.336,1.336,0,1,1,1.889,0,1.335,1.335,0,0,1-1.889,0" transform="translate(-7.648 -11.923)" fill="#004974"/>
        <path id="路径_30818" data-name="路径 30818" d="M25.379,26.037a1.335,1.335,0,1,1,1.888,0,1.334,1.334,0,0,1-1.888,0" transform="translate(-10.032 -9.538)" fill="#004974"/>
        <path id="路径_30819" data-name="路径 30819" d="M31.319,20.1a1.335,1.335,0,1,1,1.888,0,1.335,1.335,0,0,1-1.888,0" transform="translate(-12.417 -7.153)" fill="#004974"/>
        <path id="路径_30820" data-name="路径 30820" d="M.391.391a1.336,1.336,0,1,0,1.889,0,1.336,1.336,0,0,0-1.889,0" transform="translate(0 0)" fill="#004974"/>
        <path id="路径_30821" data-name="路径 30821" d="M6.331,6.331a1.336,1.336,0,1,0,1.889,0,1.336,1.336,0,0,0-1.889,0" transform="translate(-2.385 -2.384)" fill="#004974"/>
        <path id="路径_30822" data-name="路径 30822" d="M12.269,12.269a1.336,1.336,0,1,0,1.889,0,1.335,1.335,0,0,0-1.889,0" transform="translate(-4.769 -4.769)" fill="#004974"/>
        <path id="路径_30823" data-name="路径 30823" d="M18.209,18.209a1.335,1.335,0,1,0,1.888,0,1.335,1.335,0,0,0-1.888,0" transform="translate(-7.154 -7.153)" fill="#004974"/>
        <path id="路径_30824" data-name="路径 30824" d="M.391,37.916a1.336,1.336,0,1,1,1.889,0,1.336,1.336,0,0,1-1.889,0" transform="translate(0 -14.307)" fill="#004974"/>
        <path id="路径_30825" data-name="路径 30825" d="M6.331,31.977a1.336,1.336,0,1,1,1.889,0,1.336,1.336,0,0,1-1.889,0" transform="translate(-2.385 -11.923)" fill="#004974"/>
        <path id="路径_30826" data-name="路径 30826" d="M12.269,26.037a1.335,1.335,0,1,1,1.889,0,1.334,1.334,0,0,1-1.889,0" transform="translate(-4.769 -9.538)" fill="#004974"/>
        <path id="路径_30827" data-name="路径 30827" d="M18.209,20.1a1.335,1.335,0,1,1,1.888,0,1.335,1.335,0,0,1-1.888,0" transform="translate(-7.154 -7.153)" fill="#004974"/>
      </g>
    </g>
    <g id="组_6147" data-name="组 6147" transform="translate(1120.616 3333.319)">
      <line id="直线_87" data-name="直线 87" x1="50.767" transform="translate(0 0)" fill="none" stroke="#004974" stroke-linecap="square" stroke-width="2"/>
      <line id="直线_88" data-name="直线 88" y1="46.081" transform="translate(0 0)" fill="none" stroke="#004974" stroke-linecap="square" stroke-width="2"/>
    </g>
    <g id="组_6148" data-name="组 6148" transform="translate(1522.16 3512.836) rotate(180)">
      <line id="直线_87-2" data-name="直线 87" x1="50.718" transform="translate(0 0)" fill="none" stroke="#004974" stroke-linecap="square" stroke-width="2"/>
      <line id="直线_88-2" data-name="直线 88" y1="46.036" transform="translate(0 0)" fill="none" stroke="#004974" stroke-linecap="square" stroke-width="2"/>
    </g>
  </g>
</svg>
