<svg xmlns="http://www.w3.org/2000/svg" xmlns:xlink="http://www.w3.org/1999/xlink" width="94.888" height="94.671" viewBox="0 0 94.888 94.671">
  <defs>
    <clipPath id="clip-path">
      <rect id="矩形_2557" data-name="矩形 2557" width="94.888" height="94.671" fill="none"/>
    </clipPath>
  </defs>
  <g id="组_6023" data-name="组 6023" clip-path="url(#clip-path)">
    <path id="路径_30768" data-name="路径 30768" d="M40.673,0C57.24,3.82,70.3,13.821,83.623,23.664c8.889,6.57,12.608,14.347,10.833,25.241-1.462,8.975-2.278,18.053-5.909,26.529C81.357,92.221,67.95,98.309,50.7,92.561c-3.181-1.06-6.312-2.3-9.4-3.595-5.808-2.439-11.62-4.832-17.818-6.136-8.9-1.872-15.007-7.1-18.568-15.429-.871-2.038-1.953-3.986-2.938-5.975a36.234,36.234,0,0,1,0-23.56C3.2,35.387,4.391,32.884,5.68,30.434,12.48,17.52,19.154,4.475,34.783,0ZM91.407,43.483c.586-6.053-1.953-10.644-6.594-14.209-5.774-4.434-11.488-8.958-17.432-13.155A82.531,82.531,0,0,0,46.986,5.471c-10.47-3.664-18.894-.941-25.973,7.224-5.281,6.091-8.829,13.227-12.7,20.212-7.09,12.8-5.439,24.949,1.862,36.947,2.512,4.129,5.861,7.313,10.529,8.475,10.365,2.58,20.062,6.949,30.033,10.6,16.488,6.031,28.943.151,35.212-16.289,3.584-9.395,4.556-19.285,5.456-29.155" transform="translate(0 0)" fill="#fff"/>
    <path id="路径_30769" data-name="路径 30769" d="M90.149,47.962c-.688,8.1-1.659,16.151-4.736,23.773C79.9,85.384,68.952,90.675,54.954,86.209c-8.522-2.719-16.756-6.261-25.225-9.18-9.836-3.389-16.663-19.12-13.683-30.572a62.338,62.338,0,0,1,14.44-26.246c6.318-6.99,14.055-8.681,22.925-5.643,12.748,4.367,23.1,12.447,32.856,21.365,3.425,3.13,4.146,7.5,3.882,12.028m-3.278.076c0-3.733-.378-7.083-2.89-9.377-9.958-9.09-20.39-17.508-33.665-21.406-5.879-1.727-11.2-.53-15.528,3.71A55.422,55.422,0,0,0,19.021,49.109c-1.966,9.015,4.636,22.371,12.418,24.908,8.117,2.646,15.946,6.005,23.99,8.791,12.161,4.212,21.345-.037,26.558-11.911,3.261-7.427,3.879-15.4,4.883-22.86" transform="translate(-2.433 -2.081)" fill="#fff"/>
    <path id="路径_30770" data-name="路径 30770" d="M30.145,53.872c2.019-10.322,6.293-19.648,15.4-26.087,3.834-2.711,8.27-2.324,12.547-1.062,9.522,2.809,17.13,8.715,24.206,15.386a10.674,10.674,0,0,1,3.183,8.417c-.292,7.022-1.343,13.947-4.647,20.285-4.4,8.448-11.945,11.933-21.071,9.184a135.957,135.957,0,0,1-19.6-7.379C32.714,69.04,31.34,61.634,30.145,53.872m51.8-1.758c.214-2.757-.048-5.506-2.109-7.459-6.746-6.392-14-12.006-23.108-14.8-5.207-1.6-9.386-.089-12.9,3.691A41.252,41.252,0,0,0,34.418,50.23c-2.2,7.526,2.1,17.331,8.569,19.94,5.317,2.143,10.667,4.224,16.087,6.089,8.891,3.059,15.694,0,19.479-8.646,2.159-4.929,2.953-10.186,3.393-15.5" transform="translate(-4.78 -4.084)" fill="#fff"/>
    <path id="路径_30771" data-name="路径 30771" d="M80.789,54.638c-.271,5.373-1.192,9.169-3.106,12.645-3.036,5.515-8.53,7.756-14.578,6.126a57.113,57.113,0,0,1-11.253-4.551c-4.845-2.5-7.446-9.824-5.856-15.786a26.944,26.944,0,0,1,3.532-7.577c4.448-6.928,9.661-8.568,17.218-5.41A36.9,36.9,0,0,1,77.484,47.3a9.484,9.484,0,0,1,3.3,7.333m-15.546,15.7c5.282.279,7.708-1.9,9.5-4.948a22.372,22.372,0,0,0,2.623-9.211c.567-5.489-3.716-7.8-7.356-10.278-3.8-2.589-7.8-5.2-12.792-3.209a6.978,6.978,0,0,0-2.35,1.72,21.179,21.179,0,0,0-5.6,10.15c-.842,3.967-.034,7.871,3.144,10.289a29.951,29.951,0,0,0,12.828,5.487" transform="translate(-7.219 -6.111)" fill="#fff"/>
    <path id="路径_30772" data-name="路径 30772" d="M60.616,59.412c-.071-4.673,2.916-8.162,7.066-8.254a8.3,8.3,0,0,1,8.462,8.063,7.746,7.746,0,0,1-7.791,7.686c-4.525.124-7.668-2.92-7.737-7.495m3.467-.43c.034,2.717,1.283,4.569,3.911,4.55,2.573-.019,4.612-1.428,4.569-4.349C72.52,56.361,70.6,54.8,68.018,54.66c-2.8-.154-3.639,2.046-3.935,4.322" transform="translate(-9.611 -8.111)" fill="#fff"/>
  </g>
</svg>
