<svg xmlns="http://www.w3.org/2000/svg" xmlns:xlink="http://www.w3.org/1999/xlink" width="55.449" height="83.569" viewBox="0 0 55.449 83.569">
  <defs>
    <clipPath id="clip-path">
      <rect id="矩形_2555" data-name="矩形 2555" width="55.449" height="83.569" fill="none"/>
    </clipPath>
  </defs>
  <g id="组_6019" data-name="组 6019" clip-path="url(#clip-path)">
    <path id="路径_30765" data-name="路径 30765" d="M11.506,18.919V14.858c-.3-.052-.538-.1-.78-.134a3.863,3.863,0,0,1-3.571-3.894C7.091,8.519,7.082,6.2,7.16,3.89a3.842,3.842,0,0,1,4.1-3.88Q27.731-.01,44.2.01A3.883,3.883,0,0,1,48.358,4.1c.041,1.766.012,3.534.012,5.3,0,3.745-.728,4.684-4.35,5.519v4.012c.3.083.619.188.942.256A12.79,12.79,0,0,1,55.432,31.929c.036,6.1,0,12.2,0,18.3q0,12.232,0,24.464c0,5.479-3.406,8.87-8.919,8.873q-18.807.008-37.615,0c-5.4,0-8.809-3.437-8.825-8.843C.054,67.785,0,60.848,0,53.91c0-7.19.053-14.38.07-21.57.017-6.825,4-11.744,10.69-13.2.244-.053.48-.142.746-.222M52.849,67.61V34.969H2.577c0,.527,0,.98,0,1.433.034,5.173.094,10.345.1,15.518,0,4.751-.024,9.5-.122,14.254-.024,1.178.339,1.464,1.483,1.461,15.78-.036,48.246-.025,48.815-.025m.037,2.5h-1.76l-45.076,0c-.8,0-1.6.042-2.4-.012-.821-.056-1.12.244-1.086,1.077.056,1.386-.025,2.778.026,4.165a5.656,5.656,0,0,0,5.719,5.7q19.445.057,38.889,0a5.545,5.545,0,0,0,5.657-5.205c.157-1.83.029-3.685.029-5.73m-.061-37.78A10.2,10.2,0,0,0,42.8,21.485q-15.019-.1-30.04-.006a10.242,10.242,0,0,0-9.931,8.154,22.489,22.489,0,0,0-.254,2.7ZM27.88,2.509q-8.145,0-16.29,0c-1.442,0-1.918.452-1.937,1.866-.028,2.02-.024,4.04,0,6.06.015,1.285.489,1.78,1.75,1.782q16.353.017,32.705,0c1.258,0,1.73-.5,1.746-1.785.024-1.851.009-3.7.005-5.555,0-2.025-.343-2.372-2.322-2.373q-7.829,0-15.658,0M41.365,14.849H14.149v4.029H41.365Z" transform="translate(0 0)" fill="#fff"/>
    <path id="路径_30766" data-name="路径 30766" d="M87.274,173.119A6.552,6.552,0,0,1,83,179.078a6.69,6.69,0,0,1-7.584-1.454c-2.04-1.937-3.989-3.97-5.982-5.956-2.139-2.131-4.316-4.224-6.418-6.391a7.006,7.006,0,0,1,.016-9.872,6.934,6.934,0,0,1,9.872-.021c3.1,3.025,6.133,6.117,9.195,9.181,1.036,1.037,2.065,2.082,3.109,3.112a7.235,7.235,0,0,1,2.069,5.442m-17.222-4.625,6.189-5.934c-1.888-1.96-3.636-3.958-5.582-5.739a4.41,4.41,0,0,0-6.1,6.3c1.76,1.9,3.7,3.636,5.5,5.372m1.722,1.98c1.109,1.053,2.035,1.9,2.927,2.787s1.71,1.849,2.636,2.7a4.433,4.433,0,0,0,5.967.018,4.214,4.214,0,0,0,.562-5.806c-1.732-2.072-3.709-3.94-5.448-5.759l-6.645,6.063" transform="translate(-45.589 -114.617)" fill="#fff"/>
  </g>
</svg>
