<svg xmlns="http://www.w3.org/2000/svg" xmlns:xlink="http://www.w3.org/1999/xlink" width="123" height="60.859" viewBox="0 0 123 60.859">
  <defs>
    <clipPath id="clip-path">
      <rect id="矩形_2556" data-name="矩形 2556" width="123" height="60.859" fill="none"/>
    </clipPath>
  </defs>
  <g id="组_6022" data-name="组 6022" transform="translate(0)">
    <g id="组_6021" data-name="组 6021" transform="translate(0)" clip-path="url(#clip-path)">
      <path id="路径_30767" data-name="路径 30767" d="M52.6,51.053c-9.822,0-19.643.037-29.464-.037-1.651-.012-2.126-.009-2.1,1.705.029,2.252,0,3.739,0,5.868,0,1.291-.558,2.26-2.073,2.26q-8.418,0-16.837.006C.619,60.856-.007,60.085,0,58.62Q.04,50.2.026,41.784c0-1.617,1.039-2.726,1.856-3.9,3.069-4.417,6.289-8.73,9.3-13.182,1.065-1.573,2.216-2.4,4.136-2.148.9.119,1.795.446,3.355.706.137.023,1.83-6.7,1.854-6.837.184-1.061.8-2.155,2.654-3.6C26.384,10.322,34.2,3.577,37.292.939a3.353,3.353,0,0,1,3.441-.76q36.672,10.2,73.373,20.3a2.82,2.82,0,0,1,2.227,1.956c1.932,6.075,4.579,11.9,6.4,18.014a4.946,4.946,0,0,1,.093,2.869c-1.43,5.133-2.892,10.257-4.241,15.412-.519,1.982-1.544,2.391-3.409,1.807-2.741-.859-5.552-1.491-8.306-2.31-1.018-.3-1.62-.355-1.62.166v1.591c0,.876-.954.872-2.172.869q-8.313-.016-16.626.007c-1.623.006-2.261-.794-2.227-2.351.04-1.823-.091-3.655.035-5.47.108-1.563-.388-2.036-1.986-2.024-9.891.072-19.783.036-29.674.037M20.946,29.606c-.045.674-.139,1.214.779,1.454,3.719.975,7.42,2.017,11.125,3.045,1.035.287,1.492-.083,1.728-1.142.4-1.774,1.042-3.493,1.434-5.268.4-1.829,1.386-2.471,3.183-1.993,4.057,1.081,8.133,2.092,12.177,3.216,10.574,2.938,21.134,5.926,31.7,8.884,6.265,1.753,12.525,3.525,18.809,5.205,1.937.518,2.493,1.484,1.849,3.381-.607,1.789-.938,3.671-1.537,5.463-.368,1.1-.016,1.5,1,1.766,3.589.954,7.18,1.909,10.737,2.974,1.331.4,1.7-.137,1.989-1.275.8-3.122,1.606-6.249,2.585-9.318.5-1.56.226-2.149-1.428-2.591q-19.77-5.291-39.491-10.767c-5.863-1.617-11.692-3.355-17.55-4.989-6.2-1.728-12.412-3.383-18.612-5.095-5.334-1.473-10.658-2.979-15.984-4.481-.667-.189-1.193-.3-1.44.607-.993,3.648-2.032,7.283-3.054,10.923m79.926,27.8c.486.013.639-.577.049-.78-2.933-1.009-3.286-1.251-2.434-4.34.447-1.621.906-3.239,1.339-4.864.161-.6.4-1.273-.539-1.5-2.787-.659-5.454-2.011-8.343-2.015q-42.283-.062-84.567.006c-.561,0-1.123.007-1.683,0-1.447-.024-1.139,1.391-1.18,1.8a1.838,1.838,0,0,0-.009.2l.009,9.947S3.292,57.387,5.9,57.32c3.095.107,5.869.107,9.176,0,1.994-.065,2.512-.333,2.534-1.375.029-2.111,0-3.032,0-4.715.006-2.536.409-3.752,3.525-3.752,21.107,0,42.02.049,63.127.049q.631,0,1.262.01a1.93,1.93,0,0,1,2.156,2.23c-.025,2.033.051,4.069-.024,6.1-.044,1.206.412,1.559,1.584,1.542,3.786-.054,11.541,0,11.633,0M81.693,22.849c-.107-2.1-.271-4.191-.3-6.287a1.674,1.674,0,0,0-1.421-1.919c-2.508-.628-5-1.336-7.48-2.06a1.462,1.462,0,0,0-1.948.615Q67.128,18.48,63.6,23.69c-.67.992-.279,1.283.686,1.522,1.963.485,3.908,1.043,5.856,1.587,3.49.975,6.981,1.948,10.462,2.954.992.287,1.385.108,1.332-1.033-.089-1.953-.247-6.735-.318-6.735m-38.759-2.7c5.512,1.523,10.566,2.9,15.6,4.33.958.272,1.249-.338,1.63-.913,2.244-3.386,4.46-6.791,6.735-10.155.61-.9.7-1.373-.543-1.694C62.823,9.962,59.386,9,55.95,8.022a1.553,1.553,0,0,0-1.713.344c-3.669,3.545-7.361,7.067-11.382,10.919M102.019,35.7c-1.5-5.486-2.882-10.515-4.261-15.543-.208-.758-.9-.808-1.49-.972-3.237-.9-6.493-1.738-9.71-2.7-1.285-.386-1.756-.265-1.644,1.235.3,3.978.5,7.964.656,11.95a1.6,1.6,0,0,0,1.412,1.713c4.831,1.356,9.648,2.767,15.038,4.322m16.915,4.523c-1.916-5.4-3.711-10.458-5.5-15.517-.142-.4-.286-.819-.746-.948-3.6-1.013-7.2-2.015-11.15-3.117,1.454,5.309,2.781,10.157,4.109,15,.147.536.238,1.057.935,1.241,3.977,1.051,7.944,2.14,12.355,3.336M26.185,14.663c4.267,1.179,8.086,2.22,11.894,3.3.938.266,1.426-.31,1.982-.842,2.023-1.939,4.079-3.843,6.065-5.818,1.512-1.5,2.936-3.093,4.471-4.72-1.54-.443-5.788-1.561-7.722-2.229C39.61,3.23,38.391,4.113,34.48,7.707c-2.531,2.326-5.285,4.473-8.3,6.957M4.75,40.418c2.724,0,9.128.341,11.526.216,2.134-.112,2.624-.659,3.978-4.6.377-1.1.563-1.462-.725-1.856-2.914-.89-3.587-1.148-2.989-2.988.173-.534.849-2.384,1.111-3.175.488-1.473.638-1.524-.476-1.858-1.054-.317-2.014-.873-3.05.585-3.12,4.392-6.316,8.734-9.376,13.678m56.213-.006c.429,0,.922,0,1.192-.543.6-1.211-1.044-4.592-3.111-5.144-3.989-1.064-7.655-2.086-11.913-3.259-1.082-.3-1.66-.135-2.017,1.017-.568,1.834-1.564,4.522-2,6.389-.346,1.478-.056,1.548,1.086,1.541,2.795-.016,13.973.026,16.767,0m-38.8.087c5.313,0,10.414-.029,15.513.023,1.135.012,1.466-.706,1.716-1.494.8-2.532,1.489-5.1,2.328-7.623.393-1.18-.214-1.463-1.1-1.744s-1.416-.107-1.667.9c-.511,2.036-1.213,4.027-1.658,6.075-.416,1.913-1.444,1.949-3.093,1.593-2.388-.515-3.6-1.035-5.439-1.468-2.263-.534-3.935-1.425-4.624-.339a26.371,26.371,0,0,0-1.974,4.08m56.354.04c-3.733-1.1-8.235-2.609-11.976-3.683-.414-.119-1-.381-1.294.211-.446.9,1.146,3.308,2.18,3.312,3.292.014,6.239.149,9.85.16h1.24" transform="translate(0 -0.001)" fill="#fff" stroke="#d5db22" stroke-linecap="round" stroke-linejoin="round" stroke-width="1"/>
    </g>
  </g>
</svg>
